M48
; DRILL file {KiCad (7.0.0)} date Wed Mar 22 23:13:40 2023
; FORMAT={-:-/ absolute / inch / decimal}
; #@! TF.CreationDate,2023-03-22T23:13:40-04:00
; #@! TF.GenerationSoftware,Kicad,Pcbnew,(7.0.0)
; #@! TF.FileFunction,Plated,1,2,PTH
FMAT,2
INCH
; #@! TA.AperFunction,Plated,PTH,ComponentDrill
T1C0.0315
; #@! TA.AperFunction,Plated,PTH,ComponentDrill
T2C0.0394
; #@! TA.AperFunction,Plated,PTH,ComponentDrill
T3C0.0433
%
G90
G05
T1
X4.685Y-0.9417
X4.685Y-1.3417
X4.8819Y-0.9386
X4.8819Y-1.3386
X5.0787Y-0.9386
X5.0787Y-1.3386
X5.2756Y-0.9386
X5.2756Y-1.3386
X5.8Y-2.3
X5.8Y-2.7
X6.0Y-2.3
X6.0Y-2.7
X6.526Y-0.9417
X6.526Y-1.3417
X6.726Y-0.9417
X6.726Y-1.3417
X6.926Y-0.9417
X6.926Y-1.3417
X7.126Y-0.9417
X7.126Y-1.3417
T2
X3.7402Y-3.1071
X3.7402Y-3.2071
X3.7402Y-3.3071
X3.7402Y-3.4071
X3.7402Y-3.5071
X6.5758Y-3.1083
X6.5758Y-3.2083
X6.5758Y-3.3083
X6.5758Y-3.4083
X6.5758Y-3.5083
T3
X3.6909Y-1.5256
X3.6909Y-1.7028
X3.9469Y-1.5256
X3.9469Y-1.7028
X4.0453Y-1.1713
X4.0453Y-1.3484
X4.0453Y-1.8799
X4.0453Y-2.0571
X4.3012Y-1.1713
X4.3012Y-1.3484
X4.3012Y-1.8799
X4.3012Y-2.0571
X4.3996Y-1.5256
X4.3996Y-1.7028
X4.6555Y-1.5256
X4.6555Y-1.7028
X5.2264Y-2.3114
X5.2264Y-2.4886
X5.4823Y-2.3114
X5.4823Y-2.4886
X5.6Y-0.9461
X5.6Y-1.0461
X5.6Y-1.1461
X5.6Y-1.2461
X5.6Y-1.3461
X5.6Y-1.4461
X5.6Y-1.5461
X5.6Y-1.6461
X5.6Y-1.7461
X5.6Y-1.8461
X5.6Y-1.9461
X5.6Y-2.0461
X6.2Y-0.9461
X6.2Y-1.0461
X6.2Y-1.1461
X6.2Y-1.2461
X6.2Y-1.3461
X6.2Y-1.4461
X6.2Y-1.5461
X6.2Y-1.6461
X6.2Y-1.7461
X6.2Y-1.8461
X6.2Y-1.9461
X6.2Y-2.0461
X6.3287Y-2.3114
X6.3287Y-2.4886
X6.5846Y-2.3114
X6.5846Y-2.4886
X7.185Y-1.5083
X7.185Y-1.6854
X7.4409Y-1.5083
X7.4409Y-1.6854
X7.5492Y-1.1713
X7.5492Y-1.3484
X7.5492Y-1.8406
X7.5492Y-2.0177
X7.8051Y-1.1713
X7.8051Y-1.3484
X7.8051Y-1.8406
X7.8051Y-2.0177
X7.9035Y-1.5083
X7.9035Y-1.6854
X8.1594Y-1.5083
X8.1594Y-1.6854
T0
M30
