%TF.GenerationSoftware,KiCad,Pcbnew,(7.0.0)*%
%TF.CreationDate,2023-03-22T23:13:35-04:00*%
%TF.ProjectId,controller,636f6e74-726f-46c6-9c65-722e6b696361,rev?*%
%TF.SameCoordinates,Original*%
%TF.FileFunction,Soldermask,Bot*%
%TF.FilePolarity,Negative*%
%FSLAX46Y46*%
G04 Gerber Fmt 4.6, Leading zero omitted, Abs format (unit mm)*
G04 Created by KiCad (PCBNEW (7.0.0)) date 2023-03-22 23:13:35*
%MOMM*%
%LPD*%
G01*
G04 APERTURE LIST*
%ADD10O,1.600000X1.600000*%
%ADD11C,1.600000*%
%ADD12C,2.000000*%
%ADD13R,1.700000X1.700000*%
%ADD14O,1.700000X1.700000*%
%ADD15R,1.600000X1.600000*%
G04 APERTURE END LIST*
D10*
%TO.C,R3*%
X118999999Y-23919999D03*
D11*
X119000000Y-34080000D03*
%TD*%
D10*
%TO.C,R8*%
X170839999Y-23919999D03*
D11*
X170840000Y-34080000D03*
%TD*%
D12*
%TO.C,PAUSE_BUTTON1*%
X160750000Y-58710000D03*
X160750000Y-63210000D03*
X167250000Y-58710000D03*
X167250000Y-63210000D03*
%TD*%
%TO.C,D_PAD_UP1*%
X102750000Y-29750000D03*
X102750000Y-34250000D03*
X109250000Y-29750000D03*
X109250000Y-34250000D03*
%TD*%
D13*
%TO.C,JOYSTICK2*%
X167024999Y-78949999D03*
D14*
X167024999Y-81489999D03*
X167024999Y-84029999D03*
X167024999Y-86569999D03*
X167024999Y-89109999D03*
%TD*%
D15*
%TO.C,U1*%
X142239999Y-24029999D03*
D11*
X142240000Y-26570000D03*
X142240000Y-29110000D03*
X142240000Y-31650000D03*
X142240000Y-34190000D03*
X142240000Y-36730000D03*
X142240000Y-39270000D03*
X142240000Y-41810000D03*
X142240000Y-44350000D03*
X142240000Y-46890000D03*
X142240000Y-49430000D03*
X142240000Y-51970000D03*
X157480000Y-51970000D03*
X157480000Y-49430000D03*
X157480000Y-46890000D03*
X157480000Y-44350000D03*
X157480000Y-41810000D03*
X157480000Y-39270000D03*
X157480000Y-36730000D03*
X157480000Y-34190000D03*
X157480000Y-31650000D03*
X157480000Y-29110000D03*
X157480000Y-26570000D03*
X157480000Y-24030000D03*
%TD*%
D10*
%TO.C,R7*%
X165759999Y-23919999D03*
D11*
X165760000Y-34080000D03*
%TD*%
D13*
%TO.C,JOYSTICK1*%
X94999999Y-78919999D03*
D14*
X94999999Y-81459999D03*
X94999999Y-83999999D03*
X94999999Y-86539999D03*
X94999999Y-89079999D03*
%TD*%
D12*
%TO.C,D_PAD_LEFT1*%
X93750000Y-38750000D03*
X93750000Y-43250000D03*
X100250000Y-38750000D03*
X100250000Y-43250000D03*
%TD*%
D10*
%TO.C,R10*%
X180999999Y-23919999D03*
D11*
X181000000Y-34080000D03*
%TD*%
D12*
%TO.C,Y_BUTTON1*%
X200750000Y-38310000D03*
X200750000Y-42810000D03*
X207250000Y-38310000D03*
X207250000Y-42810000D03*
%TD*%
D11*
%TO.C,R5*%
X147320000Y-68580000D03*
D10*
X147319999Y-58419999D03*
%TD*%
D12*
%TO.C,D_PAD_RIGHT1*%
X118250000Y-43250000D03*
X118250000Y-38750000D03*
X111750000Y-43250000D03*
X111750000Y-38750000D03*
%TD*%
D11*
%TO.C,R6*%
X152400000Y-68580000D03*
D10*
X152399999Y-58419999D03*
%TD*%
D12*
%TO.C,B_BUTTON1*%
X191750000Y-29750000D03*
X191750000Y-34250000D03*
X198250000Y-29750000D03*
X198250000Y-34250000D03*
%TD*%
%TO.C,A_BUTTON1*%
X182500000Y-38310000D03*
X182500000Y-42810000D03*
X189000000Y-38310000D03*
X189000000Y-42810000D03*
%TD*%
D10*
%TO.C,R2*%
X133999999Y-23839999D03*
D11*
X134000000Y-34000000D03*
%TD*%
D10*
%TO.C,R4*%
X128999999Y-23839999D03*
D11*
X129000000Y-34000000D03*
%TD*%
D12*
%TO.C,D_PAD_DOWN1*%
X102750000Y-47750000D03*
X102750000Y-52250000D03*
X109250000Y-47750000D03*
X109250000Y-52250000D03*
%TD*%
D10*
%TO.C,R1*%
X123999999Y-23839999D03*
D11*
X124000000Y-34000000D03*
%TD*%
D10*
%TO.C,R9*%
X175919999Y-23919999D03*
D11*
X175920000Y-34080000D03*
%TD*%
D12*
%TO.C,HOME_BUTTON1*%
X139250000Y-63210000D03*
X139250000Y-58710000D03*
X132750000Y-63210000D03*
X132750000Y-58710000D03*
%TD*%
%TO.C,X_BUTTON1*%
X191750000Y-46750000D03*
X191750000Y-51250000D03*
X198250000Y-46750000D03*
X198250000Y-51250000D03*
%TD*%
M02*
