%TF.GenerationSoftware,KiCad,Pcbnew,(7.0.0)*%
%TF.CreationDate,2023-03-22T23:13:35-04:00*%
%TF.ProjectId,controller,636f6e74-726f-46c6-9c65-722e6b696361,rev?*%
%TF.SameCoordinates,Original*%
%TF.FileFunction,Legend,Top*%
%TF.FilePolarity,Positive*%
%FSLAX46Y46*%
G04 Gerber Fmt 4.6, Leading zero omitted, Abs format (unit mm)*
G04 Created by KiCad (PCBNEW (7.0.0)) date 2023-03-22 23:13:35*
%MOMM*%
%LPD*%
G01*
G04 APERTURE LIST*
%ADD10C,0.150000*%
%ADD11C,0.120000*%
%ADD12R,1.600000X1.600000*%
%ADD13C,1.600000*%
G04 APERTURE END LIST*
D10*
%TO.C,R3*%
X116997380Y-29166666D02*
X116521190Y-29499999D01*
X116997380Y-29738094D02*
X115997380Y-29738094D01*
X115997380Y-29738094D02*
X115997380Y-29357142D01*
X115997380Y-29357142D02*
X116045000Y-29261904D01*
X116045000Y-29261904D02*
X116092619Y-29214285D01*
X116092619Y-29214285D02*
X116187857Y-29166666D01*
X116187857Y-29166666D02*
X116330714Y-29166666D01*
X116330714Y-29166666D02*
X116425952Y-29214285D01*
X116425952Y-29214285D02*
X116473571Y-29261904D01*
X116473571Y-29261904D02*
X116521190Y-29357142D01*
X116521190Y-29357142D02*
X116521190Y-29738094D01*
X115997380Y-28833332D02*
X115997380Y-28214285D01*
X115997380Y-28214285D02*
X116378333Y-28547618D01*
X116378333Y-28547618D02*
X116378333Y-28404761D01*
X116378333Y-28404761D02*
X116425952Y-28309523D01*
X116425952Y-28309523D02*
X116473571Y-28261904D01*
X116473571Y-28261904D02*
X116568809Y-28214285D01*
X116568809Y-28214285D02*
X116806904Y-28214285D01*
X116806904Y-28214285D02*
X116902142Y-28261904D01*
X116902142Y-28261904D02*
X116949761Y-28309523D01*
X116949761Y-28309523D02*
X116997380Y-28404761D01*
X116997380Y-28404761D02*
X116997380Y-28690475D01*
X116997380Y-28690475D02*
X116949761Y-28785713D01*
X116949761Y-28785713D02*
X116902142Y-28833332D01*
%TO.C,R8*%
X168837380Y-29166666D02*
X168361190Y-29499999D01*
X168837380Y-29738094D02*
X167837380Y-29738094D01*
X167837380Y-29738094D02*
X167837380Y-29357142D01*
X167837380Y-29357142D02*
X167885000Y-29261904D01*
X167885000Y-29261904D02*
X167932619Y-29214285D01*
X167932619Y-29214285D02*
X168027857Y-29166666D01*
X168027857Y-29166666D02*
X168170714Y-29166666D01*
X168170714Y-29166666D02*
X168265952Y-29214285D01*
X168265952Y-29214285D02*
X168313571Y-29261904D01*
X168313571Y-29261904D02*
X168361190Y-29357142D01*
X168361190Y-29357142D02*
X168361190Y-29738094D01*
X168265952Y-28595237D02*
X168218333Y-28690475D01*
X168218333Y-28690475D02*
X168170714Y-28738094D01*
X168170714Y-28738094D02*
X168075476Y-28785713D01*
X168075476Y-28785713D02*
X168027857Y-28785713D01*
X168027857Y-28785713D02*
X167932619Y-28738094D01*
X167932619Y-28738094D02*
X167885000Y-28690475D01*
X167885000Y-28690475D02*
X167837380Y-28595237D01*
X167837380Y-28595237D02*
X167837380Y-28404761D01*
X167837380Y-28404761D02*
X167885000Y-28309523D01*
X167885000Y-28309523D02*
X167932619Y-28261904D01*
X167932619Y-28261904D02*
X168027857Y-28214285D01*
X168027857Y-28214285D02*
X168075476Y-28214285D01*
X168075476Y-28214285D02*
X168170714Y-28261904D01*
X168170714Y-28261904D02*
X168218333Y-28309523D01*
X168218333Y-28309523D02*
X168265952Y-28404761D01*
X168265952Y-28404761D02*
X168265952Y-28595237D01*
X168265952Y-28595237D02*
X168313571Y-28690475D01*
X168313571Y-28690475D02*
X168361190Y-28738094D01*
X168361190Y-28738094D02*
X168456428Y-28785713D01*
X168456428Y-28785713D02*
X168646904Y-28785713D01*
X168646904Y-28785713D02*
X168742142Y-28738094D01*
X168742142Y-28738094D02*
X168789761Y-28690475D01*
X168789761Y-28690475D02*
X168837380Y-28595237D01*
X168837380Y-28595237D02*
X168837380Y-28404761D01*
X168837380Y-28404761D02*
X168789761Y-28309523D01*
X168789761Y-28309523D02*
X168742142Y-28261904D01*
X168742142Y-28261904D02*
X168646904Y-28214285D01*
X168646904Y-28214285D02*
X168456428Y-28214285D01*
X168456428Y-28214285D02*
X168361190Y-28261904D01*
X168361190Y-28261904D02*
X168313571Y-28309523D01*
X168313571Y-28309523D02*
X168265952Y-28404761D01*
%TO.C,PAUSE_BUTTON1*%
X158166666Y-57077380D02*
X158166666Y-56077380D01*
X158166666Y-56077380D02*
X158547618Y-56077380D01*
X158547618Y-56077380D02*
X158642856Y-56125000D01*
X158642856Y-56125000D02*
X158690475Y-56172619D01*
X158690475Y-56172619D02*
X158738094Y-56267857D01*
X158738094Y-56267857D02*
X158738094Y-56410714D01*
X158738094Y-56410714D02*
X158690475Y-56505952D01*
X158690475Y-56505952D02*
X158642856Y-56553571D01*
X158642856Y-56553571D02*
X158547618Y-56601190D01*
X158547618Y-56601190D02*
X158166666Y-56601190D01*
X159119047Y-56791666D02*
X159595237Y-56791666D01*
X159023809Y-57077380D02*
X159357142Y-56077380D01*
X159357142Y-56077380D02*
X159690475Y-57077380D01*
X160023809Y-56077380D02*
X160023809Y-56886904D01*
X160023809Y-56886904D02*
X160071428Y-56982142D01*
X160071428Y-56982142D02*
X160119047Y-57029761D01*
X160119047Y-57029761D02*
X160214285Y-57077380D01*
X160214285Y-57077380D02*
X160404761Y-57077380D01*
X160404761Y-57077380D02*
X160499999Y-57029761D01*
X160499999Y-57029761D02*
X160547618Y-56982142D01*
X160547618Y-56982142D02*
X160595237Y-56886904D01*
X160595237Y-56886904D02*
X160595237Y-56077380D01*
X161023809Y-57029761D02*
X161166666Y-57077380D01*
X161166666Y-57077380D02*
X161404761Y-57077380D01*
X161404761Y-57077380D02*
X161499999Y-57029761D01*
X161499999Y-57029761D02*
X161547618Y-56982142D01*
X161547618Y-56982142D02*
X161595237Y-56886904D01*
X161595237Y-56886904D02*
X161595237Y-56791666D01*
X161595237Y-56791666D02*
X161547618Y-56696428D01*
X161547618Y-56696428D02*
X161499999Y-56648809D01*
X161499999Y-56648809D02*
X161404761Y-56601190D01*
X161404761Y-56601190D02*
X161214285Y-56553571D01*
X161214285Y-56553571D02*
X161119047Y-56505952D01*
X161119047Y-56505952D02*
X161071428Y-56458333D01*
X161071428Y-56458333D02*
X161023809Y-56363095D01*
X161023809Y-56363095D02*
X161023809Y-56267857D01*
X161023809Y-56267857D02*
X161071428Y-56172619D01*
X161071428Y-56172619D02*
X161119047Y-56125000D01*
X161119047Y-56125000D02*
X161214285Y-56077380D01*
X161214285Y-56077380D02*
X161452380Y-56077380D01*
X161452380Y-56077380D02*
X161595237Y-56125000D01*
X162023809Y-56553571D02*
X162357142Y-56553571D01*
X162499999Y-57077380D02*
X162023809Y-57077380D01*
X162023809Y-57077380D02*
X162023809Y-56077380D01*
X162023809Y-56077380D02*
X162499999Y-56077380D01*
X162690476Y-57172619D02*
X163452380Y-57172619D01*
X164023809Y-56553571D02*
X164166666Y-56601190D01*
X164166666Y-56601190D02*
X164214285Y-56648809D01*
X164214285Y-56648809D02*
X164261904Y-56744047D01*
X164261904Y-56744047D02*
X164261904Y-56886904D01*
X164261904Y-56886904D02*
X164214285Y-56982142D01*
X164214285Y-56982142D02*
X164166666Y-57029761D01*
X164166666Y-57029761D02*
X164071428Y-57077380D01*
X164071428Y-57077380D02*
X163690476Y-57077380D01*
X163690476Y-57077380D02*
X163690476Y-56077380D01*
X163690476Y-56077380D02*
X164023809Y-56077380D01*
X164023809Y-56077380D02*
X164119047Y-56125000D01*
X164119047Y-56125000D02*
X164166666Y-56172619D01*
X164166666Y-56172619D02*
X164214285Y-56267857D01*
X164214285Y-56267857D02*
X164214285Y-56363095D01*
X164214285Y-56363095D02*
X164166666Y-56458333D01*
X164166666Y-56458333D02*
X164119047Y-56505952D01*
X164119047Y-56505952D02*
X164023809Y-56553571D01*
X164023809Y-56553571D02*
X163690476Y-56553571D01*
X164690476Y-56077380D02*
X164690476Y-56886904D01*
X164690476Y-56886904D02*
X164738095Y-56982142D01*
X164738095Y-56982142D02*
X164785714Y-57029761D01*
X164785714Y-57029761D02*
X164880952Y-57077380D01*
X164880952Y-57077380D02*
X165071428Y-57077380D01*
X165071428Y-57077380D02*
X165166666Y-57029761D01*
X165166666Y-57029761D02*
X165214285Y-56982142D01*
X165214285Y-56982142D02*
X165261904Y-56886904D01*
X165261904Y-56886904D02*
X165261904Y-56077380D01*
X165595238Y-56077380D02*
X166166666Y-56077380D01*
X165880952Y-57077380D02*
X165880952Y-56077380D01*
X166357143Y-56077380D02*
X166928571Y-56077380D01*
X166642857Y-57077380D02*
X166642857Y-56077380D01*
X167452381Y-56077380D02*
X167642857Y-56077380D01*
X167642857Y-56077380D02*
X167738095Y-56125000D01*
X167738095Y-56125000D02*
X167833333Y-56220238D01*
X167833333Y-56220238D02*
X167880952Y-56410714D01*
X167880952Y-56410714D02*
X167880952Y-56744047D01*
X167880952Y-56744047D02*
X167833333Y-56934523D01*
X167833333Y-56934523D02*
X167738095Y-57029761D01*
X167738095Y-57029761D02*
X167642857Y-57077380D01*
X167642857Y-57077380D02*
X167452381Y-57077380D01*
X167452381Y-57077380D02*
X167357143Y-57029761D01*
X167357143Y-57029761D02*
X167261905Y-56934523D01*
X167261905Y-56934523D02*
X167214286Y-56744047D01*
X167214286Y-56744047D02*
X167214286Y-56410714D01*
X167214286Y-56410714D02*
X167261905Y-56220238D01*
X167261905Y-56220238D02*
X167357143Y-56125000D01*
X167357143Y-56125000D02*
X167452381Y-56077380D01*
X168309524Y-57077380D02*
X168309524Y-56077380D01*
X168309524Y-56077380D02*
X168880952Y-57077380D01*
X168880952Y-57077380D02*
X168880952Y-56077380D01*
X169880952Y-57077380D02*
X169309524Y-57077380D01*
X169595238Y-57077380D02*
X169595238Y-56077380D01*
X169595238Y-56077380D02*
X169500000Y-56220238D01*
X169500000Y-56220238D02*
X169404762Y-56315476D01*
X169404762Y-56315476D02*
X169309524Y-56363095D01*
%TO.C,D_PAD_UP1*%
X102047619Y-28117380D02*
X102047619Y-27117380D01*
X102047619Y-27117380D02*
X102285714Y-27117380D01*
X102285714Y-27117380D02*
X102428571Y-27165000D01*
X102428571Y-27165000D02*
X102523809Y-27260238D01*
X102523809Y-27260238D02*
X102571428Y-27355476D01*
X102571428Y-27355476D02*
X102619047Y-27545952D01*
X102619047Y-27545952D02*
X102619047Y-27688809D01*
X102619047Y-27688809D02*
X102571428Y-27879285D01*
X102571428Y-27879285D02*
X102523809Y-27974523D01*
X102523809Y-27974523D02*
X102428571Y-28069761D01*
X102428571Y-28069761D02*
X102285714Y-28117380D01*
X102285714Y-28117380D02*
X102047619Y-28117380D01*
X102809524Y-28212619D02*
X103571428Y-28212619D01*
X103809524Y-28117380D02*
X103809524Y-27117380D01*
X103809524Y-27117380D02*
X104190476Y-27117380D01*
X104190476Y-27117380D02*
X104285714Y-27165000D01*
X104285714Y-27165000D02*
X104333333Y-27212619D01*
X104333333Y-27212619D02*
X104380952Y-27307857D01*
X104380952Y-27307857D02*
X104380952Y-27450714D01*
X104380952Y-27450714D02*
X104333333Y-27545952D01*
X104333333Y-27545952D02*
X104285714Y-27593571D01*
X104285714Y-27593571D02*
X104190476Y-27641190D01*
X104190476Y-27641190D02*
X103809524Y-27641190D01*
X104761905Y-27831666D02*
X105238095Y-27831666D01*
X104666667Y-28117380D02*
X105000000Y-27117380D01*
X105000000Y-27117380D02*
X105333333Y-28117380D01*
X105666667Y-28117380D02*
X105666667Y-27117380D01*
X105666667Y-27117380D02*
X105904762Y-27117380D01*
X105904762Y-27117380D02*
X106047619Y-27165000D01*
X106047619Y-27165000D02*
X106142857Y-27260238D01*
X106142857Y-27260238D02*
X106190476Y-27355476D01*
X106190476Y-27355476D02*
X106238095Y-27545952D01*
X106238095Y-27545952D02*
X106238095Y-27688809D01*
X106238095Y-27688809D02*
X106190476Y-27879285D01*
X106190476Y-27879285D02*
X106142857Y-27974523D01*
X106142857Y-27974523D02*
X106047619Y-28069761D01*
X106047619Y-28069761D02*
X105904762Y-28117380D01*
X105904762Y-28117380D02*
X105666667Y-28117380D01*
X106428572Y-28212619D02*
X107190476Y-28212619D01*
X107428572Y-27117380D02*
X107428572Y-27926904D01*
X107428572Y-27926904D02*
X107476191Y-28022142D01*
X107476191Y-28022142D02*
X107523810Y-28069761D01*
X107523810Y-28069761D02*
X107619048Y-28117380D01*
X107619048Y-28117380D02*
X107809524Y-28117380D01*
X107809524Y-28117380D02*
X107904762Y-28069761D01*
X107904762Y-28069761D02*
X107952381Y-28022142D01*
X107952381Y-28022142D02*
X108000000Y-27926904D01*
X108000000Y-27926904D02*
X108000000Y-27117380D01*
X108476191Y-28117380D02*
X108476191Y-27117380D01*
X108476191Y-27117380D02*
X108857143Y-27117380D01*
X108857143Y-27117380D02*
X108952381Y-27165000D01*
X108952381Y-27165000D02*
X109000000Y-27212619D01*
X109000000Y-27212619D02*
X109047619Y-27307857D01*
X109047619Y-27307857D02*
X109047619Y-27450714D01*
X109047619Y-27450714D02*
X109000000Y-27545952D01*
X109000000Y-27545952D02*
X108952381Y-27593571D01*
X108952381Y-27593571D02*
X108857143Y-27641190D01*
X108857143Y-27641190D02*
X108476191Y-27641190D01*
X110000000Y-28117380D02*
X109428572Y-28117380D01*
X109714286Y-28117380D02*
X109714286Y-27117380D01*
X109714286Y-27117380D02*
X109619048Y-27260238D01*
X109619048Y-27260238D02*
X109523810Y-27355476D01*
X109523810Y-27355476D02*
X109428572Y-27403095D01*
%TO.C,JOYSTICK2*%
X163644047Y-75547380D02*
X163644047Y-76261666D01*
X163644047Y-76261666D02*
X163596428Y-76404523D01*
X163596428Y-76404523D02*
X163501190Y-76499761D01*
X163501190Y-76499761D02*
X163358333Y-76547380D01*
X163358333Y-76547380D02*
X163263095Y-76547380D01*
X164310714Y-75547380D02*
X164501190Y-75547380D01*
X164501190Y-75547380D02*
X164596428Y-75595000D01*
X164596428Y-75595000D02*
X164691666Y-75690238D01*
X164691666Y-75690238D02*
X164739285Y-75880714D01*
X164739285Y-75880714D02*
X164739285Y-76214047D01*
X164739285Y-76214047D02*
X164691666Y-76404523D01*
X164691666Y-76404523D02*
X164596428Y-76499761D01*
X164596428Y-76499761D02*
X164501190Y-76547380D01*
X164501190Y-76547380D02*
X164310714Y-76547380D01*
X164310714Y-76547380D02*
X164215476Y-76499761D01*
X164215476Y-76499761D02*
X164120238Y-76404523D01*
X164120238Y-76404523D02*
X164072619Y-76214047D01*
X164072619Y-76214047D02*
X164072619Y-75880714D01*
X164072619Y-75880714D02*
X164120238Y-75690238D01*
X164120238Y-75690238D02*
X164215476Y-75595000D01*
X164215476Y-75595000D02*
X164310714Y-75547380D01*
X165358333Y-76071190D02*
X165358333Y-76547380D01*
X165025000Y-75547380D02*
X165358333Y-76071190D01*
X165358333Y-76071190D02*
X165691666Y-75547380D01*
X165977381Y-76499761D02*
X166120238Y-76547380D01*
X166120238Y-76547380D02*
X166358333Y-76547380D01*
X166358333Y-76547380D02*
X166453571Y-76499761D01*
X166453571Y-76499761D02*
X166501190Y-76452142D01*
X166501190Y-76452142D02*
X166548809Y-76356904D01*
X166548809Y-76356904D02*
X166548809Y-76261666D01*
X166548809Y-76261666D02*
X166501190Y-76166428D01*
X166501190Y-76166428D02*
X166453571Y-76118809D01*
X166453571Y-76118809D02*
X166358333Y-76071190D01*
X166358333Y-76071190D02*
X166167857Y-76023571D01*
X166167857Y-76023571D02*
X166072619Y-75975952D01*
X166072619Y-75975952D02*
X166025000Y-75928333D01*
X166025000Y-75928333D02*
X165977381Y-75833095D01*
X165977381Y-75833095D02*
X165977381Y-75737857D01*
X165977381Y-75737857D02*
X166025000Y-75642619D01*
X166025000Y-75642619D02*
X166072619Y-75595000D01*
X166072619Y-75595000D02*
X166167857Y-75547380D01*
X166167857Y-75547380D02*
X166405952Y-75547380D01*
X166405952Y-75547380D02*
X166548809Y-75595000D01*
X166834524Y-75547380D02*
X167405952Y-75547380D01*
X167120238Y-76547380D02*
X167120238Y-75547380D01*
X167739286Y-76547380D02*
X167739286Y-75547380D01*
X168786904Y-76452142D02*
X168739285Y-76499761D01*
X168739285Y-76499761D02*
X168596428Y-76547380D01*
X168596428Y-76547380D02*
X168501190Y-76547380D01*
X168501190Y-76547380D02*
X168358333Y-76499761D01*
X168358333Y-76499761D02*
X168263095Y-76404523D01*
X168263095Y-76404523D02*
X168215476Y-76309285D01*
X168215476Y-76309285D02*
X168167857Y-76118809D01*
X168167857Y-76118809D02*
X168167857Y-75975952D01*
X168167857Y-75975952D02*
X168215476Y-75785476D01*
X168215476Y-75785476D02*
X168263095Y-75690238D01*
X168263095Y-75690238D02*
X168358333Y-75595000D01*
X168358333Y-75595000D02*
X168501190Y-75547380D01*
X168501190Y-75547380D02*
X168596428Y-75547380D01*
X168596428Y-75547380D02*
X168739285Y-75595000D01*
X168739285Y-75595000D02*
X168786904Y-75642619D01*
X169215476Y-76547380D02*
X169215476Y-75547380D01*
X169786904Y-76547380D02*
X169358333Y-75975952D01*
X169786904Y-75547380D02*
X169215476Y-76118809D01*
X170167857Y-75642619D02*
X170215476Y-75595000D01*
X170215476Y-75595000D02*
X170310714Y-75547380D01*
X170310714Y-75547380D02*
X170548809Y-75547380D01*
X170548809Y-75547380D02*
X170644047Y-75595000D01*
X170644047Y-75595000D02*
X170691666Y-75642619D01*
X170691666Y-75642619D02*
X170739285Y-75737857D01*
X170739285Y-75737857D02*
X170739285Y-75833095D01*
X170739285Y-75833095D02*
X170691666Y-75975952D01*
X170691666Y-75975952D02*
X170120238Y-76547380D01*
X170120238Y-76547380D02*
X170739285Y-76547380D01*
%TO.C,R7*%
X163757380Y-29166666D02*
X163281190Y-29499999D01*
X163757380Y-29738094D02*
X162757380Y-29738094D01*
X162757380Y-29738094D02*
X162757380Y-29357142D01*
X162757380Y-29357142D02*
X162805000Y-29261904D01*
X162805000Y-29261904D02*
X162852619Y-29214285D01*
X162852619Y-29214285D02*
X162947857Y-29166666D01*
X162947857Y-29166666D02*
X163090714Y-29166666D01*
X163090714Y-29166666D02*
X163185952Y-29214285D01*
X163185952Y-29214285D02*
X163233571Y-29261904D01*
X163233571Y-29261904D02*
X163281190Y-29357142D01*
X163281190Y-29357142D02*
X163281190Y-29738094D01*
X162757380Y-28833332D02*
X162757380Y-28166666D01*
X162757380Y-28166666D02*
X163757380Y-28595237D01*
%TO.C,JOYSTICK1*%
X91619047Y-75517380D02*
X91619047Y-76231666D01*
X91619047Y-76231666D02*
X91571428Y-76374523D01*
X91571428Y-76374523D02*
X91476190Y-76469761D01*
X91476190Y-76469761D02*
X91333333Y-76517380D01*
X91333333Y-76517380D02*
X91238095Y-76517380D01*
X92285714Y-75517380D02*
X92476190Y-75517380D01*
X92476190Y-75517380D02*
X92571428Y-75565000D01*
X92571428Y-75565000D02*
X92666666Y-75660238D01*
X92666666Y-75660238D02*
X92714285Y-75850714D01*
X92714285Y-75850714D02*
X92714285Y-76184047D01*
X92714285Y-76184047D02*
X92666666Y-76374523D01*
X92666666Y-76374523D02*
X92571428Y-76469761D01*
X92571428Y-76469761D02*
X92476190Y-76517380D01*
X92476190Y-76517380D02*
X92285714Y-76517380D01*
X92285714Y-76517380D02*
X92190476Y-76469761D01*
X92190476Y-76469761D02*
X92095238Y-76374523D01*
X92095238Y-76374523D02*
X92047619Y-76184047D01*
X92047619Y-76184047D02*
X92047619Y-75850714D01*
X92047619Y-75850714D02*
X92095238Y-75660238D01*
X92095238Y-75660238D02*
X92190476Y-75565000D01*
X92190476Y-75565000D02*
X92285714Y-75517380D01*
X93333333Y-76041190D02*
X93333333Y-76517380D01*
X93000000Y-75517380D02*
X93333333Y-76041190D01*
X93333333Y-76041190D02*
X93666666Y-75517380D01*
X93952381Y-76469761D02*
X94095238Y-76517380D01*
X94095238Y-76517380D02*
X94333333Y-76517380D01*
X94333333Y-76517380D02*
X94428571Y-76469761D01*
X94428571Y-76469761D02*
X94476190Y-76422142D01*
X94476190Y-76422142D02*
X94523809Y-76326904D01*
X94523809Y-76326904D02*
X94523809Y-76231666D01*
X94523809Y-76231666D02*
X94476190Y-76136428D01*
X94476190Y-76136428D02*
X94428571Y-76088809D01*
X94428571Y-76088809D02*
X94333333Y-76041190D01*
X94333333Y-76041190D02*
X94142857Y-75993571D01*
X94142857Y-75993571D02*
X94047619Y-75945952D01*
X94047619Y-75945952D02*
X94000000Y-75898333D01*
X94000000Y-75898333D02*
X93952381Y-75803095D01*
X93952381Y-75803095D02*
X93952381Y-75707857D01*
X93952381Y-75707857D02*
X94000000Y-75612619D01*
X94000000Y-75612619D02*
X94047619Y-75565000D01*
X94047619Y-75565000D02*
X94142857Y-75517380D01*
X94142857Y-75517380D02*
X94380952Y-75517380D01*
X94380952Y-75517380D02*
X94523809Y-75565000D01*
X94809524Y-75517380D02*
X95380952Y-75517380D01*
X95095238Y-76517380D02*
X95095238Y-75517380D01*
X95714286Y-76517380D02*
X95714286Y-75517380D01*
X96761904Y-76422142D02*
X96714285Y-76469761D01*
X96714285Y-76469761D02*
X96571428Y-76517380D01*
X96571428Y-76517380D02*
X96476190Y-76517380D01*
X96476190Y-76517380D02*
X96333333Y-76469761D01*
X96333333Y-76469761D02*
X96238095Y-76374523D01*
X96238095Y-76374523D02*
X96190476Y-76279285D01*
X96190476Y-76279285D02*
X96142857Y-76088809D01*
X96142857Y-76088809D02*
X96142857Y-75945952D01*
X96142857Y-75945952D02*
X96190476Y-75755476D01*
X96190476Y-75755476D02*
X96238095Y-75660238D01*
X96238095Y-75660238D02*
X96333333Y-75565000D01*
X96333333Y-75565000D02*
X96476190Y-75517380D01*
X96476190Y-75517380D02*
X96571428Y-75517380D01*
X96571428Y-75517380D02*
X96714285Y-75565000D01*
X96714285Y-75565000D02*
X96761904Y-75612619D01*
X97190476Y-76517380D02*
X97190476Y-75517380D01*
X97761904Y-76517380D02*
X97333333Y-75945952D01*
X97761904Y-75517380D02*
X97190476Y-76088809D01*
X98714285Y-76517380D02*
X98142857Y-76517380D01*
X98428571Y-76517380D02*
X98428571Y-75517380D01*
X98428571Y-75517380D02*
X98333333Y-75660238D01*
X98333333Y-75660238D02*
X98238095Y-75755476D01*
X98238095Y-75755476D02*
X98142857Y-75803095D01*
%TO.C,D_PAD_LEFT1*%
X92404761Y-37117380D02*
X92404761Y-36117380D01*
X92404761Y-36117380D02*
X92642856Y-36117380D01*
X92642856Y-36117380D02*
X92785713Y-36165000D01*
X92785713Y-36165000D02*
X92880951Y-36260238D01*
X92880951Y-36260238D02*
X92928570Y-36355476D01*
X92928570Y-36355476D02*
X92976189Y-36545952D01*
X92976189Y-36545952D02*
X92976189Y-36688809D01*
X92976189Y-36688809D02*
X92928570Y-36879285D01*
X92928570Y-36879285D02*
X92880951Y-36974523D01*
X92880951Y-36974523D02*
X92785713Y-37069761D01*
X92785713Y-37069761D02*
X92642856Y-37117380D01*
X92642856Y-37117380D02*
X92404761Y-37117380D01*
X93166666Y-37212619D02*
X93928570Y-37212619D01*
X94166666Y-37117380D02*
X94166666Y-36117380D01*
X94166666Y-36117380D02*
X94547618Y-36117380D01*
X94547618Y-36117380D02*
X94642856Y-36165000D01*
X94642856Y-36165000D02*
X94690475Y-36212619D01*
X94690475Y-36212619D02*
X94738094Y-36307857D01*
X94738094Y-36307857D02*
X94738094Y-36450714D01*
X94738094Y-36450714D02*
X94690475Y-36545952D01*
X94690475Y-36545952D02*
X94642856Y-36593571D01*
X94642856Y-36593571D02*
X94547618Y-36641190D01*
X94547618Y-36641190D02*
X94166666Y-36641190D01*
X95119047Y-36831666D02*
X95595237Y-36831666D01*
X95023809Y-37117380D02*
X95357142Y-36117380D01*
X95357142Y-36117380D02*
X95690475Y-37117380D01*
X96023809Y-37117380D02*
X96023809Y-36117380D01*
X96023809Y-36117380D02*
X96261904Y-36117380D01*
X96261904Y-36117380D02*
X96404761Y-36165000D01*
X96404761Y-36165000D02*
X96499999Y-36260238D01*
X96499999Y-36260238D02*
X96547618Y-36355476D01*
X96547618Y-36355476D02*
X96595237Y-36545952D01*
X96595237Y-36545952D02*
X96595237Y-36688809D01*
X96595237Y-36688809D02*
X96547618Y-36879285D01*
X96547618Y-36879285D02*
X96499999Y-36974523D01*
X96499999Y-36974523D02*
X96404761Y-37069761D01*
X96404761Y-37069761D02*
X96261904Y-37117380D01*
X96261904Y-37117380D02*
X96023809Y-37117380D01*
X96785714Y-37212619D02*
X97547618Y-37212619D01*
X98261904Y-37117380D02*
X97785714Y-37117380D01*
X97785714Y-37117380D02*
X97785714Y-36117380D01*
X98595238Y-36593571D02*
X98928571Y-36593571D01*
X99071428Y-37117380D02*
X98595238Y-37117380D01*
X98595238Y-37117380D02*
X98595238Y-36117380D01*
X98595238Y-36117380D02*
X99071428Y-36117380D01*
X99833333Y-36593571D02*
X99500000Y-36593571D01*
X99500000Y-37117380D02*
X99500000Y-36117380D01*
X99500000Y-36117380D02*
X99976190Y-36117380D01*
X100214286Y-36117380D02*
X100785714Y-36117380D01*
X100500000Y-37117380D02*
X100500000Y-36117380D01*
X101642857Y-37117380D02*
X101071429Y-37117380D01*
X101357143Y-37117380D02*
X101357143Y-36117380D01*
X101357143Y-36117380D02*
X101261905Y-36260238D01*
X101261905Y-36260238D02*
X101166667Y-36355476D01*
X101166667Y-36355476D02*
X101071429Y-36403095D01*
%TO.C,R10*%
X178997380Y-29642857D02*
X178521190Y-29976190D01*
X178997380Y-30214285D02*
X177997380Y-30214285D01*
X177997380Y-30214285D02*
X177997380Y-29833333D01*
X177997380Y-29833333D02*
X178045000Y-29738095D01*
X178045000Y-29738095D02*
X178092619Y-29690476D01*
X178092619Y-29690476D02*
X178187857Y-29642857D01*
X178187857Y-29642857D02*
X178330714Y-29642857D01*
X178330714Y-29642857D02*
X178425952Y-29690476D01*
X178425952Y-29690476D02*
X178473571Y-29738095D01*
X178473571Y-29738095D02*
X178521190Y-29833333D01*
X178521190Y-29833333D02*
X178521190Y-30214285D01*
X178997380Y-28690476D02*
X178997380Y-29261904D01*
X178997380Y-28976190D02*
X177997380Y-28976190D01*
X177997380Y-28976190D02*
X178140238Y-29071428D01*
X178140238Y-29071428D02*
X178235476Y-29166666D01*
X178235476Y-29166666D02*
X178283095Y-29261904D01*
X177997380Y-28071428D02*
X177997380Y-27976190D01*
X177997380Y-27976190D02*
X178045000Y-27880952D01*
X178045000Y-27880952D02*
X178092619Y-27833333D01*
X178092619Y-27833333D02*
X178187857Y-27785714D01*
X178187857Y-27785714D02*
X178378333Y-27738095D01*
X178378333Y-27738095D02*
X178616428Y-27738095D01*
X178616428Y-27738095D02*
X178806904Y-27785714D01*
X178806904Y-27785714D02*
X178902142Y-27833333D01*
X178902142Y-27833333D02*
X178949761Y-27880952D01*
X178949761Y-27880952D02*
X178997380Y-27976190D01*
X178997380Y-27976190D02*
X178997380Y-28071428D01*
X178997380Y-28071428D02*
X178949761Y-28166666D01*
X178949761Y-28166666D02*
X178902142Y-28214285D01*
X178902142Y-28214285D02*
X178806904Y-28261904D01*
X178806904Y-28261904D02*
X178616428Y-28309523D01*
X178616428Y-28309523D02*
X178378333Y-28309523D01*
X178378333Y-28309523D02*
X178187857Y-28261904D01*
X178187857Y-28261904D02*
X178092619Y-28214285D01*
X178092619Y-28214285D02*
X178045000Y-28166666D01*
X178045000Y-28166666D02*
X177997380Y-28071428D01*
%TO.C,Y_BUTTON1*%
X200309523Y-36201190D02*
X200309523Y-36677380D01*
X199976190Y-35677380D02*
X200309523Y-36201190D01*
X200309523Y-36201190D02*
X200642856Y-35677380D01*
X200738095Y-36772619D02*
X201499999Y-36772619D01*
X202071428Y-36153571D02*
X202214285Y-36201190D01*
X202214285Y-36201190D02*
X202261904Y-36248809D01*
X202261904Y-36248809D02*
X202309523Y-36344047D01*
X202309523Y-36344047D02*
X202309523Y-36486904D01*
X202309523Y-36486904D02*
X202261904Y-36582142D01*
X202261904Y-36582142D02*
X202214285Y-36629761D01*
X202214285Y-36629761D02*
X202119047Y-36677380D01*
X202119047Y-36677380D02*
X201738095Y-36677380D01*
X201738095Y-36677380D02*
X201738095Y-35677380D01*
X201738095Y-35677380D02*
X202071428Y-35677380D01*
X202071428Y-35677380D02*
X202166666Y-35725000D01*
X202166666Y-35725000D02*
X202214285Y-35772619D01*
X202214285Y-35772619D02*
X202261904Y-35867857D01*
X202261904Y-35867857D02*
X202261904Y-35963095D01*
X202261904Y-35963095D02*
X202214285Y-36058333D01*
X202214285Y-36058333D02*
X202166666Y-36105952D01*
X202166666Y-36105952D02*
X202071428Y-36153571D01*
X202071428Y-36153571D02*
X201738095Y-36153571D01*
X202738095Y-35677380D02*
X202738095Y-36486904D01*
X202738095Y-36486904D02*
X202785714Y-36582142D01*
X202785714Y-36582142D02*
X202833333Y-36629761D01*
X202833333Y-36629761D02*
X202928571Y-36677380D01*
X202928571Y-36677380D02*
X203119047Y-36677380D01*
X203119047Y-36677380D02*
X203214285Y-36629761D01*
X203214285Y-36629761D02*
X203261904Y-36582142D01*
X203261904Y-36582142D02*
X203309523Y-36486904D01*
X203309523Y-36486904D02*
X203309523Y-35677380D01*
X203642857Y-35677380D02*
X204214285Y-35677380D01*
X203928571Y-36677380D02*
X203928571Y-35677380D01*
X204404762Y-35677380D02*
X204976190Y-35677380D01*
X204690476Y-36677380D02*
X204690476Y-35677380D01*
X205500000Y-35677380D02*
X205690476Y-35677380D01*
X205690476Y-35677380D02*
X205785714Y-35725000D01*
X205785714Y-35725000D02*
X205880952Y-35820238D01*
X205880952Y-35820238D02*
X205928571Y-36010714D01*
X205928571Y-36010714D02*
X205928571Y-36344047D01*
X205928571Y-36344047D02*
X205880952Y-36534523D01*
X205880952Y-36534523D02*
X205785714Y-36629761D01*
X205785714Y-36629761D02*
X205690476Y-36677380D01*
X205690476Y-36677380D02*
X205500000Y-36677380D01*
X205500000Y-36677380D02*
X205404762Y-36629761D01*
X205404762Y-36629761D02*
X205309524Y-36534523D01*
X205309524Y-36534523D02*
X205261905Y-36344047D01*
X205261905Y-36344047D02*
X205261905Y-36010714D01*
X205261905Y-36010714D02*
X205309524Y-35820238D01*
X205309524Y-35820238D02*
X205404762Y-35725000D01*
X205404762Y-35725000D02*
X205500000Y-35677380D01*
X206357143Y-36677380D02*
X206357143Y-35677380D01*
X206357143Y-35677380D02*
X206928571Y-36677380D01*
X206928571Y-36677380D02*
X206928571Y-35677380D01*
X207928571Y-36677380D02*
X207357143Y-36677380D01*
X207642857Y-36677380D02*
X207642857Y-35677380D01*
X207642857Y-35677380D02*
X207547619Y-35820238D01*
X207547619Y-35820238D02*
X207452381Y-35915476D01*
X207452381Y-35915476D02*
X207357143Y-35963095D01*
%TO.C,R5*%
X145317380Y-63666666D02*
X144841190Y-63999999D01*
X145317380Y-64238094D02*
X144317380Y-64238094D01*
X144317380Y-64238094D02*
X144317380Y-63857142D01*
X144317380Y-63857142D02*
X144365000Y-63761904D01*
X144365000Y-63761904D02*
X144412619Y-63714285D01*
X144412619Y-63714285D02*
X144507857Y-63666666D01*
X144507857Y-63666666D02*
X144650714Y-63666666D01*
X144650714Y-63666666D02*
X144745952Y-63714285D01*
X144745952Y-63714285D02*
X144793571Y-63761904D01*
X144793571Y-63761904D02*
X144841190Y-63857142D01*
X144841190Y-63857142D02*
X144841190Y-64238094D01*
X144317380Y-62761904D02*
X144317380Y-63238094D01*
X144317380Y-63238094D02*
X144793571Y-63285713D01*
X144793571Y-63285713D02*
X144745952Y-63238094D01*
X144745952Y-63238094D02*
X144698333Y-63142856D01*
X144698333Y-63142856D02*
X144698333Y-62904761D01*
X144698333Y-62904761D02*
X144745952Y-62809523D01*
X144745952Y-62809523D02*
X144793571Y-62761904D01*
X144793571Y-62761904D02*
X144888809Y-62714285D01*
X144888809Y-62714285D02*
X145126904Y-62714285D01*
X145126904Y-62714285D02*
X145222142Y-62761904D01*
X145222142Y-62761904D02*
X145269761Y-62809523D01*
X145269761Y-62809523D02*
X145317380Y-62904761D01*
X145317380Y-62904761D02*
X145317380Y-63142856D01*
X145317380Y-63142856D02*
X145269761Y-63238094D01*
X145269761Y-63238094D02*
X145222142Y-63285713D01*
%TO.C,D_PAD_RIGHT1*%
X109928571Y-37117380D02*
X109928571Y-36117380D01*
X109928571Y-36117380D02*
X110166666Y-36117380D01*
X110166666Y-36117380D02*
X110309523Y-36165000D01*
X110309523Y-36165000D02*
X110404761Y-36260238D01*
X110404761Y-36260238D02*
X110452380Y-36355476D01*
X110452380Y-36355476D02*
X110499999Y-36545952D01*
X110499999Y-36545952D02*
X110499999Y-36688809D01*
X110499999Y-36688809D02*
X110452380Y-36879285D01*
X110452380Y-36879285D02*
X110404761Y-36974523D01*
X110404761Y-36974523D02*
X110309523Y-37069761D01*
X110309523Y-37069761D02*
X110166666Y-37117380D01*
X110166666Y-37117380D02*
X109928571Y-37117380D01*
X110690476Y-37212619D02*
X111452380Y-37212619D01*
X111690476Y-37117380D02*
X111690476Y-36117380D01*
X111690476Y-36117380D02*
X112071428Y-36117380D01*
X112071428Y-36117380D02*
X112166666Y-36165000D01*
X112166666Y-36165000D02*
X112214285Y-36212619D01*
X112214285Y-36212619D02*
X112261904Y-36307857D01*
X112261904Y-36307857D02*
X112261904Y-36450714D01*
X112261904Y-36450714D02*
X112214285Y-36545952D01*
X112214285Y-36545952D02*
X112166666Y-36593571D01*
X112166666Y-36593571D02*
X112071428Y-36641190D01*
X112071428Y-36641190D02*
X111690476Y-36641190D01*
X112642857Y-36831666D02*
X113119047Y-36831666D01*
X112547619Y-37117380D02*
X112880952Y-36117380D01*
X112880952Y-36117380D02*
X113214285Y-37117380D01*
X113547619Y-37117380D02*
X113547619Y-36117380D01*
X113547619Y-36117380D02*
X113785714Y-36117380D01*
X113785714Y-36117380D02*
X113928571Y-36165000D01*
X113928571Y-36165000D02*
X114023809Y-36260238D01*
X114023809Y-36260238D02*
X114071428Y-36355476D01*
X114071428Y-36355476D02*
X114119047Y-36545952D01*
X114119047Y-36545952D02*
X114119047Y-36688809D01*
X114119047Y-36688809D02*
X114071428Y-36879285D01*
X114071428Y-36879285D02*
X114023809Y-36974523D01*
X114023809Y-36974523D02*
X113928571Y-37069761D01*
X113928571Y-37069761D02*
X113785714Y-37117380D01*
X113785714Y-37117380D02*
X113547619Y-37117380D01*
X114309524Y-37212619D02*
X115071428Y-37212619D01*
X115880952Y-37117380D02*
X115547619Y-36641190D01*
X115309524Y-37117380D02*
X115309524Y-36117380D01*
X115309524Y-36117380D02*
X115690476Y-36117380D01*
X115690476Y-36117380D02*
X115785714Y-36165000D01*
X115785714Y-36165000D02*
X115833333Y-36212619D01*
X115833333Y-36212619D02*
X115880952Y-36307857D01*
X115880952Y-36307857D02*
X115880952Y-36450714D01*
X115880952Y-36450714D02*
X115833333Y-36545952D01*
X115833333Y-36545952D02*
X115785714Y-36593571D01*
X115785714Y-36593571D02*
X115690476Y-36641190D01*
X115690476Y-36641190D02*
X115309524Y-36641190D01*
X116309524Y-37117380D02*
X116309524Y-36117380D01*
X117309523Y-36165000D02*
X117214285Y-36117380D01*
X117214285Y-36117380D02*
X117071428Y-36117380D01*
X117071428Y-36117380D02*
X116928571Y-36165000D01*
X116928571Y-36165000D02*
X116833333Y-36260238D01*
X116833333Y-36260238D02*
X116785714Y-36355476D01*
X116785714Y-36355476D02*
X116738095Y-36545952D01*
X116738095Y-36545952D02*
X116738095Y-36688809D01*
X116738095Y-36688809D02*
X116785714Y-36879285D01*
X116785714Y-36879285D02*
X116833333Y-36974523D01*
X116833333Y-36974523D02*
X116928571Y-37069761D01*
X116928571Y-37069761D02*
X117071428Y-37117380D01*
X117071428Y-37117380D02*
X117166666Y-37117380D01*
X117166666Y-37117380D02*
X117309523Y-37069761D01*
X117309523Y-37069761D02*
X117357142Y-37022142D01*
X117357142Y-37022142D02*
X117357142Y-36688809D01*
X117357142Y-36688809D02*
X117166666Y-36688809D01*
X117785714Y-37117380D02*
X117785714Y-36117380D01*
X117785714Y-36593571D02*
X118357142Y-36593571D01*
X118357142Y-37117380D02*
X118357142Y-36117380D01*
X118690476Y-36117380D02*
X119261904Y-36117380D01*
X118976190Y-37117380D02*
X118976190Y-36117380D01*
X120119047Y-37117380D02*
X119547619Y-37117380D01*
X119833333Y-37117380D02*
X119833333Y-36117380D01*
X119833333Y-36117380D02*
X119738095Y-36260238D01*
X119738095Y-36260238D02*
X119642857Y-36355476D01*
X119642857Y-36355476D02*
X119547619Y-36403095D01*
%TO.C,R6*%
X150397380Y-63666666D02*
X149921190Y-63999999D01*
X150397380Y-64238094D02*
X149397380Y-64238094D01*
X149397380Y-64238094D02*
X149397380Y-63857142D01*
X149397380Y-63857142D02*
X149445000Y-63761904D01*
X149445000Y-63761904D02*
X149492619Y-63714285D01*
X149492619Y-63714285D02*
X149587857Y-63666666D01*
X149587857Y-63666666D02*
X149730714Y-63666666D01*
X149730714Y-63666666D02*
X149825952Y-63714285D01*
X149825952Y-63714285D02*
X149873571Y-63761904D01*
X149873571Y-63761904D02*
X149921190Y-63857142D01*
X149921190Y-63857142D02*
X149921190Y-64238094D01*
X149397380Y-62809523D02*
X149397380Y-62999999D01*
X149397380Y-62999999D02*
X149445000Y-63095237D01*
X149445000Y-63095237D02*
X149492619Y-63142856D01*
X149492619Y-63142856D02*
X149635476Y-63238094D01*
X149635476Y-63238094D02*
X149825952Y-63285713D01*
X149825952Y-63285713D02*
X150206904Y-63285713D01*
X150206904Y-63285713D02*
X150302142Y-63238094D01*
X150302142Y-63238094D02*
X150349761Y-63190475D01*
X150349761Y-63190475D02*
X150397380Y-63095237D01*
X150397380Y-63095237D02*
X150397380Y-62904761D01*
X150397380Y-62904761D02*
X150349761Y-62809523D01*
X150349761Y-62809523D02*
X150302142Y-62761904D01*
X150302142Y-62761904D02*
X150206904Y-62714285D01*
X150206904Y-62714285D02*
X149968809Y-62714285D01*
X149968809Y-62714285D02*
X149873571Y-62761904D01*
X149873571Y-62761904D02*
X149825952Y-62809523D01*
X149825952Y-62809523D02*
X149778333Y-62904761D01*
X149778333Y-62904761D02*
X149778333Y-63095237D01*
X149778333Y-63095237D02*
X149825952Y-63190475D01*
X149825952Y-63190475D02*
X149873571Y-63238094D01*
X149873571Y-63238094D02*
X149968809Y-63285713D01*
%TO.C,B_BUTTON1*%
X191380952Y-27593571D02*
X191523809Y-27641190D01*
X191523809Y-27641190D02*
X191571428Y-27688809D01*
X191571428Y-27688809D02*
X191619047Y-27784047D01*
X191619047Y-27784047D02*
X191619047Y-27926904D01*
X191619047Y-27926904D02*
X191571428Y-28022142D01*
X191571428Y-28022142D02*
X191523809Y-28069761D01*
X191523809Y-28069761D02*
X191428571Y-28117380D01*
X191428571Y-28117380D02*
X191047619Y-28117380D01*
X191047619Y-28117380D02*
X191047619Y-27117380D01*
X191047619Y-27117380D02*
X191380952Y-27117380D01*
X191380952Y-27117380D02*
X191476190Y-27165000D01*
X191476190Y-27165000D02*
X191523809Y-27212619D01*
X191523809Y-27212619D02*
X191571428Y-27307857D01*
X191571428Y-27307857D02*
X191571428Y-27403095D01*
X191571428Y-27403095D02*
X191523809Y-27498333D01*
X191523809Y-27498333D02*
X191476190Y-27545952D01*
X191476190Y-27545952D02*
X191380952Y-27593571D01*
X191380952Y-27593571D02*
X191047619Y-27593571D01*
X191809524Y-28212619D02*
X192571428Y-28212619D01*
X193142857Y-27593571D02*
X193285714Y-27641190D01*
X193285714Y-27641190D02*
X193333333Y-27688809D01*
X193333333Y-27688809D02*
X193380952Y-27784047D01*
X193380952Y-27784047D02*
X193380952Y-27926904D01*
X193380952Y-27926904D02*
X193333333Y-28022142D01*
X193333333Y-28022142D02*
X193285714Y-28069761D01*
X193285714Y-28069761D02*
X193190476Y-28117380D01*
X193190476Y-28117380D02*
X192809524Y-28117380D01*
X192809524Y-28117380D02*
X192809524Y-27117380D01*
X192809524Y-27117380D02*
X193142857Y-27117380D01*
X193142857Y-27117380D02*
X193238095Y-27165000D01*
X193238095Y-27165000D02*
X193285714Y-27212619D01*
X193285714Y-27212619D02*
X193333333Y-27307857D01*
X193333333Y-27307857D02*
X193333333Y-27403095D01*
X193333333Y-27403095D02*
X193285714Y-27498333D01*
X193285714Y-27498333D02*
X193238095Y-27545952D01*
X193238095Y-27545952D02*
X193142857Y-27593571D01*
X193142857Y-27593571D02*
X192809524Y-27593571D01*
X193809524Y-27117380D02*
X193809524Y-27926904D01*
X193809524Y-27926904D02*
X193857143Y-28022142D01*
X193857143Y-28022142D02*
X193904762Y-28069761D01*
X193904762Y-28069761D02*
X194000000Y-28117380D01*
X194000000Y-28117380D02*
X194190476Y-28117380D01*
X194190476Y-28117380D02*
X194285714Y-28069761D01*
X194285714Y-28069761D02*
X194333333Y-28022142D01*
X194333333Y-28022142D02*
X194380952Y-27926904D01*
X194380952Y-27926904D02*
X194380952Y-27117380D01*
X194714286Y-27117380D02*
X195285714Y-27117380D01*
X195000000Y-28117380D02*
X195000000Y-27117380D01*
X195476191Y-27117380D02*
X196047619Y-27117380D01*
X195761905Y-28117380D02*
X195761905Y-27117380D01*
X196571429Y-27117380D02*
X196761905Y-27117380D01*
X196761905Y-27117380D02*
X196857143Y-27165000D01*
X196857143Y-27165000D02*
X196952381Y-27260238D01*
X196952381Y-27260238D02*
X197000000Y-27450714D01*
X197000000Y-27450714D02*
X197000000Y-27784047D01*
X197000000Y-27784047D02*
X196952381Y-27974523D01*
X196952381Y-27974523D02*
X196857143Y-28069761D01*
X196857143Y-28069761D02*
X196761905Y-28117380D01*
X196761905Y-28117380D02*
X196571429Y-28117380D01*
X196571429Y-28117380D02*
X196476191Y-28069761D01*
X196476191Y-28069761D02*
X196380953Y-27974523D01*
X196380953Y-27974523D02*
X196333334Y-27784047D01*
X196333334Y-27784047D02*
X196333334Y-27450714D01*
X196333334Y-27450714D02*
X196380953Y-27260238D01*
X196380953Y-27260238D02*
X196476191Y-27165000D01*
X196476191Y-27165000D02*
X196571429Y-27117380D01*
X197428572Y-28117380D02*
X197428572Y-27117380D01*
X197428572Y-27117380D02*
X198000000Y-28117380D01*
X198000000Y-28117380D02*
X198000000Y-27117380D01*
X199000000Y-28117380D02*
X198428572Y-28117380D01*
X198714286Y-28117380D02*
X198714286Y-27117380D01*
X198714286Y-27117380D02*
X198619048Y-27260238D01*
X198619048Y-27260238D02*
X198523810Y-27355476D01*
X198523810Y-27355476D02*
X198428572Y-27403095D01*
%TO.C,A_BUTTON1*%
X181821428Y-36391666D02*
X182297618Y-36391666D01*
X181726190Y-36677380D02*
X182059523Y-35677380D01*
X182059523Y-35677380D02*
X182392856Y-36677380D01*
X182488095Y-36772619D02*
X183249999Y-36772619D01*
X183821428Y-36153571D02*
X183964285Y-36201190D01*
X183964285Y-36201190D02*
X184011904Y-36248809D01*
X184011904Y-36248809D02*
X184059523Y-36344047D01*
X184059523Y-36344047D02*
X184059523Y-36486904D01*
X184059523Y-36486904D02*
X184011904Y-36582142D01*
X184011904Y-36582142D02*
X183964285Y-36629761D01*
X183964285Y-36629761D02*
X183869047Y-36677380D01*
X183869047Y-36677380D02*
X183488095Y-36677380D01*
X183488095Y-36677380D02*
X183488095Y-35677380D01*
X183488095Y-35677380D02*
X183821428Y-35677380D01*
X183821428Y-35677380D02*
X183916666Y-35725000D01*
X183916666Y-35725000D02*
X183964285Y-35772619D01*
X183964285Y-35772619D02*
X184011904Y-35867857D01*
X184011904Y-35867857D02*
X184011904Y-35963095D01*
X184011904Y-35963095D02*
X183964285Y-36058333D01*
X183964285Y-36058333D02*
X183916666Y-36105952D01*
X183916666Y-36105952D02*
X183821428Y-36153571D01*
X183821428Y-36153571D02*
X183488095Y-36153571D01*
X184488095Y-35677380D02*
X184488095Y-36486904D01*
X184488095Y-36486904D02*
X184535714Y-36582142D01*
X184535714Y-36582142D02*
X184583333Y-36629761D01*
X184583333Y-36629761D02*
X184678571Y-36677380D01*
X184678571Y-36677380D02*
X184869047Y-36677380D01*
X184869047Y-36677380D02*
X184964285Y-36629761D01*
X184964285Y-36629761D02*
X185011904Y-36582142D01*
X185011904Y-36582142D02*
X185059523Y-36486904D01*
X185059523Y-36486904D02*
X185059523Y-35677380D01*
X185392857Y-35677380D02*
X185964285Y-35677380D01*
X185678571Y-36677380D02*
X185678571Y-35677380D01*
X186154762Y-35677380D02*
X186726190Y-35677380D01*
X186440476Y-36677380D02*
X186440476Y-35677380D01*
X187250000Y-35677380D02*
X187440476Y-35677380D01*
X187440476Y-35677380D02*
X187535714Y-35725000D01*
X187535714Y-35725000D02*
X187630952Y-35820238D01*
X187630952Y-35820238D02*
X187678571Y-36010714D01*
X187678571Y-36010714D02*
X187678571Y-36344047D01*
X187678571Y-36344047D02*
X187630952Y-36534523D01*
X187630952Y-36534523D02*
X187535714Y-36629761D01*
X187535714Y-36629761D02*
X187440476Y-36677380D01*
X187440476Y-36677380D02*
X187250000Y-36677380D01*
X187250000Y-36677380D02*
X187154762Y-36629761D01*
X187154762Y-36629761D02*
X187059524Y-36534523D01*
X187059524Y-36534523D02*
X187011905Y-36344047D01*
X187011905Y-36344047D02*
X187011905Y-36010714D01*
X187011905Y-36010714D02*
X187059524Y-35820238D01*
X187059524Y-35820238D02*
X187154762Y-35725000D01*
X187154762Y-35725000D02*
X187250000Y-35677380D01*
X188107143Y-36677380D02*
X188107143Y-35677380D01*
X188107143Y-35677380D02*
X188678571Y-36677380D01*
X188678571Y-36677380D02*
X188678571Y-35677380D01*
X189678571Y-36677380D02*
X189107143Y-36677380D01*
X189392857Y-36677380D02*
X189392857Y-35677380D01*
X189392857Y-35677380D02*
X189297619Y-35820238D01*
X189297619Y-35820238D02*
X189202381Y-35915476D01*
X189202381Y-35915476D02*
X189107143Y-35963095D01*
%TO.C,R2*%
X131997380Y-29086666D02*
X131521190Y-29419999D01*
X131997380Y-29658094D02*
X130997380Y-29658094D01*
X130997380Y-29658094D02*
X130997380Y-29277142D01*
X130997380Y-29277142D02*
X131045000Y-29181904D01*
X131045000Y-29181904D02*
X131092619Y-29134285D01*
X131092619Y-29134285D02*
X131187857Y-29086666D01*
X131187857Y-29086666D02*
X131330714Y-29086666D01*
X131330714Y-29086666D02*
X131425952Y-29134285D01*
X131425952Y-29134285D02*
X131473571Y-29181904D01*
X131473571Y-29181904D02*
X131521190Y-29277142D01*
X131521190Y-29277142D02*
X131521190Y-29658094D01*
X131092619Y-28705713D02*
X131045000Y-28658094D01*
X131045000Y-28658094D02*
X130997380Y-28562856D01*
X130997380Y-28562856D02*
X130997380Y-28324761D01*
X130997380Y-28324761D02*
X131045000Y-28229523D01*
X131045000Y-28229523D02*
X131092619Y-28181904D01*
X131092619Y-28181904D02*
X131187857Y-28134285D01*
X131187857Y-28134285D02*
X131283095Y-28134285D01*
X131283095Y-28134285D02*
X131425952Y-28181904D01*
X131425952Y-28181904D02*
X131997380Y-28753332D01*
X131997380Y-28753332D02*
X131997380Y-28134285D01*
%TO.C,R4*%
X126997380Y-29086666D02*
X126521190Y-29419999D01*
X126997380Y-29658094D02*
X125997380Y-29658094D01*
X125997380Y-29658094D02*
X125997380Y-29277142D01*
X125997380Y-29277142D02*
X126045000Y-29181904D01*
X126045000Y-29181904D02*
X126092619Y-29134285D01*
X126092619Y-29134285D02*
X126187857Y-29086666D01*
X126187857Y-29086666D02*
X126330714Y-29086666D01*
X126330714Y-29086666D02*
X126425952Y-29134285D01*
X126425952Y-29134285D02*
X126473571Y-29181904D01*
X126473571Y-29181904D02*
X126521190Y-29277142D01*
X126521190Y-29277142D02*
X126521190Y-29658094D01*
X126330714Y-28229523D02*
X126997380Y-28229523D01*
X125949761Y-28467618D02*
X126664047Y-28705713D01*
X126664047Y-28705713D02*
X126664047Y-28086666D01*
%TO.C,D_PAD_DOWN1*%
X100952381Y-46117380D02*
X100952381Y-45117380D01*
X100952381Y-45117380D02*
X101190476Y-45117380D01*
X101190476Y-45117380D02*
X101333333Y-45165000D01*
X101333333Y-45165000D02*
X101428571Y-45260238D01*
X101428571Y-45260238D02*
X101476190Y-45355476D01*
X101476190Y-45355476D02*
X101523809Y-45545952D01*
X101523809Y-45545952D02*
X101523809Y-45688809D01*
X101523809Y-45688809D02*
X101476190Y-45879285D01*
X101476190Y-45879285D02*
X101428571Y-45974523D01*
X101428571Y-45974523D02*
X101333333Y-46069761D01*
X101333333Y-46069761D02*
X101190476Y-46117380D01*
X101190476Y-46117380D02*
X100952381Y-46117380D01*
X101714286Y-46212619D02*
X102476190Y-46212619D01*
X102714286Y-46117380D02*
X102714286Y-45117380D01*
X102714286Y-45117380D02*
X103095238Y-45117380D01*
X103095238Y-45117380D02*
X103190476Y-45165000D01*
X103190476Y-45165000D02*
X103238095Y-45212619D01*
X103238095Y-45212619D02*
X103285714Y-45307857D01*
X103285714Y-45307857D02*
X103285714Y-45450714D01*
X103285714Y-45450714D02*
X103238095Y-45545952D01*
X103238095Y-45545952D02*
X103190476Y-45593571D01*
X103190476Y-45593571D02*
X103095238Y-45641190D01*
X103095238Y-45641190D02*
X102714286Y-45641190D01*
X103666667Y-45831666D02*
X104142857Y-45831666D01*
X103571429Y-46117380D02*
X103904762Y-45117380D01*
X103904762Y-45117380D02*
X104238095Y-46117380D01*
X104571429Y-46117380D02*
X104571429Y-45117380D01*
X104571429Y-45117380D02*
X104809524Y-45117380D01*
X104809524Y-45117380D02*
X104952381Y-45165000D01*
X104952381Y-45165000D02*
X105047619Y-45260238D01*
X105047619Y-45260238D02*
X105095238Y-45355476D01*
X105095238Y-45355476D02*
X105142857Y-45545952D01*
X105142857Y-45545952D02*
X105142857Y-45688809D01*
X105142857Y-45688809D02*
X105095238Y-45879285D01*
X105095238Y-45879285D02*
X105047619Y-45974523D01*
X105047619Y-45974523D02*
X104952381Y-46069761D01*
X104952381Y-46069761D02*
X104809524Y-46117380D01*
X104809524Y-46117380D02*
X104571429Y-46117380D01*
X105333334Y-46212619D02*
X106095238Y-46212619D01*
X106333334Y-46117380D02*
X106333334Y-45117380D01*
X106333334Y-45117380D02*
X106571429Y-45117380D01*
X106571429Y-45117380D02*
X106714286Y-45165000D01*
X106714286Y-45165000D02*
X106809524Y-45260238D01*
X106809524Y-45260238D02*
X106857143Y-45355476D01*
X106857143Y-45355476D02*
X106904762Y-45545952D01*
X106904762Y-45545952D02*
X106904762Y-45688809D01*
X106904762Y-45688809D02*
X106857143Y-45879285D01*
X106857143Y-45879285D02*
X106809524Y-45974523D01*
X106809524Y-45974523D02*
X106714286Y-46069761D01*
X106714286Y-46069761D02*
X106571429Y-46117380D01*
X106571429Y-46117380D02*
X106333334Y-46117380D01*
X107523810Y-45117380D02*
X107714286Y-45117380D01*
X107714286Y-45117380D02*
X107809524Y-45165000D01*
X107809524Y-45165000D02*
X107904762Y-45260238D01*
X107904762Y-45260238D02*
X107952381Y-45450714D01*
X107952381Y-45450714D02*
X107952381Y-45784047D01*
X107952381Y-45784047D02*
X107904762Y-45974523D01*
X107904762Y-45974523D02*
X107809524Y-46069761D01*
X107809524Y-46069761D02*
X107714286Y-46117380D01*
X107714286Y-46117380D02*
X107523810Y-46117380D01*
X107523810Y-46117380D02*
X107428572Y-46069761D01*
X107428572Y-46069761D02*
X107333334Y-45974523D01*
X107333334Y-45974523D02*
X107285715Y-45784047D01*
X107285715Y-45784047D02*
X107285715Y-45450714D01*
X107285715Y-45450714D02*
X107333334Y-45260238D01*
X107333334Y-45260238D02*
X107428572Y-45165000D01*
X107428572Y-45165000D02*
X107523810Y-45117380D01*
X108285715Y-45117380D02*
X108523810Y-46117380D01*
X108523810Y-46117380D02*
X108714286Y-45403095D01*
X108714286Y-45403095D02*
X108904762Y-46117380D01*
X108904762Y-46117380D02*
X109142858Y-45117380D01*
X109523810Y-46117380D02*
X109523810Y-45117380D01*
X109523810Y-45117380D02*
X110095238Y-46117380D01*
X110095238Y-46117380D02*
X110095238Y-45117380D01*
X111095238Y-46117380D02*
X110523810Y-46117380D01*
X110809524Y-46117380D02*
X110809524Y-45117380D01*
X110809524Y-45117380D02*
X110714286Y-45260238D01*
X110714286Y-45260238D02*
X110619048Y-45355476D01*
X110619048Y-45355476D02*
X110523810Y-45403095D01*
%TO.C,R1*%
X121997380Y-29086666D02*
X121521190Y-29419999D01*
X121997380Y-29658094D02*
X120997380Y-29658094D01*
X120997380Y-29658094D02*
X120997380Y-29277142D01*
X120997380Y-29277142D02*
X121045000Y-29181904D01*
X121045000Y-29181904D02*
X121092619Y-29134285D01*
X121092619Y-29134285D02*
X121187857Y-29086666D01*
X121187857Y-29086666D02*
X121330714Y-29086666D01*
X121330714Y-29086666D02*
X121425952Y-29134285D01*
X121425952Y-29134285D02*
X121473571Y-29181904D01*
X121473571Y-29181904D02*
X121521190Y-29277142D01*
X121521190Y-29277142D02*
X121521190Y-29658094D01*
X121997380Y-28134285D02*
X121997380Y-28705713D01*
X121997380Y-28419999D02*
X120997380Y-28419999D01*
X120997380Y-28419999D02*
X121140238Y-28515237D01*
X121140238Y-28515237D02*
X121235476Y-28610475D01*
X121235476Y-28610475D02*
X121283095Y-28705713D01*
%TO.C,R9*%
X173917380Y-29166666D02*
X173441190Y-29499999D01*
X173917380Y-29738094D02*
X172917380Y-29738094D01*
X172917380Y-29738094D02*
X172917380Y-29357142D01*
X172917380Y-29357142D02*
X172965000Y-29261904D01*
X172965000Y-29261904D02*
X173012619Y-29214285D01*
X173012619Y-29214285D02*
X173107857Y-29166666D01*
X173107857Y-29166666D02*
X173250714Y-29166666D01*
X173250714Y-29166666D02*
X173345952Y-29214285D01*
X173345952Y-29214285D02*
X173393571Y-29261904D01*
X173393571Y-29261904D02*
X173441190Y-29357142D01*
X173441190Y-29357142D02*
X173441190Y-29738094D01*
X173917380Y-28690475D02*
X173917380Y-28499999D01*
X173917380Y-28499999D02*
X173869761Y-28404761D01*
X173869761Y-28404761D02*
X173822142Y-28357142D01*
X173822142Y-28357142D02*
X173679285Y-28261904D01*
X173679285Y-28261904D02*
X173488809Y-28214285D01*
X173488809Y-28214285D02*
X173107857Y-28214285D01*
X173107857Y-28214285D02*
X173012619Y-28261904D01*
X173012619Y-28261904D02*
X172965000Y-28309523D01*
X172965000Y-28309523D02*
X172917380Y-28404761D01*
X172917380Y-28404761D02*
X172917380Y-28595237D01*
X172917380Y-28595237D02*
X172965000Y-28690475D01*
X172965000Y-28690475D02*
X173012619Y-28738094D01*
X173012619Y-28738094D02*
X173107857Y-28785713D01*
X173107857Y-28785713D02*
X173345952Y-28785713D01*
X173345952Y-28785713D02*
X173441190Y-28738094D01*
X173441190Y-28738094D02*
X173488809Y-28690475D01*
X173488809Y-28690475D02*
X173536428Y-28595237D01*
X173536428Y-28595237D02*
X173536428Y-28404761D01*
X173536428Y-28404761D02*
X173488809Y-28309523D01*
X173488809Y-28309523D02*
X173441190Y-28261904D01*
X173441190Y-28261904D02*
X173345952Y-28214285D01*
%TO.C,HOME_BUTTON1*%
X130476190Y-57077380D02*
X130476190Y-56077380D01*
X130476190Y-56553571D02*
X131047618Y-56553571D01*
X131047618Y-57077380D02*
X131047618Y-56077380D01*
X131714285Y-56077380D02*
X131904761Y-56077380D01*
X131904761Y-56077380D02*
X131999999Y-56125000D01*
X131999999Y-56125000D02*
X132095237Y-56220238D01*
X132095237Y-56220238D02*
X132142856Y-56410714D01*
X132142856Y-56410714D02*
X132142856Y-56744047D01*
X132142856Y-56744047D02*
X132095237Y-56934523D01*
X132095237Y-56934523D02*
X131999999Y-57029761D01*
X131999999Y-57029761D02*
X131904761Y-57077380D01*
X131904761Y-57077380D02*
X131714285Y-57077380D01*
X131714285Y-57077380D02*
X131619047Y-57029761D01*
X131619047Y-57029761D02*
X131523809Y-56934523D01*
X131523809Y-56934523D02*
X131476190Y-56744047D01*
X131476190Y-56744047D02*
X131476190Y-56410714D01*
X131476190Y-56410714D02*
X131523809Y-56220238D01*
X131523809Y-56220238D02*
X131619047Y-56125000D01*
X131619047Y-56125000D02*
X131714285Y-56077380D01*
X132571428Y-57077380D02*
X132571428Y-56077380D01*
X132571428Y-56077380D02*
X132904761Y-56791666D01*
X132904761Y-56791666D02*
X133238094Y-56077380D01*
X133238094Y-56077380D02*
X133238094Y-57077380D01*
X133714285Y-56553571D02*
X134047618Y-56553571D01*
X134190475Y-57077380D02*
X133714285Y-57077380D01*
X133714285Y-57077380D02*
X133714285Y-56077380D01*
X133714285Y-56077380D02*
X134190475Y-56077380D01*
X134380952Y-57172619D02*
X135142856Y-57172619D01*
X135714285Y-56553571D02*
X135857142Y-56601190D01*
X135857142Y-56601190D02*
X135904761Y-56648809D01*
X135904761Y-56648809D02*
X135952380Y-56744047D01*
X135952380Y-56744047D02*
X135952380Y-56886904D01*
X135952380Y-56886904D02*
X135904761Y-56982142D01*
X135904761Y-56982142D02*
X135857142Y-57029761D01*
X135857142Y-57029761D02*
X135761904Y-57077380D01*
X135761904Y-57077380D02*
X135380952Y-57077380D01*
X135380952Y-57077380D02*
X135380952Y-56077380D01*
X135380952Y-56077380D02*
X135714285Y-56077380D01*
X135714285Y-56077380D02*
X135809523Y-56125000D01*
X135809523Y-56125000D02*
X135857142Y-56172619D01*
X135857142Y-56172619D02*
X135904761Y-56267857D01*
X135904761Y-56267857D02*
X135904761Y-56363095D01*
X135904761Y-56363095D02*
X135857142Y-56458333D01*
X135857142Y-56458333D02*
X135809523Y-56505952D01*
X135809523Y-56505952D02*
X135714285Y-56553571D01*
X135714285Y-56553571D02*
X135380952Y-56553571D01*
X136380952Y-56077380D02*
X136380952Y-56886904D01*
X136380952Y-56886904D02*
X136428571Y-56982142D01*
X136428571Y-56982142D02*
X136476190Y-57029761D01*
X136476190Y-57029761D02*
X136571428Y-57077380D01*
X136571428Y-57077380D02*
X136761904Y-57077380D01*
X136761904Y-57077380D02*
X136857142Y-57029761D01*
X136857142Y-57029761D02*
X136904761Y-56982142D01*
X136904761Y-56982142D02*
X136952380Y-56886904D01*
X136952380Y-56886904D02*
X136952380Y-56077380D01*
X137285714Y-56077380D02*
X137857142Y-56077380D01*
X137571428Y-57077380D02*
X137571428Y-56077380D01*
X138047619Y-56077380D02*
X138619047Y-56077380D01*
X138333333Y-57077380D02*
X138333333Y-56077380D01*
X139142857Y-56077380D02*
X139333333Y-56077380D01*
X139333333Y-56077380D02*
X139428571Y-56125000D01*
X139428571Y-56125000D02*
X139523809Y-56220238D01*
X139523809Y-56220238D02*
X139571428Y-56410714D01*
X139571428Y-56410714D02*
X139571428Y-56744047D01*
X139571428Y-56744047D02*
X139523809Y-56934523D01*
X139523809Y-56934523D02*
X139428571Y-57029761D01*
X139428571Y-57029761D02*
X139333333Y-57077380D01*
X139333333Y-57077380D02*
X139142857Y-57077380D01*
X139142857Y-57077380D02*
X139047619Y-57029761D01*
X139047619Y-57029761D02*
X138952381Y-56934523D01*
X138952381Y-56934523D02*
X138904762Y-56744047D01*
X138904762Y-56744047D02*
X138904762Y-56410714D01*
X138904762Y-56410714D02*
X138952381Y-56220238D01*
X138952381Y-56220238D02*
X139047619Y-56125000D01*
X139047619Y-56125000D02*
X139142857Y-56077380D01*
X140000000Y-57077380D02*
X140000000Y-56077380D01*
X140000000Y-56077380D02*
X140571428Y-57077380D01*
X140571428Y-57077380D02*
X140571428Y-56077380D01*
X141571428Y-57077380D02*
X141000000Y-57077380D01*
X141285714Y-57077380D02*
X141285714Y-56077380D01*
X141285714Y-56077380D02*
X141190476Y-56220238D01*
X141190476Y-56220238D02*
X141095238Y-56315476D01*
X141095238Y-56315476D02*
X141000000Y-56363095D01*
%TO.C,X_BUTTON1*%
X190976190Y-44117380D02*
X191642856Y-45117380D01*
X191642856Y-44117380D02*
X190976190Y-45117380D01*
X191785714Y-45212619D02*
X192547618Y-45212619D01*
X193119047Y-44593571D02*
X193261904Y-44641190D01*
X193261904Y-44641190D02*
X193309523Y-44688809D01*
X193309523Y-44688809D02*
X193357142Y-44784047D01*
X193357142Y-44784047D02*
X193357142Y-44926904D01*
X193357142Y-44926904D02*
X193309523Y-45022142D01*
X193309523Y-45022142D02*
X193261904Y-45069761D01*
X193261904Y-45069761D02*
X193166666Y-45117380D01*
X193166666Y-45117380D02*
X192785714Y-45117380D01*
X192785714Y-45117380D02*
X192785714Y-44117380D01*
X192785714Y-44117380D02*
X193119047Y-44117380D01*
X193119047Y-44117380D02*
X193214285Y-44165000D01*
X193214285Y-44165000D02*
X193261904Y-44212619D01*
X193261904Y-44212619D02*
X193309523Y-44307857D01*
X193309523Y-44307857D02*
X193309523Y-44403095D01*
X193309523Y-44403095D02*
X193261904Y-44498333D01*
X193261904Y-44498333D02*
X193214285Y-44545952D01*
X193214285Y-44545952D02*
X193119047Y-44593571D01*
X193119047Y-44593571D02*
X192785714Y-44593571D01*
X193785714Y-44117380D02*
X193785714Y-44926904D01*
X193785714Y-44926904D02*
X193833333Y-45022142D01*
X193833333Y-45022142D02*
X193880952Y-45069761D01*
X193880952Y-45069761D02*
X193976190Y-45117380D01*
X193976190Y-45117380D02*
X194166666Y-45117380D01*
X194166666Y-45117380D02*
X194261904Y-45069761D01*
X194261904Y-45069761D02*
X194309523Y-45022142D01*
X194309523Y-45022142D02*
X194357142Y-44926904D01*
X194357142Y-44926904D02*
X194357142Y-44117380D01*
X194690476Y-44117380D02*
X195261904Y-44117380D01*
X194976190Y-45117380D02*
X194976190Y-44117380D01*
X195452381Y-44117380D02*
X196023809Y-44117380D01*
X195738095Y-45117380D02*
X195738095Y-44117380D01*
X196547619Y-44117380D02*
X196738095Y-44117380D01*
X196738095Y-44117380D02*
X196833333Y-44165000D01*
X196833333Y-44165000D02*
X196928571Y-44260238D01*
X196928571Y-44260238D02*
X196976190Y-44450714D01*
X196976190Y-44450714D02*
X196976190Y-44784047D01*
X196976190Y-44784047D02*
X196928571Y-44974523D01*
X196928571Y-44974523D02*
X196833333Y-45069761D01*
X196833333Y-45069761D02*
X196738095Y-45117380D01*
X196738095Y-45117380D02*
X196547619Y-45117380D01*
X196547619Y-45117380D02*
X196452381Y-45069761D01*
X196452381Y-45069761D02*
X196357143Y-44974523D01*
X196357143Y-44974523D02*
X196309524Y-44784047D01*
X196309524Y-44784047D02*
X196309524Y-44450714D01*
X196309524Y-44450714D02*
X196357143Y-44260238D01*
X196357143Y-44260238D02*
X196452381Y-44165000D01*
X196452381Y-44165000D02*
X196547619Y-44117380D01*
X197404762Y-45117380D02*
X197404762Y-44117380D01*
X197404762Y-44117380D02*
X197976190Y-45117380D01*
X197976190Y-45117380D02*
X197976190Y-44117380D01*
X198976190Y-45117380D02*
X198404762Y-45117380D01*
X198690476Y-45117380D02*
X198690476Y-44117380D01*
X198690476Y-44117380D02*
X198595238Y-44260238D01*
X198595238Y-44260238D02*
X198500000Y-44355476D01*
X198500000Y-44355476D02*
X198404762Y-44403095D01*
D11*
%TO.C,R3*%
X119000000Y-24960000D02*
X119000000Y-25730000D01*
X120370000Y-25730000D02*
X117630000Y-25730000D01*
X117630000Y-25730000D02*
X117630000Y-32270000D01*
X120370000Y-32270000D02*
X120370000Y-25730000D01*
X117630000Y-32270000D02*
X120370000Y-32270000D01*
X119000000Y-33040000D02*
X119000000Y-32270000D01*
%TO.C,R8*%
X170840000Y-24960000D02*
X170840000Y-25730000D01*
X172210000Y-25730000D02*
X169470000Y-25730000D01*
X169470000Y-25730000D02*
X169470000Y-32270000D01*
X172210000Y-32270000D02*
X172210000Y-25730000D01*
X169470000Y-32270000D02*
X172210000Y-32270000D01*
X170840000Y-33040000D02*
X170840000Y-32270000D01*
%TO.C,PAUSE_BUTTON1*%
X160500000Y-60210000D02*
X160500000Y-61710000D01*
X161750000Y-64210000D02*
X166250000Y-64210000D01*
X166250000Y-57710000D02*
X161750000Y-57710000D01*
X167500000Y-61710000D02*
X167500000Y-60210000D01*
%TO.C,D_PAD_UP1*%
X102500000Y-31250000D02*
X102500000Y-32750000D01*
X103750000Y-35250000D02*
X108250000Y-35250000D01*
X108250000Y-28750000D02*
X103750000Y-28750000D01*
X109500000Y-32750000D02*
X109500000Y-31250000D01*
%TO.C,JOYSTICK2*%
X165695000Y-80220000D02*
X165695000Y-90440000D01*
X165695000Y-80220000D02*
X168355000Y-80220000D01*
X165695000Y-90440000D02*
X168355000Y-90440000D01*
X167025000Y-77620000D02*
X168355000Y-77620000D01*
X168355000Y-77620000D02*
X168355000Y-78950000D01*
X168355000Y-80220000D02*
X168355000Y-90440000D01*
D10*
%TO.C,U1*%
X153670000Y-20220000D02*
X153670000Y-22760000D01*
X146050000Y-20220000D02*
X153670000Y-20220000D01*
X158750000Y-22760000D02*
X158750000Y-53240000D01*
X153670000Y-22760000D02*
X158750000Y-22760000D01*
X146050000Y-22760000D02*
X146050000Y-20220000D01*
X140970000Y-22760000D02*
X146050000Y-22760000D01*
X140970000Y-22760000D02*
X140970000Y-53240000D01*
X158750000Y-53240000D02*
X140970000Y-53240000D01*
D11*
%TO.C,R7*%
X165760000Y-24960000D02*
X165760000Y-25730000D01*
X167130000Y-25730000D02*
X164390000Y-25730000D01*
X164390000Y-25730000D02*
X164390000Y-32270000D01*
X167130000Y-32270000D02*
X167130000Y-25730000D01*
X164390000Y-32270000D02*
X167130000Y-32270000D01*
X165760000Y-33040000D02*
X165760000Y-32270000D01*
%TO.C,JOYSTICK1*%
X93670000Y-80190000D02*
X93670000Y-90410000D01*
X93670000Y-80190000D02*
X96330000Y-80190000D01*
X93670000Y-90410000D02*
X96330000Y-90410000D01*
X95000000Y-77590000D02*
X96330000Y-77590000D01*
X96330000Y-77590000D02*
X96330000Y-78920000D01*
X96330000Y-80190000D02*
X96330000Y-90410000D01*
%TO.C,D_PAD_LEFT1*%
X93500000Y-40250000D02*
X93500000Y-41750000D01*
X94750000Y-44250000D02*
X99250000Y-44250000D01*
X99250000Y-37750000D02*
X94750000Y-37750000D01*
X100500000Y-41750000D02*
X100500000Y-40250000D01*
%TO.C,R10*%
X181000000Y-24960000D02*
X181000000Y-25730000D01*
X182370000Y-25730000D02*
X179630000Y-25730000D01*
X179630000Y-25730000D02*
X179630000Y-32270000D01*
X182370000Y-32270000D02*
X182370000Y-25730000D01*
X179630000Y-32270000D02*
X182370000Y-32270000D01*
X181000000Y-33040000D02*
X181000000Y-32270000D01*
%TO.C,Y_BUTTON1*%
X200500000Y-39810000D02*
X200500000Y-41310000D01*
X201750000Y-43810000D02*
X206250000Y-43810000D01*
X206250000Y-37310000D02*
X201750000Y-37310000D01*
X207500000Y-41310000D02*
X207500000Y-39810000D01*
%TO.C,R5*%
X147320000Y-67540000D02*
X147320000Y-66770000D01*
X145950000Y-66770000D02*
X148690000Y-66770000D01*
X148690000Y-66770000D02*
X148690000Y-60230000D01*
X145950000Y-60230000D02*
X145950000Y-66770000D01*
X148690000Y-60230000D02*
X145950000Y-60230000D01*
X147320000Y-59460000D02*
X147320000Y-60230000D01*
%TO.C,D_PAD_RIGHT1*%
X118500000Y-41750000D02*
X118500000Y-40250000D01*
X117250000Y-37750000D02*
X112750000Y-37750000D01*
X112750000Y-44250000D02*
X117250000Y-44250000D01*
X111500000Y-40250000D02*
X111500000Y-41750000D01*
%TO.C,R6*%
X152400000Y-67540000D02*
X152400000Y-66770000D01*
X151030000Y-66770000D02*
X153770000Y-66770000D01*
X153770000Y-66770000D02*
X153770000Y-60230000D01*
X151030000Y-60230000D02*
X151030000Y-66770000D01*
X153770000Y-60230000D02*
X151030000Y-60230000D01*
X152400000Y-59460000D02*
X152400000Y-60230000D01*
%TO.C,B_BUTTON1*%
X191500000Y-31250000D02*
X191500000Y-32750000D01*
X192750000Y-35250000D02*
X197250000Y-35250000D01*
X197250000Y-28750000D02*
X192750000Y-28750000D01*
X198500000Y-32750000D02*
X198500000Y-31250000D01*
%TO.C,A_BUTTON1*%
X182250000Y-39810000D02*
X182250000Y-41310000D01*
X183500000Y-43810000D02*
X188000000Y-43810000D01*
X188000000Y-37310000D02*
X183500000Y-37310000D01*
X189250000Y-41310000D02*
X189250000Y-39810000D01*
%TO.C,R2*%
X134000000Y-24880000D02*
X134000000Y-25650000D01*
X135370000Y-25650000D02*
X132630000Y-25650000D01*
X132630000Y-25650000D02*
X132630000Y-32190000D01*
X135370000Y-32190000D02*
X135370000Y-25650000D01*
X132630000Y-32190000D02*
X135370000Y-32190000D01*
X134000000Y-32960000D02*
X134000000Y-32190000D01*
%TO.C,R4*%
X129000000Y-24880000D02*
X129000000Y-25650000D01*
X130370000Y-25650000D02*
X127630000Y-25650000D01*
X127630000Y-25650000D02*
X127630000Y-32190000D01*
X130370000Y-32190000D02*
X130370000Y-25650000D01*
X127630000Y-32190000D02*
X130370000Y-32190000D01*
X129000000Y-32960000D02*
X129000000Y-32190000D01*
%TO.C,D_PAD_DOWN1*%
X102500000Y-49250000D02*
X102500000Y-50750000D01*
X103750000Y-53250000D02*
X108250000Y-53250000D01*
X108250000Y-46750000D02*
X103750000Y-46750000D01*
X109500000Y-50750000D02*
X109500000Y-49250000D01*
%TO.C,R1*%
X124000000Y-24880000D02*
X124000000Y-25650000D01*
X125370000Y-25650000D02*
X122630000Y-25650000D01*
X122630000Y-25650000D02*
X122630000Y-32190000D01*
X125370000Y-32190000D02*
X125370000Y-25650000D01*
X122630000Y-32190000D02*
X125370000Y-32190000D01*
X124000000Y-32960000D02*
X124000000Y-32190000D01*
%TO.C,R9*%
X175920000Y-24960000D02*
X175920000Y-25730000D01*
X177290000Y-25730000D02*
X174550000Y-25730000D01*
X174550000Y-25730000D02*
X174550000Y-32270000D01*
X177290000Y-32270000D02*
X177290000Y-25730000D01*
X174550000Y-32270000D02*
X177290000Y-32270000D01*
X175920000Y-33040000D02*
X175920000Y-32270000D01*
%TO.C,HOME_BUTTON1*%
X139500000Y-61710000D02*
X139500000Y-60210000D01*
X138250000Y-57710000D02*
X133750000Y-57710000D01*
X133750000Y-64210000D02*
X138250000Y-64210000D01*
X132500000Y-60210000D02*
X132500000Y-61710000D01*
%TO.C,X_BUTTON1*%
X191500000Y-48250000D02*
X191500000Y-49750000D01*
X192750000Y-52250000D02*
X197250000Y-52250000D01*
X197250000Y-45750000D02*
X192750000Y-45750000D01*
X198500000Y-49750000D02*
X198500000Y-48250000D01*
%TD*%
D12*
%TO.C,U1*%
X142239999Y-24029999D03*
D13*
X142240000Y-26570000D03*
X142240000Y-29110000D03*
X142240000Y-31650000D03*
X142240000Y-34190000D03*
X142240000Y-36730000D03*
X142240000Y-39270000D03*
X142240000Y-41810000D03*
X142240000Y-44350000D03*
X142240000Y-46890000D03*
X142240000Y-49430000D03*
X142240000Y-51970000D03*
X157480000Y-51970000D03*
X157480000Y-49430000D03*
X157480000Y-46890000D03*
X157480000Y-44350000D03*
X157480000Y-41810000D03*
X157480000Y-39270000D03*
X157480000Y-36730000D03*
X157480000Y-34190000D03*
X157480000Y-31650000D03*
X157480000Y-29110000D03*
X157480000Y-26570000D03*
X157480000Y-24030000D03*
%TD*%
M02*
