%TF.GenerationSoftware,KiCad,Pcbnew,(7.0.0)*%
%TF.CreationDate,2023-03-22T23:13:35-04:00*%
%TF.ProjectId,controller,636f6e74-726f-46c6-9c65-722e6b696361,rev?*%
%TF.SameCoordinates,Original*%
%TF.FileFunction,Copper,L2,Bot*%
%TF.FilePolarity,Positive*%
%FSLAX46Y46*%
G04 Gerber Fmt 4.6, Leading zero omitted, Abs format (unit mm)*
G04 Created by KiCad (PCBNEW (7.0.0)) date 2023-03-22 23:13:35*
%MOMM*%
%LPD*%
G01*
G04 APERTURE LIST*
%TA.AperFunction,ComponentPad*%
%ADD10O,1.600000X1.600000*%
%TD*%
%TA.AperFunction,ComponentPad*%
%ADD11C,1.600000*%
%TD*%
%TA.AperFunction,ComponentPad*%
%ADD12C,2.000000*%
%TD*%
%TA.AperFunction,ComponentPad*%
%ADD13R,1.700000X1.700000*%
%TD*%
%TA.AperFunction,ComponentPad*%
%ADD14O,1.700000X1.700000*%
%TD*%
%TA.AperFunction,ComponentPad*%
%ADD15R,1.600000X1.600000*%
%TD*%
%TA.AperFunction,Conductor*%
%ADD16C,0.250000*%
%TD*%
G04 APERTURE END LIST*
D10*
%TO.P,R3,2*%
%TO.N,Net-(D_PAD_RIGHT1-Pad2)*%
X118999999Y-23919999D03*
D11*
%TO.P,R3,1*%
%TO.N,GND*%
X119000000Y-34080000D03*
%TD*%
D10*
%TO.P,R8,2*%
%TO.N,Net-(B_BUTTON1-Pad2)*%
X170839999Y-23919999D03*
D11*
%TO.P,R8,1*%
%TO.N,GND*%
X170840000Y-34080000D03*
%TD*%
D12*
%TO.P,PAUSE_BUTTON1,1*%
%TO.N,VCC*%
X160750000Y-58710000D03*
%TO.P,PAUSE_BUTTON1,2*%
%TO.N,Net-(PAUSE_BUTTON1-Pad2)*%
X160750000Y-63210000D03*
%TO.P,PAUSE_BUTTON1,3*%
%TO.N,unconnected-(PAUSE_BUTTON1-Pad3)*%
X167250000Y-58710000D03*
%TO.P,PAUSE_BUTTON1,4*%
%TO.N,/PIN_16*%
X167250000Y-63210000D03*
%TD*%
%TO.P,D_PAD_UP1,1*%
%TO.N,VCC*%
X102750000Y-29750000D03*
%TO.P,D_PAD_UP1,2*%
%TO.N,Net-(D_PAD_UP1-Pad2)*%
X102750000Y-34250000D03*
%TO.P,D_PAD_UP1,3*%
%TO.N,unconnected-(D_PAD_UP1-Pad3)*%
X109250000Y-29750000D03*
%TO.P,D_PAD_UP1,4*%
%TO.N,/PIN_5*%
X109250000Y-34250000D03*
%TD*%
D13*
%TO.P,JOYSTICK2,1,Pin_1*%
%TO.N,GND*%
X167024999Y-78949999D03*
D14*
%TO.P,JOYSTICK2,2,Pin_2*%
%TO.N,VCC*%
X167024999Y-81489999D03*
%TO.P,JOYSTICK2,3,Pin_3*%
%TO.N,/PIN_A2*%
X167024999Y-84029999D03*
%TO.P,JOYSTICK2,4,Pin_4*%
%TO.N,/PIN_A3*%
X167024999Y-86569999D03*
%TO.P,JOYSTICK2,5,Pin_5*%
%TO.N,/PIN_15*%
X167024999Y-89109999D03*
%TD*%
D15*
%TO.P,U1,1,TX*%
%TO.N,unconnected-(U1-TX-Pad1)*%
X142239999Y-24029999D03*
D11*
%TO.P,U1,2,RX*%
%TO.N,unconnected-(U1-RX-Pad2)*%
X142240000Y-26570000D03*
%TO.P,U1,3,GND*%
%TO.N,GND*%
X142240000Y-29110000D03*
%TO.P,U1,4,GND*%
X142240000Y-31650000D03*
%TO.P,U1,5,SDA*%
%TO.N,/PIN_2*%
X142240000Y-34190000D03*
%TO.P,U1,6,SCL*%
%TO.N,/PIN_3*%
X142240000Y-36730000D03*
%TO.P,U1,7,D4*%
%TO.N,/PIN_4*%
X142240000Y-39270000D03*
%TO.P,U1,8,C6*%
%TO.N,/PIN_5*%
X142240000Y-41810000D03*
%TO.P,U1,9,D7*%
%TO.N,/PIN_6*%
X142240000Y-44350000D03*
%TO.P,U1,10,E6*%
%TO.N,/PIN_7*%
X142240000Y-46890000D03*
%TO.P,U1,11,B4*%
%TO.N,/PIN_8*%
X142240000Y-49430000D03*
%TO.P,U1,12,B5*%
%TO.N,/PIN_9*%
X142240000Y-51970000D03*
%TO.P,U1,13,B6*%
%TO.N,/PIN_10*%
X157480000Y-51970000D03*
%TO.P,U1,14,B2*%
%TO.N,/PIN_16*%
X157480000Y-49430000D03*
%TO.P,U1,15,B3*%
%TO.N,/PIN_14*%
X157480000Y-46890000D03*
%TO.P,U1,16,B1*%
%TO.N,/PIN_15*%
X157480000Y-44350000D03*
%TO.P,U1,17,F7*%
%TO.N,/PIN_A0*%
X157480000Y-41810000D03*
%TO.P,U1,18,F6*%
%TO.N,/PIN_A1*%
X157480000Y-39270000D03*
%TO.P,U1,19,F5*%
%TO.N,/PIN_A2*%
X157480000Y-36730000D03*
%TO.P,U1,20,F4*%
%TO.N,/PIN_A3*%
X157480000Y-34190000D03*
%TO.P,U1,21,VCC*%
%TO.N,VCC*%
X157480000Y-31650000D03*
%TO.P,U1,22,RST*%
%TO.N,unconnected-(U1-RST-Pad22)*%
X157480000Y-29110000D03*
%TO.P,U1,23,GND*%
%TO.N,GND*%
X157480000Y-26570000D03*
%TO.P,U1,24,RAW*%
%TO.N,unconnected-(U1-RAW-Pad24)*%
X157480000Y-24030000D03*
%TD*%
D10*
%TO.P,R7,2*%
%TO.N,Net-(A_BUTTON1-Pad2)*%
X165759999Y-23919999D03*
D11*
%TO.P,R7,1*%
%TO.N,GND*%
X165760000Y-34080000D03*
%TD*%
D13*
%TO.P,JOYSTICK1,1,Pin_1*%
%TO.N,GND*%
X94999999Y-78919999D03*
D14*
%TO.P,JOYSTICK1,2,Pin_2*%
%TO.N,VCC*%
X94999999Y-81459999D03*
%TO.P,JOYSTICK1,3,Pin_3*%
%TO.N,/PIN_A0*%
X94999999Y-83999999D03*
%TO.P,JOYSTICK1,4,Pin_4*%
%TO.N,/PIN_A1*%
X94999999Y-86539999D03*
%TO.P,JOYSTICK1,5,Pin_5*%
%TO.N,/PIN_14*%
X94999999Y-89079999D03*
%TD*%
D12*
%TO.P,D_PAD_LEFT1,1*%
%TO.N,VCC*%
X93750000Y-38750000D03*
%TO.P,D_PAD_LEFT1,2*%
%TO.N,Net-(D_PAD_LEFT1-Pad2)*%
X93750000Y-43250000D03*
%TO.P,D_PAD_LEFT1,3*%
%TO.N,unconnected-(D_PAD_LEFT1-Pad3)*%
X100250000Y-38750000D03*
%TO.P,D_PAD_LEFT1,4*%
%TO.N,/PIN_3*%
X100250000Y-43250000D03*
%TD*%
D10*
%TO.P,R10,2*%
%TO.N,Net-(R10-Pad2)*%
X180999999Y-23919999D03*
D11*
%TO.P,R10,1*%
%TO.N,GND*%
X181000000Y-34080000D03*
%TD*%
D12*
%TO.P,Y_BUTTON1,1*%
%TO.N,VCC*%
X200750000Y-38310000D03*
%TO.P,Y_BUTTON1,2*%
%TO.N,Net-(R9-Pad2)*%
X200750000Y-42810000D03*
%TO.P,Y_BUTTON1,3*%
%TO.N,unconnected-(Y_BUTTON1-Pad3)*%
X207250000Y-38310000D03*
%TO.P,Y_BUTTON1,4*%
%TO.N,/PIN_9*%
X207250000Y-42810000D03*
%TD*%
D11*
%TO.P,R5,1*%
%TO.N,GND*%
X147320000Y-68580000D03*
D10*
%TO.P,R5,2*%
%TO.N,Net-(HOME_BUTTON1-Pad2)*%
X147319999Y-58419999D03*
%TD*%
D12*
%TO.P,D_PAD_RIGHT1,4*%
%TO.N,/PIN_2*%
X118250000Y-43250000D03*
%TO.P,D_PAD_RIGHT1,3*%
%TO.N,unconnected-(D_PAD_RIGHT1-Pad3)*%
X118250000Y-38750000D03*
%TO.P,D_PAD_RIGHT1,2*%
%TO.N,Net-(D_PAD_RIGHT1-Pad2)*%
X111750000Y-43250000D03*
%TO.P,D_PAD_RIGHT1,1*%
%TO.N,VCC*%
X111750000Y-38750000D03*
%TD*%
D11*
%TO.P,R6,1*%
%TO.N,GND*%
X152400000Y-68580000D03*
D10*
%TO.P,R6,2*%
%TO.N,Net-(PAUSE_BUTTON1-Pad2)*%
X152399999Y-58419999D03*
%TD*%
D12*
%TO.P,B_BUTTON1,1*%
%TO.N,VCC*%
X191750000Y-29750000D03*
%TO.P,B_BUTTON1,2*%
%TO.N,Net-(B_BUTTON1-Pad2)*%
X191750000Y-34250000D03*
%TO.P,B_BUTTON1,3*%
%TO.N,unconnected-(B_BUTTON1-Pad3)*%
X198250000Y-29750000D03*
%TO.P,B_BUTTON1,4*%
%TO.N,/PIN_7*%
X198250000Y-34250000D03*
%TD*%
%TO.P,A_BUTTON1,1*%
%TO.N,VCC*%
X182500000Y-38310000D03*
%TO.P,A_BUTTON1,2*%
%TO.N,Net-(A_BUTTON1-Pad2)*%
X182500000Y-42810000D03*
%TO.P,A_BUTTON1,3*%
%TO.N,unconnected-(A_BUTTON1-Pad3)*%
X189000000Y-38310000D03*
%TO.P,A_BUTTON1,4*%
%TO.N,/PIN_6*%
X189000000Y-42810000D03*
%TD*%
D10*
%TO.P,R2,2*%
%TO.N,Net-(D_PAD_UP1-Pad2)*%
X133999999Y-23839999D03*
D11*
%TO.P,R2,1*%
%TO.N,GND*%
X134000000Y-34000000D03*
%TD*%
D10*
%TO.P,R4,2*%
%TO.N,Net-(D_PAD_DOWN1-Pad2)*%
X128999999Y-23839999D03*
D11*
%TO.P,R4,1*%
%TO.N,GND*%
X129000000Y-34000000D03*
%TD*%
D12*
%TO.P,D_PAD_DOWN1,1*%
%TO.N,VCC*%
X102750000Y-47750000D03*
%TO.P,D_PAD_DOWN1,2*%
%TO.N,Net-(D_PAD_DOWN1-Pad2)*%
X102750000Y-52250000D03*
%TO.P,D_PAD_DOWN1,3*%
%TO.N,unconnected-(D_PAD_DOWN1-Pad3)*%
X109250000Y-47750000D03*
%TO.P,D_PAD_DOWN1,4*%
%TO.N,/PIN_4*%
X109250000Y-52250000D03*
%TD*%
D10*
%TO.P,R1,2*%
%TO.N,Net-(D_PAD_LEFT1-Pad2)*%
X123999999Y-23839999D03*
D11*
%TO.P,R1,1*%
%TO.N,GND*%
X124000000Y-34000000D03*
%TD*%
D10*
%TO.P,R9,2*%
%TO.N,Net-(R9-Pad2)*%
X175919999Y-23919999D03*
D11*
%TO.P,R9,1*%
%TO.N,GND*%
X175920000Y-34080000D03*
%TD*%
D12*
%TO.P,HOME_BUTTON1,4*%
%TO.N,/PIN_10*%
X139250000Y-63210000D03*
%TO.P,HOME_BUTTON1,3*%
%TO.N,unconnected-(HOME_BUTTON1-Pad3)*%
X139250000Y-58710000D03*
%TO.P,HOME_BUTTON1,2*%
%TO.N,Net-(HOME_BUTTON1-Pad2)*%
X132750000Y-63210000D03*
%TO.P,HOME_BUTTON1,1*%
%TO.N,VCC*%
X132750000Y-58710000D03*
%TD*%
%TO.P,X_BUTTON1,1*%
%TO.N,VCC*%
X191750000Y-46750000D03*
%TO.P,X_BUTTON1,2*%
%TO.N,Net-(R10-Pad2)*%
X191750000Y-51250000D03*
%TO.P,X_BUTTON1,3*%
%TO.N,unconnected-(X_BUTTON1-Pad3)*%
X198250000Y-46750000D03*
%TO.P,X_BUTTON1,4*%
%TO.N,/PIN_8*%
X198250000Y-51250000D03*
%TD*%
D16*
%TO.N,Net-(R9-Pad2)*%
X177045000Y-25045000D02*
X175920000Y-23920000D01*
X184418833Y-25045000D02*
X177045000Y-25045000D01*
X192373833Y-33000000D02*
X184418833Y-25045000D01*
X195000000Y-33000000D02*
X192373833Y-33000000D01*
X196000000Y-32000000D02*
X195000000Y-33000000D01*
X197873833Y-32000000D02*
X196000000Y-32000000D01*
X202075000Y-36201167D02*
X197873833Y-32000000D01*
X202075000Y-41485000D02*
X202075000Y-36201167D01*
X200750000Y-42810000D02*
X202075000Y-41485000D01*
%TO.N,Net-(B_BUTTON1-Pad2)*%
X172920000Y-23920000D02*
X170840000Y-23920000D01*
X183250000Y-34250000D02*
X172920000Y-23920000D01*
X191750000Y-34250000D02*
X183250000Y-34250000D01*
%TO.N,Net-(D_PAD_DOWN1-Pad2)*%
X104075000Y-46075000D02*
X104075000Y-50925000D01*
X103025000Y-45025000D02*
X104075000Y-46075000D01*
X100151167Y-45025000D02*
X103025000Y-45025000D01*
X98925000Y-43798833D02*
X100151167Y-45025000D01*
X98925000Y-42701167D02*
X98925000Y-43798833D01*
X99701167Y-41925000D02*
X98925000Y-42701167D01*
X111075000Y-41925000D02*
X99701167Y-41925000D01*
X104075000Y-50925000D02*
X102750000Y-52250000D01*
X115544009Y-37455991D02*
X111075000Y-41925000D01*
X115544009Y-35945000D02*
X115544009Y-37455991D01*
X125489009Y-26000000D02*
X115544009Y-35945000D01*
X129000000Y-26000000D02*
X125489009Y-26000000D01*
%TO.N,GND*%
X119080000Y-34000000D02*
X119000000Y-34080000D01*
X124000000Y-34000000D02*
X119080000Y-34000000D01*
X134000000Y-34000000D02*
X129000000Y-34000000D01*
%TO.N,Net-(A_BUTTON1-Pad2)*%
X163000000Y-33000000D02*
X165760000Y-30240000D01*
X165760000Y-30240000D02*
X165760000Y-23920000D01*
X172810000Y-42810000D02*
X163000000Y-33000000D01*
X182500000Y-42810000D02*
X172810000Y-42810000D01*
%TO.N,Net-(D_PAD_UP1-Pad2)*%
X114735000Y-22265000D02*
X132425000Y-22265000D01*
X132425000Y-22265000D02*
X134000000Y-23840000D01*
X102750000Y-34250000D02*
X114735000Y-22265000D01*
%TO.N,Net-(D_PAD_RIGHT1-Pad2)*%
X129715000Y-22715000D02*
X120205000Y-22715000D01*
X130125000Y-29465991D02*
X130125000Y-23125000D01*
X116340991Y-43250000D02*
X130125000Y-29465991D01*
X130125000Y-23125000D02*
X129715000Y-22715000D01*
X120205000Y-22715000D02*
X119000000Y-23920000D01*
X111750000Y-43250000D02*
X116340991Y-43250000D01*
%TO.N,Net-(D_PAD_DOWN1-Pad2)*%
X129000000Y-26000000D02*
X129000000Y-23840000D01*
%TO.N,Net-(D_PAD_LEFT1-Pad2)*%
X110840000Y-37000000D02*
X124000000Y-23840000D01*
X100000000Y-37000000D02*
X110840000Y-37000000D01*
X93750000Y-43250000D02*
X100000000Y-37000000D01*
%TO.N,/PIN_3*%
X134395000Y-44575000D02*
X142240000Y-36730000D01*
X101575000Y-44575000D02*
X134395000Y-44575000D01*
X100250000Y-43250000D02*
X101575000Y-44575000D01*
%TO.N,/PIN_2*%
X118250000Y-43250000D02*
X133180000Y-43250000D01*
X133180000Y-43250000D02*
X142240000Y-34190000D01*
%TO.N,/PIN_5*%
X143205000Y-40845000D02*
X142240000Y-41810000D01*
X156541396Y-40845000D02*
X143205000Y-40845000D01*
X156991396Y-40395000D02*
X156541396Y-40845000D01*
X157945991Y-40395000D02*
X156991396Y-40395000D01*
X158605000Y-38804009D02*
X158605000Y-39735991D01*
X157945991Y-38145000D02*
X158605000Y-38804009D01*
X141774009Y-38145000D02*
X157945991Y-38145000D01*
X129919009Y-50000000D02*
X141774009Y-38145000D01*
X107000000Y-50000000D02*
X129919009Y-50000000D01*
X106000000Y-51000000D02*
X107000000Y-50000000D01*
X158605000Y-39735991D02*
X157945991Y-40395000D01*
X105000000Y-63000000D02*
X106000000Y-62000000D01*
X96000000Y-63000000D02*
X105000000Y-63000000D01*
X91000000Y-58000000D02*
X96000000Y-63000000D01*
X91000000Y-36000000D02*
X91000000Y-58000000D01*
X107500000Y-36000000D02*
X91000000Y-36000000D01*
X106000000Y-62000000D02*
X106000000Y-51000000D01*
X109250000Y-34250000D02*
X107500000Y-36000000D01*
%TO.N,/PIN_4*%
X129260000Y-52250000D02*
X142240000Y-39270000D01*
X109250000Y-52250000D02*
X129260000Y-52250000D01*
%TO.N,/PIN_9*%
X197828833Y-53545000D02*
X143815000Y-53545000D01*
X205925000Y-45448833D02*
X197828833Y-53545000D01*
X143815000Y-53545000D02*
X142240000Y-51970000D01*
X207250000Y-42810000D02*
X205925000Y-44135000D01*
X205925000Y-44135000D02*
X205925000Y-45448833D01*
%TO.N,/PIN_7*%
X188149213Y-45765000D02*
X143365000Y-45765000D01*
X198250000Y-35664213D02*
X188149213Y-45765000D01*
X198250000Y-34250000D02*
X198250000Y-35664213D01*
X143365000Y-45765000D02*
X142240000Y-46890000D01*
%TO.N,/PIN_6*%
X143650000Y-44350000D02*
X142240000Y-44350000D01*
X159000000Y-43000000D02*
X145000000Y-43000000D01*
X160135000Y-44135000D02*
X159000000Y-43000000D01*
X187675000Y-44135000D02*
X160135000Y-44135000D01*
X189000000Y-42810000D02*
X187675000Y-44135000D01*
X145000000Y-43000000D02*
X143650000Y-44350000D01*
%TO.N,/PIN_8*%
X196405000Y-53095000D02*
X145905000Y-53095000D01*
X145905000Y-53095000D02*
X142240000Y-49430000D01*
X198250000Y-51250000D02*
X196405000Y-53095000D01*
%TO.N,VCC*%
X168200000Y-66160000D02*
X160750000Y-58710000D01*
X168200000Y-80315000D02*
X168200000Y-66160000D01*
X167025000Y-81490000D02*
X168200000Y-80315000D01*
%TO.N,/PIN_14*%
X156355000Y-48015000D02*
X157480000Y-46890000D01*
X141000000Y-48000000D02*
X141015000Y-48015000D01*
X141015000Y-48015000D02*
X156355000Y-48015000D01*
X141000000Y-48586167D02*
X141000000Y-48000000D01*
X100506167Y-89080000D02*
X141000000Y-48586167D01*
X95000000Y-89080000D02*
X100506167Y-89080000D01*
%TO.N,/PIN_A1*%
X156355000Y-40395000D02*
X157480000Y-39270000D01*
X142000000Y-40395000D02*
X156355000Y-40395000D01*
X99570000Y-82825000D02*
X142000000Y-40395000D01*
X93825000Y-83513299D02*
X94513299Y-82825000D01*
X94513299Y-82825000D02*
X99570000Y-82825000D01*
X93825000Y-85365000D02*
X93825000Y-83513299D01*
X95000000Y-86540000D02*
X93825000Y-85365000D01*
%TO.N,/PIN_A0*%
X145190000Y-41810000D02*
X157480000Y-41810000D01*
X144000000Y-43000000D02*
X145190000Y-41810000D01*
X141999009Y-43000000D02*
X144000000Y-43000000D01*
X100999009Y-84000000D02*
X141999009Y-43000000D01*
X95000000Y-84000000D02*
X100999009Y-84000000D01*
%TO.N,GND*%
X162770000Y-78950000D02*
X152400000Y-68580000D01*
X167025000Y-78950000D02*
X162770000Y-78950000D01*
%TD*%
M02*
