%TF.GenerationSoftware,KiCad,Pcbnew,(7.0.0)*%
%TF.CreationDate,2023-03-22T23:13:34-04:00*%
%TF.ProjectId,controller,636f6e74-726f-46c6-9c65-722e6b696361,rev?*%
%TF.SameCoordinates,Original*%
%TF.FileFunction,Copper,L1,Top*%
%TF.FilePolarity,Positive*%
%FSLAX46Y46*%
G04 Gerber Fmt 4.6, Leading zero omitted, Abs format (unit mm)*
G04 Created by KiCad (PCBNEW (7.0.0)) date 2023-03-22 23:13:34*
%MOMM*%
%LPD*%
G01*
G04 APERTURE LIST*
%TA.AperFunction,ComponentPad*%
%ADD10O,1.600000X1.600000*%
%TD*%
%TA.AperFunction,ComponentPad*%
%ADD11C,1.600000*%
%TD*%
%TA.AperFunction,ComponentPad*%
%ADD12C,2.000000*%
%TD*%
%TA.AperFunction,ComponentPad*%
%ADD13R,1.700000X1.700000*%
%TD*%
%TA.AperFunction,ComponentPad*%
%ADD14O,1.700000X1.700000*%
%TD*%
%TA.AperFunction,ComponentPad*%
%ADD15R,1.600000X1.600000*%
%TD*%
%TA.AperFunction,Conductor*%
%ADD16C,0.250000*%
%TD*%
G04 APERTURE END LIST*
D10*
%TO.P,R3,2*%
%TO.N,Net-(D_PAD_RIGHT1-Pad2)*%
X118999999Y-23919999D03*
D11*
%TO.P,R3,1*%
%TO.N,GND*%
X119000000Y-34080000D03*
%TD*%
D10*
%TO.P,R8,2*%
%TO.N,Net-(B_BUTTON1-Pad2)*%
X170839999Y-23919999D03*
D11*
%TO.P,R8,1*%
%TO.N,GND*%
X170840000Y-34080000D03*
%TD*%
D12*
%TO.P,PAUSE_BUTTON1,1*%
%TO.N,VCC*%
X160750000Y-58710000D03*
%TO.P,PAUSE_BUTTON1,2*%
%TO.N,Net-(PAUSE_BUTTON1-Pad2)*%
X160750000Y-63210000D03*
%TO.P,PAUSE_BUTTON1,3*%
%TO.N,unconnected-(PAUSE_BUTTON1-Pad3)*%
X167250000Y-58710000D03*
%TO.P,PAUSE_BUTTON1,4*%
%TO.N,/PIN_16*%
X167250000Y-63210000D03*
%TD*%
%TO.P,D_PAD_UP1,1*%
%TO.N,VCC*%
X102750000Y-29750000D03*
%TO.P,D_PAD_UP1,2*%
%TO.N,Net-(D_PAD_UP1-Pad2)*%
X102750000Y-34250000D03*
%TO.P,D_PAD_UP1,3*%
%TO.N,unconnected-(D_PAD_UP1-Pad3)*%
X109250000Y-29750000D03*
%TO.P,D_PAD_UP1,4*%
%TO.N,/PIN_5*%
X109250000Y-34250000D03*
%TD*%
D13*
%TO.P,JOYSTICK2,1,Pin_1*%
%TO.N,GND*%
X167024999Y-78949999D03*
D14*
%TO.P,JOYSTICK2,2,Pin_2*%
%TO.N,VCC*%
X167024999Y-81489999D03*
%TO.P,JOYSTICK2,3,Pin_3*%
%TO.N,/PIN_A2*%
X167024999Y-84029999D03*
%TO.P,JOYSTICK2,4,Pin_4*%
%TO.N,/PIN_A3*%
X167024999Y-86569999D03*
%TO.P,JOYSTICK2,5,Pin_5*%
%TO.N,/PIN_15*%
X167024999Y-89109999D03*
%TD*%
D15*
%TO.P,U1,1,TX*%
%TO.N,unconnected-(U1-TX-Pad1)*%
X142239999Y-24029999D03*
D11*
%TO.P,U1,2,RX*%
%TO.N,unconnected-(U1-RX-Pad2)*%
X142240000Y-26570000D03*
%TO.P,U1,3,GND*%
%TO.N,GND*%
X142240000Y-29110000D03*
%TO.P,U1,4,GND*%
X142240000Y-31650000D03*
%TO.P,U1,5,SDA*%
%TO.N,/PIN_2*%
X142240000Y-34190000D03*
%TO.P,U1,6,SCL*%
%TO.N,/PIN_3*%
X142240000Y-36730000D03*
%TO.P,U1,7,D4*%
%TO.N,/PIN_4*%
X142240000Y-39270000D03*
%TO.P,U1,8,C6*%
%TO.N,/PIN_5*%
X142240000Y-41810000D03*
%TO.P,U1,9,D7*%
%TO.N,/PIN_6*%
X142240000Y-44350000D03*
%TO.P,U1,10,E6*%
%TO.N,/PIN_7*%
X142240000Y-46890000D03*
%TO.P,U1,11,B4*%
%TO.N,/PIN_8*%
X142240000Y-49430000D03*
%TO.P,U1,12,B5*%
%TO.N,/PIN_9*%
X142240000Y-51970000D03*
%TO.P,U1,13,B6*%
%TO.N,/PIN_10*%
X157480000Y-51970000D03*
%TO.P,U1,14,B2*%
%TO.N,/PIN_16*%
X157480000Y-49430000D03*
%TO.P,U1,15,B3*%
%TO.N,/PIN_14*%
X157480000Y-46890000D03*
%TO.P,U1,16,B1*%
%TO.N,/PIN_15*%
X157480000Y-44350000D03*
%TO.P,U1,17,F7*%
%TO.N,/PIN_A0*%
X157480000Y-41810000D03*
%TO.P,U1,18,F6*%
%TO.N,/PIN_A1*%
X157480000Y-39270000D03*
%TO.P,U1,19,F5*%
%TO.N,/PIN_A2*%
X157480000Y-36730000D03*
%TO.P,U1,20,F4*%
%TO.N,/PIN_A3*%
X157480000Y-34190000D03*
%TO.P,U1,21,VCC*%
%TO.N,VCC*%
X157480000Y-31650000D03*
%TO.P,U1,22,RST*%
%TO.N,unconnected-(U1-RST-Pad22)*%
X157480000Y-29110000D03*
%TO.P,U1,23,GND*%
%TO.N,GND*%
X157480000Y-26570000D03*
%TO.P,U1,24,RAW*%
%TO.N,unconnected-(U1-RAW-Pad24)*%
X157480000Y-24030000D03*
%TD*%
D10*
%TO.P,R7,2*%
%TO.N,Net-(A_BUTTON1-Pad2)*%
X165759999Y-23919999D03*
D11*
%TO.P,R7,1*%
%TO.N,GND*%
X165760000Y-34080000D03*
%TD*%
D13*
%TO.P,JOYSTICK1,1,Pin_1*%
%TO.N,GND*%
X94999999Y-78919999D03*
D14*
%TO.P,JOYSTICK1,2,Pin_2*%
%TO.N,VCC*%
X94999999Y-81459999D03*
%TO.P,JOYSTICK1,3,Pin_3*%
%TO.N,/PIN_A0*%
X94999999Y-83999999D03*
%TO.P,JOYSTICK1,4,Pin_4*%
%TO.N,/PIN_A1*%
X94999999Y-86539999D03*
%TO.P,JOYSTICK1,5,Pin_5*%
%TO.N,/PIN_14*%
X94999999Y-89079999D03*
%TD*%
D12*
%TO.P,D_PAD_LEFT1,1*%
%TO.N,VCC*%
X93750000Y-38750000D03*
%TO.P,D_PAD_LEFT1,2*%
%TO.N,Net-(D_PAD_LEFT1-Pad2)*%
X93750000Y-43250000D03*
%TO.P,D_PAD_LEFT1,3*%
%TO.N,unconnected-(D_PAD_LEFT1-Pad3)*%
X100250000Y-38750000D03*
%TO.P,D_PAD_LEFT1,4*%
%TO.N,/PIN_3*%
X100250000Y-43250000D03*
%TD*%
D10*
%TO.P,R10,2*%
%TO.N,Net-(R10-Pad2)*%
X180999999Y-23919999D03*
D11*
%TO.P,R10,1*%
%TO.N,GND*%
X181000000Y-34080000D03*
%TD*%
D12*
%TO.P,Y_BUTTON1,1*%
%TO.N,VCC*%
X200750000Y-38310000D03*
%TO.P,Y_BUTTON1,2*%
%TO.N,Net-(R9-Pad2)*%
X200750000Y-42810000D03*
%TO.P,Y_BUTTON1,3*%
%TO.N,unconnected-(Y_BUTTON1-Pad3)*%
X207250000Y-38310000D03*
%TO.P,Y_BUTTON1,4*%
%TO.N,/PIN_9*%
X207250000Y-42810000D03*
%TD*%
D11*
%TO.P,R5,1*%
%TO.N,GND*%
X147320000Y-68580000D03*
D10*
%TO.P,R5,2*%
%TO.N,Net-(HOME_BUTTON1-Pad2)*%
X147319999Y-58419999D03*
%TD*%
D12*
%TO.P,D_PAD_RIGHT1,4*%
%TO.N,/PIN_2*%
X118250000Y-43250000D03*
%TO.P,D_PAD_RIGHT1,3*%
%TO.N,unconnected-(D_PAD_RIGHT1-Pad3)*%
X118250000Y-38750000D03*
%TO.P,D_PAD_RIGHT1,2*%
%TO.N,Net-(D_PAD_RIGHT1-Pad2)*%
X111750000Y-43250000D03*
%TO.P,D_PAD_RIGHT1,1*%
%TO.N,VCC*%
X111750000Y-38750000D03*
%TD*%
D11*
%TO.P,R6,1*%
%TO.N,GND*%
X152400000Y-68580000D03*
D10*
%TO.P,R6,2*%
%TO.N,Net-(PAUSE_BUTTON1-Pad2)*%
X152399999Y-58419999D03*
%TD*%
D12*
%TO.P,B_BUTTON1,1*%
%TO.N,VCC*%
X191750000Y-29750000D03*
%TO.P,B_BUTTON1,2*%
%TO.N,Net-(B_BUTTON1-Pad2)*%
X191750000Y-34250000D03*
%TO.P,B_BUTTON1,3*%
%TO.N,unconnected-(B_BUTTON1-Pad3)*%
X198250000Y-29750000D03*
%TO.P,B_BUTTON1,4*%
%TO.N,/PIN_7*%
X198250000Y-34250000D03*
%TD*%
%TO.P,A_BUTTON1,1*%
%TO.N,VCC*%
X182500000Y-38310000D03*
%TO.P,A_BUTTON1,2*%
%TO.N,Net-(A_BUTTON1-Pad2)*%
X182500000Y-42810000D03*
%TO.P,A_BUTTON1,3*%
%TO.N,unconnected-(A_BUTTON1-Pad3)*%
X189000000Y-38310000D03*
%TO.P,A_BUTTON1,4*%
%TO.N,/PIN_6*%
X189000000Y-42810000D03*
%TD*%
D10*
%TO.P,R2,2*%
%TO.N,Net-(D_PAD_UP1-Pad2)*%
X133999999Y-23839999D03*
D11*
%TO.P,R2,1*%
%TO.N,GND*%
X134000000Y-34000000D03*
%TD*%
D10*
%TO.P,R4,2*%
%TO.N,Net-(D_PAD_DOWN1-Pad2)*%
X128999999Y-23839999D03*
D11*
%TO.P,R4,1*%
%TO.N,GND*%
X129000000Y-34000000D03*
%TD*%
D12*
%TO.P,D_PAD_DOWN1,1*%
%TO.N,VCC*%
X102750000Y-47750000D03*
%TO.P,D_PAD_DOWN1,2*%
%TO.N,Net-(D_PAD_DOWN1-Pad2)*%
X102750000Y-52250000D03*
%TO.P,D_PAD_DOWN1,3*%
%TO.N,unconnected-(D_PAD_DOWN1-Pad3)*%
X109250000Y-47750000D03*
%TO.P,D_PAD_DOWN1,4*%
%TO.N,/PIN_4*%
X109250000Y-52250000D03*
%TD*%
D10*
%TO.P,R1,2*%
%TO.N,Net-(D_PAD_LEFT1-Pad2)*%
X123999999Y-23839999D03*
D11*
%TO.P,R1,1*%
%TO.N,GND*%
X124000000Y-34000000D03*
%TD*%
D10*
%TO.P,R9,2*%
%TO.N,Net-(R9-Pad2)*%
X175919999Y-23919999D03*
D11*
%TO.P,R9,1*%
%TO.N,GND*%
X175920000Y-34080000D03*
%TD*%
D12*
%TO.P,HOME_BUTTON1,4*%
%TO.N,/PIN_10*%
X139250000Y-63210000D03*
%TO.P,HOME_BUTTON1,3*%
%TO.N,unconnected-(HOME_BUTTON1-Pad3)*%
X139250000Y-58710000D03*
%TO.P,HOME_BUTTON1,2*%
%TO.N,Net-(HOME_BUTTON1-Pad2)*%
X132750000Y-63210000D03*
%TO.P,HOME_BUTTON1,1*%
%TO.N,VCC*%
X132750000Y-58710000D03*
%TD*%
%TO.P,X_BUTTON1,1*%
%TO.N,VCC*%
X191750000Y-46750000D03*
%TO.P,X_BUTTON1,2*%
%TO.N,Net-(R10-Pad2)*%
X191750000Y-51250000D03*
%TO.P,X_BUTTON1,3*%
%TO.N,unconnected-(X_BUTTON1-Pad3)*%
X198250000Y-46750000D03*
%TO.P,X_BUTTON1,4*%
%TO.N,/PIN_8*%
X198250000Y-51250000D03*
%TD*%
D16*
%TO.N,GND*%
X165760000Y-34080000D02*
X181000000Y-34080000D01*
%TO.N,VCC*%
X200310000Y-38310000D02*
X191750000Y-29750000D01*
X200750000Y-38310000D02*
X200310000Y-38310000D01*
X200190000Y-38310000D02*
X200750000Y-38310000D01*
X191750000Y-46750000D02*
X200190000Y-38310000D01*
X181175000Y-39635000D02*
X182500000Y-38310000D01*
X181175000Y-43358833D02*
X181175000Y-39635000D01*
X190391167Y-52575000D02*
X181175000Y-43358833D01*
X192298833Y-52575000D02*
X190391167Y-52575000D01*
X193075000Y-51798833D02*
X192298833Y-52575000D01*
X193075000Y-48075000D02*
X193075000Y-51798833D01*
X191750000Y-46750000D02*
X193075000Y-48075000D01*
%TO.N,Net-(R10-Pad2)*%
X183825000Y-43325000D02*
X191750000Y-51250000D01*
X183825000Y-26745000D02*
X183825000Y-43325000D01*
X181000000Y-23920000D02*
X183825000Y-26745000D01*
%TO.N,GND*%
X129000000Y-34000000D02*
X124000000Y-34000000D01*
%TO.N,VCC*%
X111750000Y-38750000D02*
X102750000Y-29750000D01*
X102750000Y-47750000D02*
X111750000Y-38750000D01*
X102750000Y-47750000D02*
X93750000Y-38750000D01*
X92425000Y-40075000D02*
X92425000Y-78885000D01*
X92425000Y-78885000D02*
X95000000Y-81460000D01*
X93750000Y-38750000D02*
X92425000Y-40075000D01*
X117545000Y-32955000D02*
X111750000Y-38750000D01*
X132750000Y-46239009D02*
X119465991Y-32955000D01*
X119465991Y-32955000D02*
X117545000Y-32955000D01*
X132750000Y-58710000D02*
X132750000Y-46239009D01*
%TO.N,Net-(PAUSE_BUTTON1-Pad2)*%
X155960000Y-58420000D02*
X160750000Y-63210000D01*
X152400000Y-58420000D02*
X155960000Y-58420000D01*
%TO.N,Net-(HOME_BUTTON1-Pad2)*%
X135925000Y-60035000D02*
X132750000Y-63210000D01*
X145705000Y-60035000D02*
X135925000Y-60035000D01*
X147320000Y-58420000D02*
X145705000Y-60035000D01*
%TO.N,GND*%
X147320000Y-68580000D02*
X152400000Y-68580000D01*
X120000000Y-60400002D02*
X119799999Y-60200001D01*
X120420000Y-68580000D02*
X120000000Y-69000000D01*
X147320000Y-68580000D02*
X120420000Y-68580000D01*
X120000000Y-69000000D02*
X120000000Y-60400002D01*
X119799999Y-60200001D02*
X119799999Y-34879999D01*
X119799999Y-34879999D02*
X119000000Y-34080000D01*
X101080000Y-78920000D02*
X119799999Y-60200001D01*
X95000000Y-78920000D02*
X101080000Y-78920000D01*
%TO.N,VCC*%
X137460000Y-54000000D02*
X132750000Y-58710000D01*
X150000000Y-54000000D02*
X137460000Y-54000000D01*
X161035000Y-35205000D02*
X179395000Y-35205000D01*
X157480000Y-31650000D02*
X161035000Y-35205000D01*
X179395000Y-35205000D02*
X182500000Y-38310000D01*
%TO.N,GND*%
X136350000Y-31650000D02*
X134000000Y-34000000D01*
X142240000Y-31650000D02*
X136350000Y-31650000D01*
X164990000Y-34080000D02*
X165760000Y-34080000D01*
X157480000Y-26570000D02*
X164990000Y-34080000D01*
X142240000Y-29110000D02*
X142240000Y-31650000D01*
X157480000Y-26570000D02*
X144780000Y-26570000D01*
X144780000Y-26570000D02*
X142240000Y-29110000D01*
%TO.N,/PIN_10*%
X140575000Y-64535000D02*
X139250000Y-63210000D01*
X167798833Y-64535000D02*
X140575000Y-64535000D01*
X168575000Y-63758833D02*
X167798833Y-64535000D01*
X168575000Y-62661167D02*
X168575000Y-63758833D01*
X164456917Y-58543084D02*
X168575000Y-62661167D01*
X164456917Y-54815926D02*
X164456917Y-58543084D01*
X157945991Y-48305000D02*
X164456917Y-54815926D01*
X157014009Y-48305000D02*
X157945991Y-48305000D01*
X156355000Y-48964009D02*
X157014009Y-48305000D01*
X156355000Y-50845000D02*
X156355000Y-48964009D01*
X157480000Y-51970000D02*
X156355000Y-50845000D01*
%TO.N,/PIN_16*%
X158605000Y-50555000D02*
X158605000Y-54565000D01*
X158605000Y-54565000D02*
X167250000Y-63210000D01*
X157480000Y-49430000D02*
X158605000Y-50555000D01*
%TO.N,VCC*%
X150000000Y-54000000D02*
X150000000Y-39130000D01*
X150315000Y-54315000D02*
X150000000Y-54000000D01*
X156355000Y-54315000D02*
X150315000Y-54315000D01*
X160750000Y-58710000D02*
X156355000Y-54315000D01*
X150000000Y-39130000D02*
X157480000Y-31650000D01*
%TO.N,/PIN_15*%
X163350000Y-44350000D02*
X157480000Y-44350000D01*
X170000000Y-51000000D02*
X163350000Y-44350000D01*
X170000000Y-78325000D02*
X170000000Y-51000000D01*
X168200000Y-80125000D02*
X170000000Y-78325000D01*
X166728299Y-80125000D02*
X168200000Y-80125000D01*
X165850000Y-81003299D02*
X166728299Y-80125000D01*
X165850000Y-87935000D02*
X165850000Y-81003299D01*
X167025000Y-89110000D02*
X165850000Y-87935000D01*
%TO.N,/PIN_A2*%
X170750000Y-50000000D02*
X157480000Y-36730000D01*
X171000000Y-50000000D02*
X170750000Y-50000000D01*
X171000000Y-80055000D02*
X171000000Y-50000000D01*
X167025000Y-84030000D02*
X171000000Y-80055000D01*
%TO.N,/PIN_A3*%
X173000000Y-49710000D02*
X157480000Y-34190000D01*
X173000000Y-54000000D02*
X173000000Y-49710000D01*
X173586167Y-80008833D02*
X173586167Y-54586167D01*
X173586167Y-54586167D02*
X173000000Y-54000000D01*
X167025000Y-86570000D02*
X173586167Y-80008833D01*
%TD*%
M02*
