<?xml version="1.0" standalone="no"?>
 <!DOCTYPE svg PUBLIC "-//W3C//DTD SVG 1.1//EN" 
 "http://www.w3.org/Graphics/SVG/1.1/DTD/svg11.dtd"> 
<svg
  xmlns:svg="http://www.w3.org/2000/svg"
  xmlns="http://www.w3.org/2000/svg"
  xmlns:xlink="http://www.w3.org/1999/xlink"
  version="1.1"
  width="124.8918mm" height="74.0918mm" viewBox="0.0000 0.0000 124.8918 74.0918">
<title>SVG Image created as controller-F_Courtyard.svg date 2023/03/29 12:04:45 </title>
  <desc>Image generated by PCBNEW </desc>
<g style="fill:#000000; fill-opacity:1.0000;stroke:#000000; stroke-opacity:1.0000;
stroke-linecap:round; stroke-linejoin:round;"
 transform="translate(0 0) scale(1 1)">
</g>
<g style="fill:#000000; fill-opacity:0.0; 
stroke:#000000; stroke-width:0.0000; stroke-opacity:1; 
stroke-linecap:round; stroke-linejoin:round;">
</g>
<g style="fill:#FF26E2; fill-opacity:0.0; 
stroke:#FF26E2; stroke-width:0.0000; stroke-opacity:1; 
stroke-linecap:round; stroke-linejoin:round;">
</g>
<g style="fill:#FF26E2; fill-opacity:0.0; 
stroke:#FF26E2; stroke-width:0.0500; stroke-opacity:1; 
stroke-linecap:round; stroke-linejoin:round;">
<path d="M30.3494 15.1800
L33.3494 15.1800
" />
<path d="M33.3494 15.1800
L33.3494 2.9200
" />
<path d="M30.3494 2.9200
L30.3494 15.1800
" />
<path d="M33.3494 2.9200
L30.3494 2.9200
" />
<path d="M82.1894 15.1800
L85.1894 15.1800
" />
<path d="M85.1894 15.1800
L85.1894 2.9200
" />
<path d="M82.1894 2.9200
L82.1894 15.1800
" />
<path d="M85.1894 2.9200
L82.1894 2.9200
" />
<path d="M72.0994 37.2600
L72.3494 37.2600
" />
<path d="M72.0994 37.5100
L72.0994 37.2600
" />
<path d="M72.0994 44.5100
L72.0994 37.5100
" />
<path d="M72.0994 44.5100
L72.0994 44.7600
" />
<path d="M72.0994 44.7600
L72.3494 44.7600
" />
<path d="M72.3494 37.2600
L81.3494 37.2600
" />
<path d="M81.3494 37.2600
L81.5994 37.2600
" />
<path d="M81.3494 44.7600
L72.3494 44.7600
" />
<path d="M81.3494 44.7600
L81.5994 44.7600
" />
<path d="M81.5994 37.2600
L81.5994 37.5100
" />
<path d="M81.5994 37.5100
L81.5994 44.5100
" />
<path d="M81.5994 44.7600
L81.5994 44.5100
" />
<path d="M14.0994 8.3000
L14.3494 8.3000
" />
<path d="M14.0994 8.5500
L14.0994 8.3000
" />
<path d="M14.0994 15.5500
L14.0994 8.5500
" />
<path d="M14.0994 15.5500
L14.0994 15.8000
" />
<path d="M14.0994 15.8000
L14.3494 15.8000
" />
<path d="M14.3494 8.3000
L23.3494 8.3000
" />
<path d="M23.3494 8.3000
L23.5994 8.3000
" />
<path d="M23.3494 15.8000
L14.3494 15.8000
" />
<path d="M23.3494 15.8000
L23.5994 15.8000
" />
<path d="M23.5994 8.3000
L23.5994 8.5500
" />
<path d="M23.5994 8.5500
L23.5994 15.5500
" />
<path d="M23.5994 15.8000
L23.5994 15.5500
" />
<path d="M78.0744 57.2000
L81.6244 57.2000
" />
<path d="M78.0744 70.9000
L78.0744 57.2000
" />
<path d="M81.6244 57.2000
L81.6244 70.9000
" />
<path d="M81.6244 70.9000
L78.0744 70.9000
" />
<path d="M77.1094 15.1800
L80.1094 15.1800
" />
<path d="M80.1094 15.1800
L80.1094 2.9200
" />
<path d="M77.1094 2.9200
L77.1094 15.1800
" />
<path d="M80.1094 2.9200
L77.1094 2.9200
" />
<path d="M6.0494 57.1700
L9.5994 57.1700
" />
<path d="M6.0494 70.8700
L6.0494 57.1700
" />
<path d="M9.5994 57.1700
L9.5994 70.8700
" />
<path d="M9.5994 70.8700
L6.0494 70.8700
" />
<path d="M5.0994 17.3000
L5.3494 17.3000
" />
<path d="M5.0994 17.5500
L5.0994 17.3000
" />
<path d="M5.0994 24.5500
L5.0994 17.5500
" />
<path d="M5.0994 24.5500
L5.0994 24.8000
" />
<path d="M5.0994 24.8000
L5.3494 24.8000
" />
<path d="M5.3494 17.3000
L14.3494 17.3000
" />
<path d="M14.3494 17.3000
L14.5994 17.3000
" />
<path d="M14.3494 24.8000
L5.3494 24.8000
" />
<path d="M14.3494 24.8000
L14.5994 24.8000
" />
<path d="M14.5994 17.3000
L14.5994 17.5500
" />
<path d="M14.5994 17.5500
L14.5994 24.5500
" />
<path d="M14.5994 24.8000
L14.5994 24.5500
" />
<path d="M92.3494 15.1800
L95.3494 15.1800
" />
<path d="M95.3494 15.1800
L95.3494 2.9200
" />
<path d="M92.3494 2.9200
L92.3494 15.1800
" />
<path d="M95.3494 2.9200
L92.3494 2.9200
" />
<path d="M112.0994 16.8600
L112.3494 16.8600
" />
<path d="M112.0994 17.1100
L112.0994 16.8600
" />
<path d="M112.0994 24.1100
L112.0994 17.1100
" />
<path d="M112.0994 24.1100
L112.0994 24.3600
" />
<path d="M112.0994 24.3600
L112.3494 24.3600
" />
<path d="M112.3494 16.8600
L121.3494 16.8600
" />
<path d="M121.3494 16.8600
L121.5994 16.8600
" />
<path d="M121.3494 24.3600
L112.3494 24.3600
" />
<path d="M121.3494 24.3600
L121.5994 24.3600
" />
<path d="M121.5994 16.8600
L121.5994 17.1100
" />
<path d="M121.5994 17.1100
L121.5994 24.1100
" />
<path d="M121.5994 24.3600
L121.5994 24.1100
" />
<path d="M58.6694 49.6800
L61.6694 49.6800
" />
<path d="M61.6694 49.6800
L61.6694 37.4200
" />
<path d="M58.6694 37.4200
L58.6694 49.6800
" />
<path d="M61.6694 37.4200
L58.6694 37.4200
" />
<path d="M23.0994 17.3000
L23.3494 17.3000
" />
<path d="M23.0994 17.5500
L23.0994 17.3000
" />
<path d="M23.0994 24.5500
L23.0994 17.5500
" />
<path d="M23.0994 24.5500
L23.0994 24.8000
" />
<path d="M23.0994 24.8000
L23.3494 24.8000
" />
<path d="M23.3494 17.3000
L32.3494 17.3000
" />
<path d="M32.3494 17.3000
L32.5994 17.3000
" />
<path d="M32.3494 24.8000
L23.3494 24.8000
" />
<path d="M32.3494 24.8000
L32.5994 24.8000
" />
<path d="M32.5994 17.3000
L32.5994 17.5500
" />
<path d="M32.5994 17.5500
L32.5994 24.5500
" />
<path d="M32.5994 24.8000
L32.5994 24.5500
" />
<path d="M63.7494 49.6800
L66.7494 49.6800
" />
<path d="M66.7494 49.6800
L66.7494 37.4200
" />
<path d="M63.7494 37.4200
L63.7494 49.6800
" />
<path d="M66.7494 37.4200
L63.7494 37.4200
" />
<path d="M103.0994 8.3000
L103.3494 8.3000
" />
<path d="M103.0994 8.5500
L103.0994 8.3000
" />
<path d="M103.0994 15.5500
L103.0994 8.5500
" />
<path d="M103.0994 15.5500
L103.0994 15.8000
" />
<path d="M103.0994 15.8000
L103.3494 15.8000
" />
<path d="M103.3494 8.3000
L112.3494 8.3000
" />
<path d="M112.3494 8.3000
L112.5994 8.3000
" />
<path d="M112.3494 15.8000
L103.3494 15.8000
" />
<path d="M112.3494 15.8000
L112.5994 15.8000
" />
<path d="M112.5994 8.3000
L112.5994 8.5500
" />
<path d="M112.5994 8.5500
L112.5994 15.5500
" />
<path d="M112.5994 15.8000
L112.5994 15.5500
" />
<path d="M93.8494 16.8600
L94.0994 16.8600
" />
<path d="M93.8494 17.1100
L93.8494 16.8600
" />
<path d="M93.8494 24.1100
L93.8494 17.1100
" />
<path d="M93.8494 24.1100
L93.8494 24.3600
" />
<path d="M93.8494 24.3600
L94.0994 24.3600
" />
<path d="M94.0994 16.8600
L103.0994 16.8600
" />
<path d="M103.0994 16.8600
L103.3494 16.8600
" />
<path d="M103.0994 24.3600
L94.0994 24.3600
" />
<path d="M103.0994 24.3600
L103.3494 24.3600
" />
<path d="M103.3494 16.8600
L103.3494 17.1100
" />
<path d="M103.3494 17.1100
L103.3494 24.1100
" />
<path d="M103.3494 24.3600
L103.3494 24.1100
" />
<path d="M45.3494 15.1000
L48.3494 15.1000
" />
<path d="M48.3494 15.1000
L48.3494 2.8400
" />
<path d="M45.3494 2.8400
L45.3494 15.1000
" />
<path d="M48.3494 2.8400
L45.3494 2.8400
" />
<path d="M40.3494 15.1000
L43.3494 15.1000
" />
<path d="M43.3494 15.1000
L43.3494 2.8400
" />
<path d="M40.3494 2.8400
L40.3494 15.1000
" />
<path d="M43.3494 2.8400
L40.3494 2.8400
" />
<path d="M14.0994 26.3000
L14.3494 26.3000
" />
<path d="M14.0994 26.5500
L14.0994 26.3000
" />
<path d="M14.0994 33.5500
L14.0994 26.5500
" />
<path d="M14.0994 33.5500
L14.0994 33.8000
" />
<path d="M14.0994 33.8000
L14.3494 33.8000
" />
<path d="M14.3494 26.3000
L23.3494 26.3000
" />
<path d="M23.3494 26.3000
L23.5994 26.3000
" />
<path d="M23.3494 33.8000
L14.3494 33.8000
" />
<path d="M23.3494 33.8000
L23.5994 33.8000
" />
<path d="M23.5994 26.3000
L23.5994 26.5500
" />
<path d="M23.5994 26.5500
L23.5994 33.5500
" />
<path d="M23.5994 33.8000
L23.5994 33.5500
" />
<path d="M35.3494 15.1000
L38.3494 15.1000
" />
<path d="M38.3494 15.1000
L38.3494 2.8400
" />
<path d="M35.3494 2.8400
L35.3494 15.1000
" />
<path d="M38.3494 2.8400
L35.3494 2.8400
" />
<path d="M87.2694 15.1800
L90.2694 15.1800
" />
<path d="M90.2694 15.1800
L90.2694 2.9200
" />
<path d="M87.2694 2.9200
L87.2694 15.1800
" />
<path d="M90.2694 2.9200
L87.2694 2.9200
" />
<path d="M44.0994 37.2600
L44.3494 37.2600
" />
<path d="M44.0994 37.5100
L44.0994 37.2600
" />
<path d="M44.0994 44.5100
L44.0994 37.5100
" />
<path d="M44.0994 44.5100
L44.0994 44.7600
" />
<path d="M44.0994 44.7600
L44.3494 44.7600
" />
<path d="M44.3494 37.2600
L53.3494 37.2600
" />
<path d="M53.3494 37.2600
L53.5994 37.2600
" />
<path d="M53.3494 44.7600
L44.3494 44.7600
" />
<path d="M53.3494 44.7600
L53.5994 44.7600
" />
<path d="M53.5994 37.2600
L53.5994 37.5100
" />
<path d="M53.5994 37.5100
L53.5994 44.5100
" />
<path d="M53.5994 44.7600
L53.5994 44.5100
" />
<path d="M103.0994 25.3000
L103.3494 25.3000
" />
<path d="M103.0994 25.5500
L103.0994 25.3000
" />
<path d="M103.0994 32.5500
L103.0994 25.5500
" />
<path d="M103.0994 32.5500
L103.0994 32.8000
" />
<path d="M103.0994 32.8000
L103.3494 32.8000
" />
<path d="M103.3494 25.3000
L112.3494 25.3000
" />
<path d="M112.3494 25.3000
L112.5994 25.3000
" />
<path d="M112.3494 32.8000
L103.3494 32.8000
" />
<path d="M112.3494 32.8000
L112.5994 32.8000
" />
<path d="M112.5994 25.3000
L112.5994 25.5500
" />
<path d="M112.5994 25.5500
L112.5994 32.5500
" />
<path d="M112.5994 32.8000
L112.5994 32.5500
" />
<g >
</g>
<g >
</g>
<g >
</g>
<g >
</g>
<g >
</g>
<g >
</g>
<g >
</g>
<g >
</g>
<g >
</g>
<g >
</g>
<g >
</g>
<g >
</g>
<g >
</g>
<g >
</g>
<g >
</g>
<g >
</g>
<g >
</g>
<g >
</g>
<g >
</g>
<g >
</g>
<g >
</g>
<g >
</g>
<g >
</g>
<g >
</g>
<g >
</g>
<g >
</g>
</g>
<g style="fill:#000000; fill-opacity:0.0; 
stroke:#000000; stroke-width:0.0500; stroke-opacity:1; 
stroke-linecap:round; stroke-linejoin:round;">
</g>
<g style="fill:#D0D2CD; fill-opacity:0.0; 
stroke:#D0D2CD; stroke-width:0.0500; stroke-opacity:1; 
stroke-linecap:round; stroke-linejoin:round;">
</g>
<g style="fill:#D0D2CD; fill-opacity:0.0; 
stroke:#D0D2CD; stroke-width:0.1000; stroke-opacity:1; 
stroke-linecap:round; stroke-linejoin:round;">
<path d="M1.8494 0.0500
L124.8494 0.0500
" />
<path d="M124.8494 0.0500
L124.8494 74.0500
" />
<path d="M124.8494 74.0500
L1.8494 74.0500
" />
<path d="M1.8494 74.0500
L1.8494 0.0500
" />
<g >
</g>
<g >
</g>
<g >
</g>
<g >
</g>
<g >
</g>
<g >
</g>
<g >
</g>
<g >
</g>
<g >
</g>
<g >
</g>
<g >
</g>
<g >
</g>
<g >
</g>
<g >
</g>
<g >
</g>
<g >
</g>
<g >
</g>
<g >
</g>
<g >
</g>
<g >
</g>
<g >
</g>
<g >
</g>
<g >
</g>
<g >
</g>
<g >
</g>
<g >
</g>
</g> 
</svg>
