<?xml version="1.0" standalone="no"?>
 <!DOCTYPE svg PUBLIC "-//W3C//DTD SVG 1.1//EN" 
 "http://www.w3.org/Graphics/SVG/1.1/DTD/svg11.dtd"> 
<svg
  xmlns:svg="http://www.w3.org/2000/svg"
  xmlns="http://www.w3.org/2000/svg"
  xmlns:xlink="http://www.w3.org/1999/xlink"
  version="1.1"
  width="124.8918mm" height="74.0918mm" viewBox="0.0000 0.0000 124.8918 74.0918">
<title>SVG Image created as controller-F_Silkscreen.svg date 2023/03/29 12:04:45 </title>
  <desc>Image generated by PCBNEW </desc>
<g style="fill:#000000; fill-opacity:1.0000;stroke:#000000; stroke-opacity:1.0000;
stroke-linecap:round; stroke-linejoin:round;"
 transform="translate(0 0) scale(1 1)">
</g>
<g style="fill:#000000; fill-opacity:0.0; 
stroke:#000000; stroke-width:0.0000; stroke-opacity:1; 
stroke-linecap:round; stroke-linejoin:round;">
</g>
<g style="fill:#F2EDA1; fill-opacity:0.0; 
stroke:#F2EDA1; stroke-width:0.0000; stroke-opacity:1; 
stroke-linecap:round; stroke-linejoin:round;">
</g>
<g style="fill:#F2EDA1; fill-opacity:0.0; 
stroke:#F2EDA1; stroke-width:0.1500; stroke-opacity:1; 
stroke-linecap:round; stroke-linejoin:round;">
<g transform="rotate(-90.000000 29.4794 9.0500)">
<text x="29.4794" y="9.5500"
textLength="2.1274" font-size="1.3333" lengthAdjust="spacingAndGlyphs"
text-anchor="middle" opacity="0">R3</text>
</g>
<g class="stroked-text"><desc>R3</desc>
<path d="M29.8468 9.2167
L29.3706 9.5500
" />
<path d="M29.8468 9.7881
L28.8468 9.7881
" />
<path d="M28.8468 9.7881
L28.8468 9.4071
" />
<path d="M28.8468 9.4071
L28.8944 9.3119
" />
<path d="M28.8944 9.3119
L28.9420 9.2643
" />
<path d="M28.9420 9.2643
L29.0373 9.2167
" />
<path d="M29.0373 9.2167
L29.1801 9.2167
" />
<path d="M29.1801 9.2167
L29.2754 9.2643
" />
<path d="M29.2754 9.2643
L29.3230 9.3119
" />
<path d="M29.3230 9.3119
L29.3706 9.4071
" />
<path d="M29.3706 9.4071
L29.3706 9.7881
" />
<path d="M28.8468 8.8833
L28.8468 8.2643
" />
<path d="M28.8468 8.2643
L29.2277 8.5976
" />
<path d="M29.2277 8.5976
L29.2277 8.4548
" />
<path d="M29.2277 8.4548
L29.2754 8.3595
" />
<path d="M29.2754 8.3595
L29.3230 8.3119
" />
<path d="M29.3230 8.3119
L29.4182 8.2643
" />
<path d="M29.4182 8.2643
L29.6563 8.2643
" />
<path d="M29.6563 8.2643
L29.7515 8.3119
" />
<path d="M29.7515 8.3119
L29.7992 8.3595
" />
<path d="M29.7992 8.3595
L29.8468 8.4548
" />
<path d="M29.8468 8.4548
L29.8468 8.7405
" />
<path d="M29.8468 8.7405
L29.7992 8.8357
" />
<path d="M29.7992 8.8357
L29.7515 8.8833
" />
</g><g transform="rotate(-90.000000 81.3194 9.0500)">
<text x="81.3194" y="9.5500"
textLength="2.1274" font-size="1.3333" lengthAdjust="spacingAndGlyphs"
text-anchor="middle" opacity="0">R8</text>
</g>
<g class="stroked-text"><desc>R8</desc>
<path d="M81.6868 9.2167
L81.2106 9.5500
" />
<path d="M81.6868 9.7881
L80.6868 9.7881
" />
<path d="M80.6868 9.7881
L80.6868 9.4071
" />
<path d="M80.6868 9.4071
L80.7344 9.3119
" />
<path d="M80.7344 9.3119
L80.7820 9.2643
" />
<path d="M80.7820 9.2643
L80.8773 9.2167
" />
<path d="M80.8773 9.2167
L81.0201 9.2167
" />
<path d="M81.0201 9.2167
L81.1154 9.2643
" />
<path d="M81.1154 9.2643
L81.1630 9.3119
" />
<path d="M81.1630 9.3119
L81.2106 9.4071
" />
<path d="M81.2106 9.4071
L81.2106 9.7881
" />
<path d="M81.1154 8.6452
L81.0677 8.7405
" />
<path d="M81.0677 8.7405
L81.0201 8.7881
" />
<path d="M81.0201 8.7881
L80.9249 8.8357
" />
<path d="M80.9249 8.8357
L80.8773 8.8357
" />
<path d="M80.8773 8.8357
L80.7820 8.7881
" />
<path d="M80.7820 8.7881
L80.7344 8.7405
" />
<path d="M80.7344 8.7405
L80.6868 8.6452
" />
<path d="M80.6868 8.6452
L80.6868 8.4548
" />
<path d="M80.6868 8.4548
L80.7344 8.3595
" />
<path d="M80.7344 8.3595
L80.7820 8.3119
" />
<path d="M80.7820 8.3119
L80.8773 8.2643
" />
<path d="M80.8773 8.2643
L80.9249 8.2643
" />
<path d="M80.9249 8.2643
L81.0201 8.3119
" />
<path d="M81.0201 8.3119
L81.0677 8.3595
" />
<path d="M81.0677 8.3595
L81.1154 8.4548
" />
<path d="M81.1154 8.4548
L81.1154 8.6452
" />
<path d="M81.1154 8.6452
L81.1630 8.7405
" />
<path d="M81.1630 8.7405
L81.2106 8.7881
" />
<path d="M81.2106 8.7881
L81.3058 8.8357
" />
<path d="M81.3058 8.8357
L81.4963 8.8357
" />
<path d="M81.4963 8.8357
L81.5915 8.7881
" />
<path d="M81.5915 8.7881
L81.6392 8.7405
" />
<path d="M81.6392 8.7405
L81.6868 8.6452
" />
<path d="M81.6868 8.6452
L81.6868 8.4548
" />
<path d="M81.6868 8.4548
L81.6392 8.3595
" />
<path d="M81.6392 8.3595
L81.5915 8.3119
" />
<path d="M81.5915 8.3119
L81.4963 8.2643
" />
<path d="M81.4963 8.2643
L81.3058 8.2643
" />
<path d="M81.3058 8.2643
L81.2106 8.3119
" />
<path d="M81.2106 8.3119
L81.1630 8.3595
" />
<path d="M81.1630 8.3595
L81.1154 8.4548
" />
</g><text x="76.8494" y="37.2600"
textLength="12.3179" font-size="1.3333" lengthAdjust="spacingAndGlyphs"
text-anchor="middle" opacity="0">PAUSE_BUTTON1</text>
<g class="stroked-text"><desc>PAUSE_BUTTON1</desc>
<path d="M71.0161 37.1274
L71.0161 36.1274
" />
<path d="M71.0161 36.1274
L71.3970 36.1274
" />
<path d="M71.3970 36.1274
L71.4923 36.1750
" />
<path d="M71.4923 36.1750
L71.5399 36.2226
" />
<path d="M71.5399 36.2226
L71.5875 36.3179
" />
<path d="M71.5875 36.3179
L71.5875 36.4607
" />
<path d="M71.5875 36.4607
L71.5399 36.5560
" />
<path d="M71.5399 36.5560
L71.4923 36.6036
" />
<path d="M71.4923 36.6036
L71.3970 36.6512
" />
<path d="M71.3970 36.6512
L71.0161 36.6512
" />
<path d="M71.9685 36.8417
L72.4446 36.8417
" />
<path d="M71.8732 37.1274
L72.2065 36.1274
" />
<path d="M72.2065 36.1274
L72.5399 37.1274
" />
<path d="M72.8732 36.1274
L72.8732 36.9369
" />
<path d="M72.8732 36.9369
L72.9208 37.0321
" />
<path d="M72.9208 37.0321
L72.9685 37.0798
" />
<path d="M72.9685 37.0798
L73.0637 37.1274
" />
<path d="M73.0637 37.1274
L73.2542 37.1274
" />
<path d="M73.2542 37.1274
L73.3494 37.0798
" />
<path d="M73.3494 37.0798
L73.3970 37.0321
" />
<path d="M73.3970 37.0321
L73.4446 36.9369
" />
<path d="M73.4446 36.9369
L73.4446 36.1274
" />
<path d="M73.8732 37.0798
L74.0161 37.1274
" />
<path d="M74.0161 37.1274
L74.2542 37.1274
" />
<path d="M74.2542 37.1274
L74.3494 37.0798
" />
<path d="M74.3494 37.0798
L74.3970 37.0321
" />
<path d="M74.3970 37.0321
L74.4446 36.9369
" />
<path d="M74.4446 36.9369
L74.4446 36.8417
" />
<path d="M74.4446 36.8417
L74.3970 36.7464
" />
<path d="M74.3970 36.7464
L74.3494 36.6988
" />
<path d="M74.3494 36.6988
L74.2542 36.6512
" />
<path d="M74.2542 36.6512
L74.0637 36.6036
" />
<path d="M74.0637 36.6036
L73.9685 36.5560
" />
<path d="M73.9685 36.5560
L73.9208 36.5083
" />
<path d="M73.9208 36.5083
L73.8732 36.4131
" />
<path d="M73.8732 36.4131
L73.8732 36.3179
" />
<path d="M73.8732 36.3179
L73.9208 36.2226
" />
<path d="M73.9208 36.2226
L73.9685 36.1750
" />
<path d="M73.9685 36.1750
L74.0637 36.1274
" />
<path d="M74.0637 36.1274
L74.3018 36.1274
" />
<path d="M74.3018 36.1274
L74.4446 36.1750
" />
<path d="M74.8732 36.6036
L75.2065 36.6036
" />
<path d="M75.3494 37.1274
L74.8732 37.1274
" />
<path d="M74.8732 37.1274
L74.8732 36.1274
" />
<path d="M74.8732 36.1274
L75.3494 36.1274
" />
<path d="M75.5399 37.2226
L76.3018 37.2226
" />
<path d="M76.8732 36.6036
L77.0161 36.6512
" />
<path d="M77.0161 36.6512
L77.0637 36.6988
" />
<path d="M77.0637 36.6988
L77.1113 36.7940
" />
<path d="M77.1113 36.7940
L77.1113 36.9369
" />
<path d="M77.1113 36.9369
L77.0637 37.0321
" />
<path d="M77.0637 37.0321
L77.0161 37.0798
" />
<path d="M77.0161 37.0798
L76.9208 37.1274
" />
<path d="M76.9208 37.1274
L76.5399 37.1274
" />
<path d="M76.5399 37.1274
L76.5399 36.1274
" />
<path d="M76.5399 36.1274
L76.8732 36.1274
" />
<path d="M76.8732 36.1274
L76.9685 36.1750
" />
<path d="M76.9685 36.1750
L77.0161 36.2226
" />
<path d="M77.0161 36.2226
L77.0637 36.3179
" />
<path d="M77.0637 36.3179
L77.0637 36.4131
" />
<path d="M77.0637 36.4131
L77.0161 36.5083
" />
<path d="M77.0161 36.5083
L76.9685 36.5560
" />
<path d="M76.9685 36.5560
L76.8732 36.6036
" />
<path d="M76.8732 36.6036
L76.5399 36.6036
" />
<path d="M77.5399 36.1274
L77.5399 36.9369
" />
<path d="M77.5399 36.9369
L77.5875 37.0321
" />
<path d="M77.5875 37.0321
L77.6351 37.0798
" />
<path d="M77.6351 37.0798
L77.7304 37.1274
" />
<path d="M77.7304 37.1274
L77.9208 37.1274
" />
<path d="M77.9208 37.1274
L78.0161 37.0798
" />
<path d="M78.0161 37.0798
L78.0637 37.0321
" />
<path d="M78.0637 37.0321
L78.1113 36.9369
" />
<path d="M78.1113 36.9369
L78.1113 36.1274
" />
<path d="M78.4446 36.1274
L79.0161 36.1274
" />
<path d="M78.7304 37.1274
L78.7304 36.1274
" />
<path d="M79.2065 36.1274
L79.7780 36.1274
" />
<path d="M79.4923 37.1274
L79.4923 36.1274
" />
<path d="M80.3018 36.1274
L80.4923 36.1274
" />
<path d="M80.4923 36.1274
L80.5875 36.1750
" />
<path d="M80.5875 36.1750
L80.6827 36.2702
" />
<path d="M80.6827 36.2702
L80.7304 36.4607
" />
<path d="M80.7304 36.4607
L80.7304 36.7940
" />
<path d="M80.7304 36.7940
L80.6827 36.9845
" />
<path d="M80.6827 36.9845
L80.5875 37.0798
" />
<path d="M80.5875 37.0798
L80.4923 37.1274
" />
<path d="M80.4923 37.1274
L80.3018 37.1274
" />
<path d="M80.3018 37.1274
L80.2065 37.0798
" />
<path d="M80.2065 37.0798
L80.1113 36.9845
" />
<path d="M80.1113 36.9845
L80.0637 36.7940
" />
<path d="M80.0637 36.7940
L80.0637 36.4607
" />
<path d="M80.0637 36.4607
L80.1113 36.2702
" />
<path d="M80.1113 36.2702
L80.2065 36.1750
" />
<path d="M80.2065 36.1750
L80.3018 36.1274
" />
<path d="M81.1589 37.1274
L81.1589 36.1274
" />
<path d="M81.1589 36.1274
L81.7304 37.1274
" />
<path d="M81.7304 37.1274
L81.7304 36.1274
" />
<path d="M82.7304 37.1274
L82.1589 37.1274
" />
<path d="M82.4446 37.1274
L82.4446 36.1274
" />
<path d="M82.4446 36.1274
L82.3494 36.2702
" />
<path d="M82.3494 36.2702
L82.2542 36.3655
" />
<path d="M82.2542 36.3655
L82.1589 36.4131
" />
</g><text x="18.8494" y="8.3000"
textLength="8.5560" font-size="1.3333" lengthAdjust="spacingAndGlyphs"
text-anchor="middle" opacity="0">D_PAD_UP1</text>
<g class="stroked-text"><desc>D_PAD_UP1</desc>
<path d="M14.8970 8.1674
L14.8970 7.1674
" />
<path d="M14.8970 7.1674
L15.1351 7.1674
" />
<path d="M15.1351 7.1674
L15.2780 7.2150
" />
<path d="M15.2780 7.2150
L15.3732 7.3102
" />
<path d="M15.3732 7.3102
L15.4208 7.4055
" />
<path d="M15.4208 7.4055
L15.4685 7.5960
" />
<path d="M15.4685 7.5960
L15.4685 7.7388
" />
<path d="M15.4685 7.7388
L15.4208 7.9293
" />
<path d="M15.4208 7.9293
L15.3732 8.0245
" />
<path d="M15.3732 8.0245
L15.2780 8.1198
" />
<path d="M15.2780 8.1198
L15.1351 8.1674
" />
<path d="M15.1351 8.1674
L14.8970 8.1674
" />
<path d="M15.6589 8.2626
L16.4208 8.2626
" />
<path d="M16.6589 8.1674
L16.6589 7.1674
" />
<path d="M16.6589 7.1674
L17.0399 7.1674
" />
<path d="M17.0399 7.1674
L17.1351 7.2150
" />
<path d="M17.1351 7.2150
L17.1827 7.2626
" />
<path d="M17.1827 7.2626
L17.2304 7.3579
" />
<path d="M17.2304 7.3579
L17.2304 7.5007
" />
<path d="M17.2304 7.5007
L17.1827 7.5960
" />
<path d="M17.1827 7.5960
L17.1351 7.6436
" />
<path d="M17.1351 7.6436
L17.0399 7.6912
" />
<path d="M17.0399 7.6912
L16.6589 7.6912
" />
<path d="M17.6113 7.8817
L18.0875 7.8817
" />
<path d="M17.5161 8.1674
L17.8494 7.1674
" />
<path d="M17.8494 7.1674
L18.1827 8.1674
" />
<path d="M18.5161 8.1674
L18.5161 7.1674
" />
<path d="M18.5161 7.1674
L18.7542 7.1674
" />
<path d="M18.7542 7.1674
L18.8970 7.2150
" />
<path d="M18.8970 7.2150
L18.9923 7.3102
" />
<path d="M18.9923 7.3102
L19.0399 7.4055
" />
<path d="M19.0399 7.4055
L19.0875 7.5960
" />
<path d="M19.0875 7.5960
L19.0875 7.7388
" />
<path d="M19.0875 7.7388
L19.0399 7.9293
" />
<path d="M19.0399 7.9293
L18.9923 8.0245
" />
<path d="M18.9923 8.0245
L18.8970 8.1198
" />
<path d="M18.8970 8.1198
L18.7542 8.1674
" />
<path d="M18.7542 8.1674
L18.5161 8.1674
" />
<path d="M19.2780 8.2626
L20.0399 8.2626
" />
<path d="M20.2780 7.1674
L20.2780 7.9769
" />
<path d="M20.2780 7.9769
L20.3256 8.0721
" />
<path d="M20.3256 8.0721
L20.3732 8.1198
" />
<path d="M20.3732 8.1198
L20.4685 8.1674
" />
<path d="M20.4685 8.1674
L20.6589 8.1674
" />
<path d="M20.6589 8.1674
L20.7542 8.1198
" />
<path d="M20.7542 8.1198
L20.8018 8.0721
" />
<path d="M20.8018 8.0721
L20.8494 7.9769
" />
<path d="M20.8494 7.9769
L20.8494 7.1674
" />
<path d="M21.3256 8.1674
L21.3256 7.1674
" />
<path d="M21.3256 7.1674
L21.7065 7.1674
" />
<path d="M21.7065 7.1674
L21.8018 7.2150
" />
<path d="M21.8018 7.2150
L21.8494 7.2626
" />
<path d="M21.8494 7.2626
L21.8970 7.3579
" />
<path d="M21.8970 7.3579
L21.8970 7.5007
" />
<path d="M21.8970 7.5007
L21.8494 7.5960
" />
<path d="M21.8494 7.5960
L21.8018 7.6436
" />
<path d="M21.8018 7.6436
L21.7065 7.6912
" />
<path d="M21.7065 7.6912
L21.3256 7.6912
" />
<path d="M22.8494 8.1674
L22.2780 8.1674
" />
<path d="M22.5637 8.1674
L22.5637 7.1674
" />
<path d="M22.5637 7.1674
L22.4685 7.3102
" />
<path d="M22.4685 7.3102
L22.3732 7.4055
" />
<path d="M22.3732 7.4055
L22.2780 7.4531
" />
</g><text x="79.8744" y="56.7300"
textLength="7.9845" font-size="1.3333" lengthAdjust="spacingAndGlyphs"
text-anchor="middle" opacity="0">JOYSTICK2</text>
<g class="stroked-text"><desc>JOYSTICK2</desc>
<path d="M76.4935 55.5974
L76.4935 56.3117
" />
<path d="M76.4935 56.3117
L76.4458 56.4545
" />
<path d="M76.4458 56.4545
L76.3506 56.5498
" />
<path d="M76.3506 56.5498
L76.2077 56.5974
" />
<path d="M76.2077 56.5974
L76.1125 56.5974
" />
<path d="M77.1601 55.5974
L77.3506 55.5974
" />
<path d="M77.3506 55.5974
L77.4458 55.6450
" />
<path d="M77.4458 55.6450
L77.5411 55.7402
" />
<path d="M77.5411 55.7402
L77.5887 55.9307
" />
<path d="M77.5887 55.9307
L77.5887 56.2640
" />
<path d="M77.5887 56.2640
L77.5411 56.4545
" />
<path d="M77.5411 56.4545
L77.4458 56.5498
" />
<path d="M77.4458 56.5498
L77.3506 56.5974
" />
<path d="M77.3506 56.5974
L77.1601 56.5974
" />
<path d="M77.1601 56.5974
L77.0649 56.5498
" />
<path d="M77.0649 56.5498
L76.9696 56.4545
" />
<path d="M76.9696 56.4545
L76.9220 56.2640
" />
<path d="M76.9220 56.2640
L76.9220 55.9307
" />
<path d="M76.9220 55.9307
L76.9696 55.7402
" />
<path d="M76.9696 55.7402
L77.0649 55.6450
" />
<path d="M77.0649 55.6450
L77.1601 55.5974
" />
<path d="M78.2077 56.1212
L78.2077 56.5974
" />
<path d="M77.8744 55.5974
L78.2077 56.1212
" />
<path d="M78.2077 56.1212
L78.5411 55.5974
" />
<path d="M78.8268 56.5498
L78.9696 56.5974
" />
<path d="M78.9696 56.5974
L79.2077 56.5974
" />
<path d="M79.2077 56.5974
L79.3030 56.5498
" />
<path d="M79.3030 56.5498
L79.3506 56.5021
" />
<path d="M79.3506 56.5021
L79.3982 56.4069
" />
<path d="M79.3982 56.4069
L79.3982 56.3117
" />
<path d="M79.3982 56.3117
L79.3506 56.2164
" />
<path d="M79.3506 56.2164
L79.3030 56.1688
" />
<path d="M79.3030 56.1688
L79.2077 56.1212
" />
<path d="M79.2077 56.1212
L79.0173 56.0736
" />
<path d="M79.0173 56.0736
L78.9220 56.0260
" />
<path d="M78.9220 56.0260
L78.8744 55.9783
" />
<path d="M78.8744 55.9783
L78.8268 55.8831
" />
<path d="M78.8268 55.8831
L78.8268 55.7879
" />
<path d="M78.8268 55.7879
L78.8744 55.6926
" />
<path d="M78.8744 55.6926
L78.9220 55.6450
" />
<path d="M78.9220 55.6450
L79.0173 55.5974
" />
<path d="M79.0173 55.5974
L79.2554 55.5974
" />
<path d="M79.2554 55.5974
L79.3982 55.6450
" />
<path d="M79.6839 55.5974
L80.2554 55.5974
" />
<path d="M79.9696 56.5974
L79.9696 55.5974
" />
<path d="M80.5887 56.5974
L80.5887 55.5974
" />
<path d="M81.6363 56.5021
L81.5887 56.5498
" />
<path d="M81.5887 56.5498
L81.4458 56.5974
" />
<path d="M81.4458 56.5974
L81.3506 56.5974
" />
<path d="M81.3506 56.5974
L81.2077 56.5498
" />
<path d="M81.2077 56.5498
L81.1125 56.4545
" />
<path d="M81.1125 56.4545
L81.0649 56.3593
" />
<path d="M81.0649 56.3593
L81.0173 56.1688
" />
<path d="M81.0173 56.1688
L81.0173 56.0260
" />
<path d="M81.0173 56.0260
L81.0649 55.8355
" />
<path d="M81.0649 55.8355
L81.1125 55.7402
" />
<path d="M81.1125 55.7402
L81.2077 55.6450
" />
<path d="M81.2077 55.6450
L81.3506 55.5974
" />
<path d="M81.3506 55.5974
L81.4458 55.5974
" />
<path d="M81.4458 55.5974
L81.5887 55.6450
" />
<path d="M81.5887 55.6450
L81.6363 55.6926
" />
<path d="M82.0649 56.5974
L82.0649 55.5974
" />
<path d="M82.6363 56.5974
L82.2077 56.0260
" />
<path d="M82.6363 55.5974
L82.0649 56.1688
" />
<path d="M83.0173 55.6926
L83.0649 55.6450
" />
<path d="M83.0649 55.6450
L83.1601 55.5974
" />
<path d="M83.1601 55.5974
L83.3982 55.5974
" />
<path d="M83.3982 55.5974
L83.4935 55.6450
" />
<path d="M83.4935 55.6450
L83.5411 55.6926
" />
<path d="M83.5411 55.6926
L83.5887 55.7879
" />
<path d="M83.5887 55.7879
L83.5887 55.8831
" />
<path d="M83.5887 55.8831
L83.5411 56.0260
" />
<path d="M83.5411 56.0260
L82.9696 56.5974
" />
<path d="M82.9696 56.5974
L83.5887 56.5974
" />
</g><g transform="rotate(-90.000000 76.2394 9.0500)">
<text x="76.2394" y="9.5500"
textLength="2.1274" font-size="1.3333" lengthAdjust="spacingAndGlyphs"
text-anchor="middle" opacity="0">R7</text>
</g>
<g class="stroked-text"><desc>R7</desc>
<path d="M76.6068 9.2167
L76.1306 9.5500
" />
<path d="M76.6068 9.7881
L75.6068 9.7881
" />
<path d="M75.6068 9.7881
L75.6068 9.4071
" />
<path d="M75.6068 9.4071
L75.6544 9.3119
" />
<path d="M75.6544 9.3119
L75.7020 9.2643
" />
<path d="M75.7020 9.2643
L75.7973 9.2167
" />
<path d="M75.7973 9.2167
L75.9401 9.2167
" />
<path d="M75.9401 9.2167
L76.0354 9.2643
" />
<path d="M76.0354 9.2643
L76.0830 9.3119
" />
<path d="M76.0830 9.3119
L76.1306 9.4071
" />
<path d="M76.1306 9.4071
L76.1306 9.7881
" />
<path d="M75.6068 8.8833
L75.6068 8.2167
" />
<path d="M75.6068 8.2167
L76.6068 8.6452
" />
</g><text x="7.8494" y="56.7000"
textLength="7.9845" font-size="1.3333" lengthAdjust="spacingAndGlyphs"
text-anchor="middle" opacity="0">JOYSTICK1</text>
<g class="stroked-text"><desc>JOYSTICK1</desc>
<path d="M4.4685 55.5674
L4.4685 56.2817
" />
<path d="M4.4685 56.2817
L4.4208 56.4245
" />
<path d="M4.4208 56.4245
L4.3256 56.5198
" />
<path d="M4.3256 56.5198
L4.1827 56.5674
" />
<path d="M4.1827 56.5674
L4.0875 56.5674
" />
<path d="M5.1351 55.5674
L5.3256 55.5674
" />
<path d="M5.3256 55.5674
L5.4208 55.6150
" />
<path d="M5.4208 55.6150
L5.5161 55.7102
" />
<path d="M5.5161 55.7102
L5.5637 55.9007
" />
<path d="M5.5637 55.9007
L5.5637 56.2340
" />
<path d="M5.5637 56.2340
L5.5161 56.4245
" />
<path d="M5.5161 56.4245
L5.4208 56.5198
" />
<path d="M5.4208 56.5198
L5.3256 56.5674
" />
<path d="M5.3256 56.5674
L5.1351 56.5674
" />
<path d="M5.1351 56.5674
L5.0399 56.5198
" />
<path d="M5.0399 56.5198
L4.9446 56.4245
" />
<path d="M4.9446 56.4245
L4.8970 56.2340
" />
<path d="M4.8970 56.2340
L4.8970 55.9007
" />
<path d="M4.8970 55.9007
L4.9446 55.7102
" />
<path d="M4.9446 55.7102
L5.0399 55.6150
" />
<path d="M5.0399 55.6150
L5.1351 55.5674
" />
<path d="M6.1827 56.0912
L6.1827 56.5674
" />
<path d="M5.8494 55.5674
L6.1827 56.0912
" />
<path d="M6.1827 56.0912
L6.5161 55.5674
" />
<path d="M6.8018 56.5198
L6.9446 56.5674
" />
<path d="M6.9446 56.5674
L7.1827 56.5674
" />
<path d="M7.1827 56.5674
L7.2780 56.5198
" />
<path d="M7.2780 56.5198
L7.3256 56.4721
" />
<path d="M7.3256 56.4721
L7.3732 56.3769
" />
<path d="M7.3732 56.3769
L7.3732 56.2817
" />
<path d="M7.3732 56.2817
L7.3256 56.1864
" />
<path d="M7.3256 56.1864
L7.2780 56.1388
" />
<path d="M7.2780 56.1388
L7.1827 56.0912
" />
<path d="M7.1827 56.0912
L6.9923 56.0436
" />
<path d="M6.9923 56.0436
L6.8970 55.9960
" />
<path d="M6.8970 55.9960
L6.8494 55.9483
" />
<path d="M6.8494 55.9483
L6.8018 55.8531
" />
<path d="M6.8018 55.8531
L6.8018 55.7579
" />
<path d="M6.8018 55.7579
L6.8494 55.6626
" />
<path d="M6.8494 55.6626
L6.8970 55.6150
" />
<path d="M6.8970 55.6150
L6.9923 55.5674
" />
<path d="M6.9923 55.5674
L7.2304 55.5674
" />
<path d="M7.2304 55.5674
L7.3732 55.6150
" />
<path d="M7.6589 55.5674
L8.2304 55.5674
" />
<path d="M7.9446 56.5674
L7.9446 55.5674
" />
<path d="M8.5637 56.5674
L8.5637 55.5674
" />
<path d="M9.6113 56.4721
L9.5637 56.5198
" />
<path d="M9.5637 56.5198
L9.4208 56.5674
" />
<path d="M9.4208 56.5674
L9.3256 56.5674
" />
<path d="M9.3256 56.5674
L9.1827 56.5198
" />
<path d="M9.1827 56.5198
L9.0875 56.4245
" />
<path d="M9.0875 56.4245
L9.0399 56.3293
" />
<path d="M9.0399 56.3293
L8.9923 56.1388
" />
<path d="M8.9923 56.1388
L8.9923 55.9960
" />
<path d="M8.9923 55.9960
L9.0399 55.8055
" />
<path d="M9.0399 55.8055
L9.0875 55.7102
" />
<path d="M9.0875 55.7102
L9.1827 55.6150
" />
<path d="M9.1827 55.6150
L9.3256 55.5674
" />
<path d="M9.3256 55.5674
L9.4208 55.5674
" />
<path d="M9.4208 55.5674
L9.5637 55.6150
" />
<path d="M9.5637 55.6150
L9.6113 55.6626
" />
<path d="M10.0399 56.5674
L10.0399 55.5674
" />
<path d="M10.6113 56.5674
L10.1827 55.9960
" />
<path d="M10.6113 55.5674
L10.0399 56.1388
" />
<path d="M11.5637 56.5674
L10.9923 56.5674
" />
<path d="M11.2780 56.5674
L11.2780 55.5674
" />
<path d="M11.2780 55.5674
L11.1827 55.7102
" />
<path d="M11.1827 55.7102
L11.0875 55.8055
" />
<path d="M11.0875 55.8055
L10.9923 55.8531
" />
</g><text x="9.8494" y="17.3000"
textLength="9.8417" font-size="1.3333" lengthAdjust="spacingAndGlyphs"
text-anchor="middle" opacity="0">D_PAD_LEFT1</text>
<g class="stroked-text"><desc>D_PAD_LEFT1</desc>
<path d="M5.2542 17.1674
L5.2542 16.1674
" />
<path d="M5.2542 16.1674
L5.4923 16.1674
" />
<path d="M5.4923 16.1674
L5.6351 16.2150
" />
<path d="M5.6351 16.2150
L5.7304 16.3102
" />
<path d="M5.7304 16.3102
L5.7780 16.4055
" />
<path d="M5.7780 16.4055
L5.8256 16.5960
" />
<path d="M5.8256 16.5960
L5.8256 16.7388
" />
<path d="M5.8256 16.7388
L5.7780 16.9293
" />
<path d="M5.7780 16.9293
L5.7304 17.0245
" />
<path d="M5.7304 17.0245
L5.6351 17.1198
" />
<path d="M5.6351 17.1198
L5.4923 17.1674
" />
<path d="M5.4923 17.1674
L5.2542 17.1674
" />
<path d="M6.0161 17.2626
L6.7780 17.2626
" />
<path d="M7.0161 17.1674
L7.0161 16.1674
" />
<path d="M7.0161 16.1674
L7.3970 16.1674
" />
<path d="M7.3970 16.1674
L7.4923 16.2150
" />
<path d="M7.4923 16.2150
L7.5399 16.2626
" />
<path d="M7.5399 16.2626
L7.5875 16.3579
" />
<path d="M7.5875 16.3579
L7.5875 16.5007
" />
<path d="M7.5875 16.5007
L7.5399 16.5960
" />
<path d="M7.5399 16.5960
L7.4923 16.6436
" />
<path d="M7.4923 16.6436
L7.3970 16.6912
" />
<path d="M7.3970 16.6912
L7.0161 16.6912
" />
<path d="M7.9685 16.8817
L8.4446 16.8817
" />
<path d="M7.8732 17.1674
L8.2065 16.1674
" />
<path d="M8.2065 16.1674
L8.5399 17.1674
" />
<path d="M8.8732 17.1674
L8.8732 16.1674
" />
<path d="M8.8732 16.1674
L9.1113 16.1674
" />
<path d="M9.1113 16.1674
L9.2542 16.2150
" />
<path d="M9.2542 16.2150
L9.3494 16.3102
" />
<path d="M9.3494 16.3102
L9.3970 16.4055
" />
<path d="M9.3970 16.4055
L9.4446 16.5960
" />
<path d="M9.4446 16.5960
L9.4446 16.7388
" />
<path d="M9.4446 16.7388
L9.3970 16.9293
" />
<path d="M9.3970 16.9293
L9.3494 17.0245
" />
<path d="M9.3494 17.0245
L9.2542 17.1198
" />
<path d="M9.2542 17.1198
L9.1113 17.1674
" />
<path d="M9.1113 17.1674
L8.8732 17.1674
" />
<path d="M9.6351 17.2626
L10.3970 17.2626
" />
<path d="M11.1113 17.1674
L10.6351 17.1674
" />
<path d="M10.6351 17.1674
L10.6351 16.1674
" />
<path d="M11.4446 16.6436
L11.7780 16.6436
" />
<path d="M11.9208 17.1674
L11.4446 17.1674
" />
<path d="M11.4446 17.1674
L11.4446 16.1674
" />
<path d="M11.4446 16.1674
L11.9208 16.1674
" />
<path d="M12.6827 16.6436
L12.3494 16.6436
" />
<path d="M12.3494 17.1674
L12.3494 16.1674
" />
<path d="M12.3494 16.1674
L12.8256 16.1674
" />
<path d="M13.0637 16.1674
L13.6351 16.1674
" />
<path d="M13.3494 17.1674
L13.3494 16.1674
" />
<path d="M14.4923 17.1674
L13.9208 17.1674
" />
<path d="M14.2065 17.1674
L14.2065 16.1674
" />
<path d="M14.2065 16.1674
L14.1113 16.3102
" />
<path d="M14.1113 16.3102
L14.0161 16.4055
" />
<path d="M14.0161 16.4055
L13.9208 16.4531
" />
</g><g transform="rotate(-90.000000 91.4794 9.0500)">
<text x="91.4794" y="9.5500"
textLength="3.0798" font-size="1.3333" lengthAdjust="spacingAndGlyphs"
text-anchor="middle" opacity="0">R10</text>
</g>
<g class="stroked-text"><desc>R10</desc>
<path d="M91.8468 9.6929
L91.3706 10.0262
" />
<path d="M91.8468 10.2643
L90.8468 10.2643
" />
<path d="M90.8468 10.2643
L90.8468 9.8833
" />
<path d="M90.8468 9.8833
L90.8944 9.7881
" />
<path d="M90.8944 9.7881
L90.9420 9.7405
" />
<path d="M90.9420 9.7405
L91.0373 9.6929
" />
<path d="M91.0373 9.6929
L91.1801 9.6929
" />
<path d="M91.1801 9.6929
L91.2754 9.7405
" />
<path d="M91.2754 9.7405
L91.3230 9.7881
" />
<path d="M91.3230 9.7881
L91.3706 9.8833
" />
<path d="M91.3706 9.8833
L91.3706 10.2643
" />
<path d="M91.8468 8.7405
L91.8468 9.3119
" />
<path d="M91.8468 9.0262
L90.8468 9.0262
" />
<path d="M90.8468 9.0262
L90.9896 9.1214
" />
<path d="M90.9896 9.1214
L91.0849 9.2167
" />
<path d="M91.0849 9.2167
L91.1325 9.3119
" />
<path d="M90.8468 8.1214
L90.8468 8.0262
" />
<path d="M90.8468 8.0262
L90.8944 7.9310
" />
<path d="M90.8944 7.9310
L90.9420 7.8833
" />
<path d="M90.9420 7.8833
L91.0373 7.8357
" />
<path d="M91.0373 7.8357
L91.2277 7.7881
" />
<path d="M91.2277 7.7881
L91.4658 7.7881
" />
<path d="M91.4658 7.7881
L91.6563 7.8357
" />
<path d="M91.6563 7.8357
L91.7515 7.8833
" />
<path d="M91.7515 7.8833
L91.7992 7.9310
" />
<path d="M91.7992 7.9310
L91.8468 8.0262
" />
<path d="M91.8468 8.0262
L91.8468 8.1214
" />
<path d="M91.8468 8.1214
L91.7992 8.2167
" />
<path d="M91.7992 8.2167
L91.7515 8.2643
" />
<path d="M91.7515 8.2643
L91.6563 8.3119
" />
<path d="M91.6563 8.3119
L91.4658 8.3595
" />
<path d="M91.4658 8.3595
L91.2277 8.3595
" />
<path d="M91.2277 8.3595
L91.0373 8.3119
" />
<path d="M91.0373 8.3119
L90.9420 8.2643
" />
<path d="M90.9420 8.2643
L90.8944 8.2167
" />
<path d="M90.8944 8.2167
L90.8468 8.1214
" />
</g><text x="116.8494" y="16.8600"
textLength="8.4131" font-size="1.3333" lengthAdjust="spacingAndGlyphs"
text-anchor="middle" opacity="0">Y_BUTTON1</text>
<g class="stroked-text"><desc>Y_BUTTON1</desc>
<path d="M113.1589 16.2512
L113.1589 16.7274
" />
<path d="M112.8256 15.7274
L113.1589 16.2512
" />
<path d="M113.1589 16.2512
L113.4923 15.7274
" />
<path d="M113.5875 16.8226
L114.3494 16.8226
" />
<path d="M114.9208 16.2036
L115.0637 16.2512
" />
<path d="M115.0637 16.2512
L115.1113 16.2988
" />
<path d="M115.1113 16.2988
L115.1589 16.3940
" />
<path d="M115.1589 16.3940
L115.1589 16.5369
" />
<path d="M115.1589 16.5369
L115.1113 16.6321
" />
<path d="M115.1113 16.6321
L115.0637 16.6798
" />
<path d="M115.0637 16.6798
L114.9685 16.7274
" />
<path d="M114.9685 16.7274
L114.5875 16.7274
" />
<path d="M114.5875 16.7274
L114.5875 15.7274
" />
<path d="M114.5875 15.7274
L114.9208 15.7274
" />
<path d="M114.9208 15.7274
L115.0161 15.7750
" />
<path d="M115.0161 15.7750
L115.0637 15.8226
" />
<path d="M115.0637 15.8226
L115.1113 15.9179
" />
<path d="M115.1113 15.9179
L115.1113 16.0131
" />
<path d="M115.1113 16.0131
L115.0637 16.1083
" />
<path d="M115.0637 16.1083
L115.0161 16.1560
" />
<path d="M115.0161 16.1560
L114.9208 16.2036
" />
<path d="M114.9208 16.2036
L114.5875 16.2036
" />
<path d="M115.5875 15.7274
L115.5875 16.5369
" />
<path d="M115.5875 16.5369
L115.6351 16.6321
" />
<path d="M115.6351 16.6321
L115.6827 16.6798
" />
<path d="M115.6827 16.6798
L115.7780 16.7274
" />
<path d="M115.7780 16.7274
L115.9685 16.7274
" />
<path d="M115.9685 16.7274
L116.0637 16.6798
" />
<path d="M116.0637 16.6798
L116.1113 16.6321
" />
<path d="M116.1113 16.6321
L116.1589 16.5369
" />
<path d="M116.1589 16.5369
L116.1589 15.7274
" />
<path d="M116.4923 15.7274
L117.0637 15.7274
" />
<path d="M116.7780 16.7274
L116.7780 15.7274
" />
<path d="M117.2542 15.7274
L117.8256 15.7274
" />
<path d="M117.5399 16.7274
L117.5399 15.7274
" />
<path d="M118.3494 15.7274
L118.5399 15.7274
" />
<path d="M118.5399 15.7274
L118.6351 15.7750
" />
<path d="M118.6351 15.7750
L118.7304 15.8702
" />
<path d="M118.7304 15.8702
L118.7780 16.0607
" />
<path d="M118.7780 16.0607
L118.7780 16.3940
" />
<path d="M118.7780 16.3940
L118.7304 16.5845
" />
<path d="M118.7304 16.5845
L118.6351 16.6798
" />
<path d="M118.6351 16.6798
L118.5399 16.7274
" />
<path d="M118.5399 16.7274
L118.3494 16.7274
" />
<path d="M118.3494 16.7274
L118.2542 16.6798
" />
<path d="M118.2542 16.6798
L118.1589 16.5845
" />
<path d="M118.1589 16.5845
L118.1113 16.3940
" />
<path d="M118.1113 16.3940
L118.1113 16.0607
" />
<path d="M118.1113 16.0607
L118.1589 15.8702
" />
<path d="M118.1589 15.8702
L118.2542 15.7750
" />
<path d="M118.2542 15.7750
L118.3494 15.7274
" />
<path d="M119.2065 16.7274
L119.2065 15.7274
" />
<path d="M119.2065 15.7274
L119.7780 16.7274
" />
<path d="M119.7780 16.7274
L119.7780 15.7274
" />
<path d="M120.7780 16.7274
L120.2065 16.7274
" />
<path d="M120.4923 16.7274
L120.4923 15.7274
" />
<path d="M120.4923 15.7274
L120.3970 15.8702
" />
<path d="M120.3970 15.8702
L120.3018 15.9655
" />
<path d="M120.3018 15.9655
L120.2065 16.0131
" />
</g><g transform="rotate(-90.000000 57.7994 43.5500)">
<text x="57.7994" y="44.0500"
textLength="2.1274" font-size="1.3333" lengthAdjust="spacingAndGlyphs"
text-anchor="middle" opacity="0">R5</text>
</g>
<g class="stroked-text"><desc>R5</desc>
<path d="M58.1668 43.7167
L57.6906 44.0500
" />
<path d="M58.1668 44.2881
L57.1668 44.2881
" />
<path d="M57.1668 44.2881
L57.1668 43.9071
" />
<path d="M57.1668 43.9071
L57.2144 43.8119
" />
<path d="M57.2144 43.8119
L57.2620 43.7643
" />
<path d="M57.2620 43.7643
L57.3573 43.7167
" />
<path d="M57.3573 43.7167
L57.5001 43.7167
" />
<path d="M57.5001 43.7167
L57.5954 43.7643
" />
<path d="M57.5954 43.7643
L57.6430 43.8119
" />
<path d="M57.6430 43.8119
L57.6906 43.9071
" />
<path d="M57.6906 43.9071
L57.6906 44.2881
" />
<path d="M57.1668 42.8119
L57.1668 43.2881
" />
<path d="M57.1668 43.2881
L57.6430 43.3357
" />
<path d="M57.6430 43.3357
L57.5954 43.2881
" />
<path d="M57.5954 43.2881
L57.5477 43.1929
" />
<path d="M57.5477 43.1929
L57.5477 42.9548
" />
<path d="M57.5477 42.9548
L57.5954 42.8595
" />
<path d="M57.5954 42.8595
L57.6430 42.8119
" />
<path d="M57.6430 42.8119
L57.7382 42.7643
" />
<path d="M57.7382 42.7643
L57.9763 42.7643
" />
<path d="M57.9763 42.7643
L58.0715 42.8119
" />
<path d="M58.0715 42.8119
L58.1192 42.8595
" />
<path d="M58.1192 42.8595
L58.1668 42.9548
" />
<path d="M58.1668 42.9548
L58.1668 43.1929
" />
<path d="M58.1668 43.1929
L58.1192 43.2881
" />
<path d="M58.1192 43.2881
L58.0715 43.3357
" />
</g><text x="27.8494" y="17.3000"
textLength="10.7940" font-size="1.3333" lengthAdjust="spacingAndGlyphs"
text-anchor="middle" opacity="0">D_PAD_RIGHT1</text>
<g class="stroked-text"><desc>D_PAD_RIGHT1</desc>
<path d="M22.7780 17.1674
L22.7780 16.1674
" />
<path d="M22.7780 16.1674
L23.0161 16.1674
" />
<path d="M23.0161 16.1674
L23.1589 16.2150
" />
<path d="M23.1589 16.2150
L23.2542 16.3102
" />
<path d="M23.2542 16.3102
L23.3018 16.4055
" />
<path d="M23.3018 16.4055
L23.3494 16.5960
" />
<path d="M23.3494 16.5960
L23.3494 16.7388
" />
<path d="M23.3494 16.7388
L23.3018 16.9293
" />
<path d="M23.3018 16.9293
L23.2542 17.0245
" />
<path d="M23.2542 17.0245
L23.1589 17.1198
" />
<path d="M23.1589 17.1198
L23.0161 17.1674
" />
<path d="M23.0161 17.1674
L22.7780 17.1674
" />
<path d="M23.5399 17.2626
L24.3018 17.2626
" />
<path d="M24.5399 17.1674
L24.5399 16.1674
" />
<path d="M24.5399 16.1674
L24.9208 16.1674
" />
<path d="M24.9208 16.1674
L25.0161 16.2150
" />
<path d="M25.0161 16.2150
L25.0637 16.2626
" />
<path d="M25.0637 16.2626
L25.1113 16.3579
" />
<path d="M25.1113 16.3579
L25.1113 16.5007
" />
<path d="M25.1113 16.5007
L25.0637 16.5960
" />
<path d="M25.0637 16.5960
L25.0161 16.6436
" />
<path d="M25.0161 16.6436
L24.9208 16.6912
" />
<path d="M24.9208 16.6912
L24.5399 16.6912
" />
<path d="M25.4923 16.8817
L25.9685 16.8817
" />
<path d="M25.3970 17.1674
L25.7304 16.1674
" />
<path d="M25.7304 16.1674
L26.0637 17.1674
" />
<path d="M26.3970 17.1674
L26.3970 16.1674
" />
<path d="M26.3970 16.1674
L26.6351 16.1674
" />
<path d="M26.6351 16.1674
L26.7780 16.2150
" />
<path d="M26.7780 16.2150
L26.8732 16.3102
" />
<path d="M26.8732 16.3102
L26.9208 16.4055
" />
<path d="M26.9208 16.4055
L26.9685 16.5960
" />
<path d="M26.9685 16.5960
L26.9685 16.7388
" />
<path d="M26.9685 16.7388
L26.9208 16.9293
" />
<path d="M26.9208 16.9293
L26.8732 17.0245
" />
<path d="M26.8732 17.0245
L26.7780 17.1198
" />
<path d="M26.7780 17.1198
L26.6351 17.1674
" />
<path d="M26.6351 17.1674
L26.3970 17.1674
" />
<path d="M27.1589 17.2626
L27.9208 17.2626
" />
<path d="M28.7304 17.1674
L28.3970 16.6912
" />
<path d="M28.1589 17.1674
L28.1589 16.1674
" />
<path d="M28.1589 16.1674
L28.5399 16.1674
" />
<path d="M28.5399 16.1674
L28.6351 16.2150
" />
<path d="M28.6351 16.2150
L28.6827 16.2626
" />
<path d="M28.6827 16.2626
L28.7304 16.3579
" />
<path d="M28.7304 16.3579
L28.7304 16.5007
" />
<path d="M28.7304 16.5007
L28.6827 16.5960
" />
<path d="M28.6827 16.5960
L28.6351 16.6436
" />
<path d="M28.6351 16.6436
L28.5399 16.6912
" />
<path d="M28.5399 16.6912
L28.1589 16.6912
" />
<path d="M29.1589 17.1674
L29.1589 16.1674
" />
<path d="M30.1589 16.2150
L30.0637 16.1674
" />
<path d="M30.0637 16.1674
L29.9208 16.1674
" />
<path d="M29.9208 16.1674
L29.7780 16.2150
" />
<path d="M29.7780 16.2150
L29.6827 16.3102
" />
<path d="M29.6827 16.3102
L29.6351 16.4055
" />
<path d="M29.6351 16.4055
L29.5875 16.5960
" />
<path d="M29.5875 16.5960
L29.5875 16.7388
" />
<path d="M29.5875 16.7388
L29.6351 16.9293
" />
<path d="M29.6351 16.9293
L29.6827 17.0245
" />
<path d="M29.6827 17.0245
L29.7780 17.1198
" />
<path d="M29.7780 17.1198
L29.9208 17.1674
" />
<path d="M29.9208 17.1674
L30.0161 17.1674
" />
<path d="M30.0161 17.1674
L30.1589 17.1198
" />
<path d="M30.1589 17.1198
L30.2065 17.0721
" />
<path d="M30.2065 17.0721
L30.2065 16.7388
" />
<path d="M30.2065 16.7388
L30.0161 16.7388
" />
<path d="M30.6351 17.1674
L30.6351 16.1674
" />
<path d="M30.6351 16.6436
L31.2065 16.6436
" />
<path d="M31.2065 17.1674
L31.2065 16.1674
" />
<path d="M31.5399 16.1674
L32.1113 16.1674
" />
<path d="M31.8256 17.1674
L31.8256 16.1674
" />
<path d="M32.9685 17.1674
L32.3970 17.1674
" />
<path d="M32.6827 17.1674
L32.6827 16.1674
" />
<path d="M32.6827 16.1674
L32.5875 16.3102
" />
<path d="M32.5875 16.3102
L32.4923 16.4055
" />
<path d="M32.4923 16.4055
L32.3970 16.4531
" />
</g><g transform="rotate(-90.000000 62.8794 43.5500)">
<text x="62.8794" y="44.0500"
textLength="2.1274" font-size="1.3333" lengthAdjust="spacingAndGlyphs"
text-anchor="middle" opacity="0">R6</text>
</g>
<g class="stroked-text"><desc>R6</desc>
<path d="M63.2468 43.7167
L62.7706 44.0500
" />
<path d="M63.2468 44.2881
L62.2468 44.2881
" />
<path d="M62.2468 44.2881
L62.2468 43.9071
" />
<path d="M62.2468 43.9071
L62.2944 43.8119
" />
<path d="M62.2944 43.8119
L62.3420 43.7643
" />
<path d="M62.3420 43.7643
L62.4373 43.7167
" />
<path d="M62.4373 43.7167
L62.5801 43.7167
" />
<path d="M62.5801 43.7167
L62.6754 43.7643
" />
<path d="M62.6754 43.7643
L62.7230 43.8119
" />
<path d="M62.7230 43.8119
L62.7706 43.9071
" />
<path d="M62.7706 43.9071
L62.7706 44.2881
" />
<path d="M62.2468 42.8595
L62.2468 43.0500
" />
<path d="M62.2468 43.0500
L62.2944 43.1452
" />
<path d="M62.2944 43.1452
L62.3420 43.1929
" />
<path d="M62.3420 43.1929
L62.4849 43.2881
" />
<path d="M62.4849 43.2881
L62.6754 43.3357
" />
<path d="M62.6754 43.3357
L63.0563 43.3357
" />
<path d="M63.0563 43.3357
L63.1515 43.2881
" />
<path d="M63.1515 43.2881
L63.1992 43.2405
" />
<path d="M63.1992 43.2405
L63.2468 43.1452
" />
<path d="M63.2468 43.1452
L63.2468 42.9548
" />
<path d="M63.2468 42.9548
L63.1992 42.8595
" />
<path d="M63.1992 42.8595
L63.1515 42.8119
" />
<path d="M63.1515 42.8119
L63.0563 42.7643
" />
<path d="M63.0563 42.7643
L62.8182 42.7643
" />
<path d="M62.8182 42.7643
L62.7230 42.8119
" />
<path d="M62.7230 42.8119
L62.6754 42.8595
" />
<path d="M62.6754 42.8595
L62.6277 42.9548
" />
<path d="M62.6277 42.9548
L62.6277 43.1452
" />
<path d="M62.6277 43.1452
L62.6754 43.2405
" />
<path d="M62.6754 43.2405
L62.7230 43.2881
" />
<path d="M62.7230 43.2881
L62.8182 43.3357
" />
</g><text x="107.8494" y="8.3000"
textLength="8.5560" font-size="1.3333" lengthAdjust="spacingAndGlyphs"
text-anchor="middle" opacity="0">B_BUTTON1</text>
<g class="stroked-text"><desc>B_BUTTON1</desc>
<path d="M104.2304 7.6436
L104.3732 7.6912
" />
<path d="M104.3732 7.6912
L104.4208 7.7388
" />
<path d="M104.4208 7.7388
L104.4685 7.8340
" />
<path d="M104.4685 7.8340
L104.4685 7.9769
" />
<path d="M104.4685 7.9769
L104.4208 8.0721
" />
<path d="M104.4208 8.0721
L104.3732 8.1198
" />
<path d="M104.3732 8.1198
L104.2780 8.1674
" />
<path d="M104.2780 8.1674
L103.8970 8.1674
" />
<path d="M103.8970 8.1674
L103.8970 7.1674
" />
<path d="M103.8970 7.1674
L104.2304 7.1674
" />
<path d="M104.2304 7.1674
L104.3256 7.2150
" />
<path d="M104.3256 7.2150
L104.3732 7.2626
" />
<path d="M104.3732 7.2626
L104.4208 7.3579
" />
<path d="M104.4208 7.3579
L104.4208 7.4531
" />
<path d="M104.4208 7.4531
L104.3732 7.5483
" />
<path d="M104.3732 7.5483
L104.3256 7.5960
" />
<path d="M104.3256 7.5960
L104.2304 7.6436
" />
<path d="M104.2304 7.6436
L103.8970 7.6436
" />
<path d="M104.6589 8.2626
L105.4208 8.2626
" />
<path d="M105.9923 7.6436
L106.1351 7.6912
" />
<path d="M106.1351 7.6912
L106.1827 7.7388
" />
<path d="M106.1827 7.7388
L106.2304 7.8340
" />
<path d="M106.2304 7.8340
L106.2304 7.9769
" />
<path d="M106.2304 7.9769
L106.1827 8.0721
" />
<path d="M106.1827 8.0721
L106.1351 8.1198
" />
<path d="M106.1351 8.1198
L106.0399 8.1674
" />
<path d="M106.0399 8.1674
L105.6589 8.1674
" />
<path d="M105.6589 8.1674
L105.6589 7.1674
" />
<path d="M105.6589 7.1674
L105.9923 7.1674
" />
<path d="M105.9923 7.1674
L106.0875 7.2150
" />
<path d="M106.0875 7.2150
L106.1351 7.2626
" />
<path d="M106.1351 7.2626
L106.1827 7.3579
" />
<path d="M106.1827 7.3579
L106.1827 7.4531
" />
<path d="M106.1827 7.4531
L106.1351 7.5483
" />
<path d="M106.1351 7.5483
L106.0875 7.5960
" />
<path d="M106.0875 7.5960
L105.9923 7.6436
" />
<path d="M105.9923 7.6436
L105.6589 7.6436
" />
<path d="M106.6589 7.1674
L106.6589 7.9769
" />
<path d="M106.6589 7.9769
L106.7065 8.0721
" />
<path d="M106.7065 8.0721
L106.7542 8.1198
" />
<path d="M106.7542 8.1198
L106.8494 8.1674
" />
<path d="M106.8494 8.1674
L107.0399 8.1674
" />
<path d="M107.0399 8.1674
L107.1351 8.1198
" />
<path d="M107.1351 8.1198
L107.1827 8.0721
" />
<path d="M107.1827 8.0721
L107.2304 7.9769
" />
<path d="M107.2304 7.9769
L107.2304 7.1674
" />
<path d="M107.5637 7.1674
L108.1351 7.1674
" />
<path d="M107.8494 8.1674
L107.8494 7.1674
" />
<path d="M108.3256 7.1674
L108.8970 7.1674
" />
<path d="M108.6113 8.1674
L108.6113 7.1674
" />
<path d="M109.4208 7.1674
L109.6113 7.1674
" />
<path d="M109.6113 7.1674
L109.7065 7.2150
" />
<path d="M109.7065 7.2150
L109.8018 7.3102
" />
<path d="M109.8018 7.3102
L109.8494 7.5007
" />
<path d="M109.8494 7.5007
L109.8494 7.8340
" />
<path d="M109.8494 7.8340
L109.8018 8.0245
" />
<path d="M109.8018 8.0245
L109.7065 8.1198
" />
<path d="M109.7065 8.1198
L109.6113 8.1674
" />
<path d="M109.6113 8.1674
L109.4208 8.1674
" />
<path d="M109.4208 8.1674
L109.3256 8.1198
" />
<path d="M109.3256 8.1198
L109.2304 8.0245
" />
<path d="M109.2304 8.0245
L109.1827 7.8340
" />
<path d="M109.1827 7.8340
L109.1827 7.5007
" />
<path d="M109.1827 7.5007
L109.2304 7.3102
" />
<path d="M109.2304 7.3102
L109.3256 7.2150
" />
<path d="M109.3256 7.2150
L109.4208 7.1674
" />
<path d="M110.2780 8.1674
L110.2780 7.1674
" />
<path d="M110.2780 7.1674
L110.8494 8.1674
" />
<path d="M110.8494 8.1674
L110.8494 7.1674
" />
<path d="M111.8494 8.1674
L111.2780 8.1674
" />
<path d="M111.5637 8.1674
L111.5637 7.1674
" />
<path d="M111.5637 7.1674
L111.4685 7.3102
" />
<path d="M111.4685 7.3102
L111.3732 7.4055
" />
<path d="M111.3732 7.4055
L111.2780 7.4531
" />
</g><text x="98.5994" y="16.8600"
textLength="8.4131" font-size="1.3333" lengthAdjust="spacingAndGlyphs"
text-anchor="middle" opacity="0">A_BUTTON1</text>
<g class="stroked-text"><desc>A_BUTTON1</desc>
<path d="M94.6708 16.4417
L95.1470 16.4417
" />
<path d="M94.5756 16.7274
L94.9089 15.7274
" />
<path d="M94.9089 15.7274
L95.2423 16.7274
" />
<path d="M95.3375 16.8226
L96.0994 16.8226
" />
<path d="M96.6708 16.2036
L96.8137 16.2512
" />
<path d="M96.8137 16.2512
L96.8613 16.2988
" />
<path d="M96.8613 16.2988
L96.9089 16.3940
" />
<path d="M96.9089 16.3940
L96.9089 16.5369
" />
<path d="M96.9089 16.5369
L96.8613 16.6321
" />
<path d="M96.8613 16.6321
L96.8137 16.6798
" />
<path d="M96.8137 16.6798
L96.7185 16.7274
" />
<path d="M96.7185 16.7274
L96.3375 16.7274
" />
<path d="M96.3375 16.7274
L96.3375 15.7274
" />
<path d="M96.3375 15.7274
L96.6708 15.7274
" />
<path d="M96.6708 15.7274
L96.7661 15.7750
" />
<path d="M96.7661 15.7750
L96.8137 15.8226
" />
<path d="M96.8137 15.8226
L96.8613 15.9179
" />
<path d="M96.8613 15.9179
L96.8613 16.0131
" />
<path d="M96.8613 16.0131
L96.8137 16.1083
" />
<path d="M96.8137 16.1083
L96.7661 16.1560
" />
<path d="M96.7661 16.1560
L96.6708 16.2036
" />
<path d="M96.6708 16.2036
L96.3375 16.2036
" />
<path d="M97.3375 15.7274
L97.3375 16.5369
" />
<path d="M97.3375 16.5369
L97.3851 16.6321
" />
<path d="M97.3851 16.6321
L97.4327 16.6798
" />
<path d="M97.4327 16.6798
L97.5280 16.7274
" />
<path d="M97.5280 16.7274
L97.7185 16.7274
" />
<path d="M97.7185 16.7274
L97.8137 16.6798
" />
<path d="M97.8137 16.6798
L97.8613 16.6321
" />
<path d="M97.8613 16.6321
L97.9089 16.5369
" />
<path d="M97.9089 16.5369
L97.9089 15.7274
" />
<path d="M98.2423 15.7274
L98.8137 15.7274
" />
<path d="M98.5280 16.7274
L98.5280 15.7274
" />
<path d="M99.0042 15.7274
L99.5756 15.7274
" />
<path d="M99.2899 16.7274
L99.2899 15.7274
" />
<path d="M100.0994 15.7274
L100.2899 15.7274
" />
<path d="M100.2899 15.7274
L100.3851 15.7750
" />
<path d="M100.3851 15.7750
L100.4804 15.8702
" />
<path d="M100.4804 15.8702
L100.5280 16.0607
" />
<path d="M100.5280 16.0607
L100.5280 16.3940
" />
<path d="M100.5280 16.3940
L100.4804 16.5845
" />
<path d="M100.4804 16.5845
L100.3851 16.6798
" />
<path d="M100.3851 16.6798
L100.2899 16.7274
" />
<path d="M100.2899 16.7274
L100.0994 16.7274
" />
<path d="M100.0994 16.7274
L100.0042 16.6798
" />
<path d="M100.0042 16.6798
L99.9089 16.5845
" />
<path d="M99.9089 16.5845
L99.8613 16.3940
" />
<path d="M99.8613 16.3940
L99.8613 16.0607
" />
<path d="M99.8613 16.0607
L99.9089 15.8702
" />
<path d="M99.9089 15.8702
L100.0042 15.7750
" />
<path d="M100.0042 15.7750
L100.0994 15.7274
" />
<path d="M100.9565 16.7274
L100.9565 15.7274
" />
<path d="M100.9565 15.7274
L101.5280 16.7274
" />
<path d="M101.5280 16.7274
L101.5280 15.7274
" />
<path d="M102.5280 16.7274
L101.9565 16.7274
" />
<path d="M102.2423 16.7274
L102.2423 15.7274
" />
<path d="M102.2423 15.7274
L102.1470 15.8702
" />
<path d="M102.1470 15.8702
L102.0518 15.9655
" />
<path d="M102.0518 15.9655
L101.9565 16.0131
" />
</g><g transform="rotate(-90.000000 44.4794 8.9700)">
<text x="44.4794" y="9.4700"
textLength="2.1274" font-size="1.3333" lengthAdjust="spacingAndGlyphs"
text-anchor="middle" opacity="0">R2</text>
</g>
<g class="stroked-text"><desc>R2</desc>
<path d="M44.8468 9.1367
L44.3706 9.4700
" />
<path d="M44.8468 9.7081
L43.8468 9.7081
" />
<path d="M43.8468 9.7081
L43.8468 9.3271
" />
<path d="M43.8468 9.3271
L43.8944 9.2319
" />
<path d="M43.8944 9.2319
L43.9420 9.1843
" />
<path d="M43.9420 9.1843
L44.0373 9.1367
" />
<path d="M44.0373 9.1367
L44.1801 9.1367
" />
<path d="M44.1801 9.1367
L44.2754 9.1843
" />
<path d="M44.2754 9.1843
L44.3230 9.2319
" />
<path d="M44.3230 9.2319
L44.3706 9.3271
" />
<path d="M44.3706 9.3271
L44.3706 9.7081
" />
<path d="M43.9420 8.7557
L43.8944 8.7081
" />
<path d="M43.8944 8.7081
L43.8468 8.6129
" />
<path d="M43.8468 8.6129
L43.8468 8.3748
" />
<path d="M43.8468 8.3748
L43.8944 8.2795
" />
<path d="M43.8944 8.2795
L43.9420 8.2319
" />
<path d="M43.9420 8.2319
L44.0373 8.1843
" />
<path d="M44.0373 8.1843
L44.1325 8.1843
" />
<path d="M44.1325 8.1843
L44.2754 8.2319
" />
<path d="M44.2754 8.2319
L44.8468 8.8033
" />
<path d="M44.8468 8.8033
L44.8468 8.1843
" />
</g><g transform="rotate(-90.000000 39.4794 8.9700)">
<text x="39.4794" y="9.4700"
textLength="2.1274" font-size="1.3333" lengthAdjust="spacingAndGlyphs"
text-anchor="middle" opacity="0">R4</text>
</g>
<g class="stroked-text"><desc>R4</desc>
<path d="M39.8468 9.1367
L39.3706 9.4700
" />
<path d="M39.8468 9.7081
L38.8468 9.7081
" />
<path d="M38.8468 9.7081
L38.8468 9.3271
" />
<path d="M38.8468 9.3271
L38.8944 9.2319
" />
<path d="M38.8944 9.2319
L38.9420 9.1843
" />
<path d="M38.9420 9.1843
L39.0373 9.1367
" />
<path d="M39.0373 9.1367
L39.1801 9.1367
" />
<path d="M39.1801 9.1367
L39.2754 9.1843
" />
<path d="M39.2754 9.1843
L39.3230 9.2319
" />
<path d="M39.3230 9.2319
L39.3706 9.3271
" />
<path d="M39.3706 9.3271
L39.3706 9.7081
" />
<path d="M39.1801 8.2795
L39.8468 8.2795
" />
<path d="M38.7992 8.5176
L39.5135 8.7557
" />
<path d="M39.5135 8.7557
L39.5135 8.1367
" />
</g><text x="18.8494" y="26.3000"
textLength="10.7464" font-size="1.3333" lengthAdjust="spacingAndGlyphs"
text-anchor="middle" opacity="0">D_PAD_DOWN1</text>
<g class="stroked-text"><desc>D_PAD_DOWN1</desc>
<path d="M13.8018 26.1674
L13.8018 25.1674
" />
<path d="M13.8018 25.1674
L14.0399 25.1674
" />
<path d="M14.0399 25.1674
L14.1827 25.2150
" />
<path d="M14.1827 25.2150
L14.2780 25.3102
" />
<path d="M14.2780 25.3102
L14.3256 25.4055
" />
<path d="M14.3256 25.4055
L14.3732 25.5960
" />
<path d="M14.3732 25.5960
L14.3732 25.7388
" />
<path d="M14.3732 25.7388
L14.3256 25.9293
" />
<path d="M14.3256 25.9293
L14.2780 26.0245
" />
<path d="M14.2780 26.0245
L14.1827 26.1198
" />
<path d="M14.1827 26.1198
L14.0399 26.1674
" />
<path d="M14.0399 26.1674
L13.8018 26.1674
" />
<path d="M14.5637 26.2626
L15.3256 26.2626
" />
<path d="M15.5637 26.1674
L15.5637 25.1674
" />
<path d="M15.5637 25.1674
L15.9446 25.1674
" />
<path d="M15.9446 25.1674
L16.0399 25.2150
" />
<path d="M16.0399 25.2150
L16.0875 25.2626
" />
<path d="M16.0875 25.2626
L16.1351 25.3579
" />
<path d="M16.1351 25.3579
L16.1351 25.5007
" />
<path d="M16.1351 25.5007
L16.0875 25.5960
" />
<path d="M16.0875 25.5960
L16.0399 25.6436
" />
<path d="M16.0399 25.6436
L15.9446 25.6912
" />
<path d="M15.9446 25.6912
L15.5637 25.6912
" />
<path d="M16.5161 25.8817
L16.9923 25.8817
" />
<path d="M16.4208 26.1674
L16.7542 25.1674
" />
<path d="M16.7542 25.1674
L17.0875 26.1674
" />
<path d="M17.4208 26.1674
L17.4208 25.1674
" />
<path d="M17.4208 25.1674
L17.6589 25.1674
" />
<path d="M17.6589 25.1674
L17.8018 25.2150
" />
<path d="M17.8018 25.2150
L17.8970 25.3102
" />
<path d="M17.8970 25.3102
L17.9446 25.4055
" />
<path d="M17.9446 25.4055
L17.9923 25.5960
" />
<path d="M17.9923 25.5960
L17.9923 25.7388
" />
<path d="M17.9923 25.7388
L17.9446 25.9293
" />
<path d="M17.9446 25.9293
L17.8970 26.0245
" />
<path d="M17.8970 26.0245
L17.8018 26.1198
" />
<path d="M17.8018 26.1198
L17.6589 26.1674
" />
<path d="M17.6589 26.1674
L17.4208 26.1674
" />
<path d="M18.1827 26.2626
L18.9446 26.2626
" />
<path d="M19.1827 26.1674
L19.1827 25.1674
" />
<path d="M19.1827 25.1674
L19.4208 25.1674
" />
<path d="M19.4208 25.1674
L19.5637 25.2150
" />
<path d="M19.5637 25.2150
L19.6589 25.3102
" />
<path d="M19.6589 25.3102
L19.7065 25.4055
" />
<path d="M19.7065 25.4055
L19.7542 25.5960
" />
<path d="M19.7542 25.5960
L19.7542 25.7388
" />
<path d="M19.7542 25.7388
L19.7065 25.9293
" />
<path d="M19.7065 25.9293
L19.6589 26.0245
" />
<path d="M19.6589 26.0245
L19.5637 26.1198
" />
<path d="M19.5637 26.1198
L19.4208 26.1674
" />
<path d="M19.4208 26.1674
L19.1827 26.1674
" />
<path d="M20.3732 25.1674
L20.5637 25.1674
" />
<path d="M20.5637 25.1674
L20.6589 25.2150
" />
<path d="M20.6589 25.2150
L20.7542 25.3102
" />
<path d="M20.7542 25.3102
L20.8018 25.5007
" />
<path d="M20.8018 25.5007
L20.8018 25.8340
" />
<path d="M20.8018 25.8340
L20.7542 26.0245
" />
<path d="M20.7542 26.0245
L20.6589 26.1198
" />
<path d="M20.6589 26.1198
L20.5637 26.1674
" />
<path d="M20.5637 26.1674
L20.3732 26.1674
" />
<path d="M20.3732 26.1674
L20.2780 26.1198
" />
<path d="M20.2780 26.1198
L20.1827 26.0245
" />
<path d="M20.1827 26.0245
L20.1351 25.8340
" />
<path d="M20.1351 25.8340
L20.1351 25.5007
" />
<path d="M20.1351 25.5007
L20.1827 25.3102
" />
<path d="M20.1827 25.3102
L20.2780 25.2150
" />
<path d="M20.2780 25.2150
L20.3732 25.1674
" />
<path d="M21.1351 25.1674
L21.3732 26.1674
" />
<path d="M21.3732 26.1674
L21.5637 25.4531
" />
<path d="M21.5637 25.4531
L21.7542 26.1674
" />
<path d="M21.7542 26.1674
L21.9923 25.1674
" />
<path d="M22.3732 26.1674
L22.3732 25.1674
" />
<path d="M22.3732 25.1674
L22.9446 26.1674
" />
<path d="M22.9446 26.1674
L22.9446 25.1674
" />
<path d="M23.9446 26.1674
L23.3732 26.1674
" />
<path d="M23.6589 26.1674
L23.6589 25.1674
" />
<path d="M23.6589 25.1674
L23.5637 25.3102
" />
<path d="M23.5637 25.3102
L23.4685 25.4055
" />
<path d="M23.4685 25.4055
L23.3732 25.4531
" />
</g><g transform="rotate(-90.000000 34.4794 8.9700)">
<text x="34.4794" y="9.4700"
textLength="2.1274" font-size="1.3333" lengthAdjust="spacingAndGlyphs"
text-anchor="middle" opacity="0">R1</text>
</g>
<g class="stroked-text"><desc>R1</desc>
<path d="M34.8468 9.1367
L34.3706 9.4700
" />
<path d="M34.8468 9.7081
L33.8468 9.7081
" />
<path d="M33.8468 9.7081
L33.8468 9.3271
" />
<path d="M33.8468 9.3271
L33.8944 9.2319
" />
<path d="M33.8944 9.2319
L33.9420 9.1843
" />
<path d="M33.9420 9.1843
L34.0373 9.1367
" />
<path d="M34.0373 9.1367
L34.1801 9.1367
" />
<path d="M34.1801 9.1367
L34.2754 9.1843
" />
<path d="M34.2754 9.1843
L34.3230 9.2319
" />
<path d="M34.3230 9.2319
L34.3706 9.3271
" />
<path d="M34.3706 9.3271
L34.3706 9.7081
" />
<path d="M34.8468 8.1843
L34.8468 8.7557
" />
<path d="M34.8468 8.4700
L33.8468 8.4700
" />
<path d="M33.8468 8.4700
L33.9896 8.5652
" />
<path d="M33.9896 8.5652
L34.0849 8.6605
" />
<path d="M34.0849 8.6605
L34.1325 8.7557
" />
</g><g transform="rotate(-90.000000 86.3994 9.0500)">
<text x="86.3994" y="9.5500"
textLength="2.1274" font-size="1.3333" lengthAdjust="spacingAndGlyphs"
text-anchor="middle" opacity="0">R9</text>
</g>
<g class="stroked-text"><desc>R9</desc>
<path d="M86.7668 9.2167
L86.2906 9.5500
" />
<path d="M86.7668 9.7881
L85.7668 9.7881
" />
<path d="M85.7668 9.7881
L85.7668 9.4071
" />
<path d="M85.7668 9.4071
L85.8144 9.3119
" />
<path d="M85.8144 9.3119
L85.8620 9.2643
" />
<path d="M85.8620 9.2643
L85.9573 9.2167
" />
<path d="M85.9573 9.2167
L86.1001 9.2167
" />
<path d="M86.1001 9.2167
L86.1954 9.2643
" />
<path d="M86.1954 9.2643
L86.2430 9.3119
" />
<path d="M86.2430 9.3119
L86.2906 9.4071
" />
<path d="M86.2906 9.4071
L86.2906 9.7881
" />
<path d="M86.7668 8.7405
L86.7668 8.5500
" />
<path d="M86.7668 8.5500
L86.7192 8.4548
" />
<path d="M86.7192 8.4548
L86.6715 8.4071
" />
<path d="M86.6715 8.4071
L86.5287 8.3119
" />
<path d="M86.5287 8.3119
L86.3382 8.2643
" />
<path d="M86.3382 8.2643
L85.9573 8.2643
" />
<path d="M85.9573 8.2643
L85.8620 8.3119
" />
<path d="M85.8620 8.3119
L85.8144 8.3595
" />
<path d="M85.8144 8.3595
L85.7668 8.4548
" />
<path d="M85.7668 8.4548
L85.7668 8.6452
" />
<path d="M85.7668 8.6452
L85.8144 8.7405
" />
<path d="M85.8144 8.7405
L85.8620 8.7881
" />
<path d="M85.8620 8.7881
L85.9573 8.8357
" />
<path d="M85.9573 8.8357
L86.1954 8.8357
" />
<path d="M86.1954 8.8357
L86.2906 8.7881
" />
<path d="M86.2906 8.7881
L86.3382 8.7405
" />
<path d="M86.3382 8.7405
L86.3858 8.6452
" />
<path d="M86.3858 8.6452
L86.3858 8.4548
" />
<path d="M86.3858 8.4548
L86.3382 8.3595
" />
<path d="M86.3382 8.3595
L86.2906 8.3119
" />
<path d="M86.2906 8.3119
L86.1954 8.2643
" />
</g><text x="48.8494" y="37.2600"
textLength="11.6988" font-size="1.3333" lengthAdjust="spacingAndGlyphs"
text-anchor="middle" opacity="0">HOME_BUTTON1</text>
<g class="stroked-text"><desc>HOME_BUTTON1</desc>
<path d="M43.3256 37.1274
L43.3256 36.1274
" />
<path d="M43.3256 36.6036
L43.8970 36.6036
" />
<path d="M43.8970 37.1274
L43.8970 36.1274
" />
<path d="M44.5637 36.1274
L44.7542 36.1274
" />
<path d="M44.7542 36.1274
L44.8494 36.1750
" />
<path d="M44.8494 36.1750
L44.9446 36.2702
" />
<path d="M44.9446 36.2702
L44.9923 36.4607
" />
<path d="M44.9923 36.4607
L44.9923 36.7940
" />
<path d="M44.9923 36.7940
L44.9446 36.9845
" />
<path d="M44.9446 36.9845
L44.8494 37.0798
" />
<path d="M44.8494 37.0798
L44.7542 37.1274
" />
<path d="M44.7542 37.1274
L44.5637 37.1274
" />
<path d="M44.5637 37.1274
L44.4685 37.0798
" />
<path d="M44.4685 37.0798
L44.3732 36.9845
" />
<path d="M44.3732 36.9845
L44.3256 36.7940
" />
<path d="M44.3256 36.7940
L44.3256 36.4607
" />
<path d="M44.3256 36.4607
L44.3732 36.2702
" />
<path d="M44.3732 36.2702
L44.4685 36.1750
" />
<path d="M44.4685 36.1750
L44.5637 36.1274
" />
<path d="M45.4208 37.1274
L45.4208 36.1274
" />
<path d="M45.4208 36.1274
L45.7542 36.8417
" />
<path d="M45.7542 36.8417
L46.0875 36.1274
" />
<path d="M46.0875 36.1274
L46.0875 37.1274
" />
<path d="M46.5637 36.6036
L46.8970 36.6036
" />
<path d="M47.0399 37.1274
L46.5637 37.1274
" />
<path d="M46.5637 37.1274
L46.5637 36.1274
" />
<path d="M46.5637 36.1274
L47.0399 36.1274
" />
<path d="M47.2304 37.2226
L47.9923 37.2226
" />
<path d="M48.5637 36.6036
L48.7065 36.6512
" />
<path d="M48.7065 36.6512
L48.7542 36.6988
" />
<path d="M48.7542 36.6988
L48.8018 36.7940
" />
<path d="M48.8018 36.7940
L48.8018 36.9369
" />
<path d="M48.8018 36.9369
L48.7542 37.0321
" />
<path d="M48.7542 37.0321
L48.7065 37.0798
" />
<path d="M48.7065 37.0798
L48.6113 37.1274
" />
<path d="M48.6113 37.1274
L48.2304 37.1274
" />
<path d="M48.2304 37.1274
L48.2304 36.1274
" />
<path d="M48.2304 36.1274
L48.5637 36.1274
" />
<path d="M48.5637 36.1274
L48.6589 36.1750
" />
<path d="M48.6589 36.1750
L48.7065 36.2226
" />
<path d="M48.7065 36.2226
L48.7542 36.3179
" />
<path d="M48.7542 36.3179
L48.7542 36.4131
" />
<path d="M48.7542 36.4131
L48.7065 36.5083
" />
<path d="M48.7065 36.5083
L48.6589 36.5560
" />
<path d="M48.6589 36.5560
L48.5637 36.6036
" />
<path d="M48.5637 36.6036
L48.2304 36.6036
" />
<path d="M49.2304 36.1274
L49.2304 36.9369
" />
<path d="M49.2304 36.9369
L49.2780 37.0321
" />
<path d="M49.2780 37.0321
L49.3256 37.0798
" />
<path d="M49.3256 37.0798
L49.4208 37.1274
" />
<path d="M49.4208 37.1274
L49.6113 37.1274
" />
<path d="M49.6113 37.1274
L49.7065 37.0798
" />
<path d="M49.7065 37.0798
L49.7542 37.0321
" />
<path d="M49.7542 37.0321
L49.8018 36.9369
" />
<path d="M49.8018 36.9369
L49.8018 36.1274
" />
<path d="M50.1351 36.1274
L50.7065 36.1274
" />
<path d="M50.4208 37.1274
L50.4208 36.1274
" />
<path d="M50.8970 36.1274
L51.4685 36.1274
" />
<path d="M51.1827 37.1274
L51.1827 36.1274
" />
<path d="M51.9923 36.1274
L52.1827 36.1274
" />
<path d="M52.1827 36.1274
L52.2780 36.1750
" />
<path d="M52.2780 36.1750
L52.3732 36.2702
" />
<path d="M52.3732 36.2702
L52.4208 36.4607
" />
<path d="M52.4208 36.4607
L52.4208 36.7940
" />
<path d="M52.4208 36.7940
L52.3732 36.9845
" />
<path d="M52.3732 36.9845
L52.2780 37.0798
" />
<path d="M52.2780 37.0798
L52.1827 37.1274
" />
<path d="M52.1827 37.1274
L51.9923 37.1274
" />
<path d="M51.9923 37.1274
L51.8970 37.0798
" />
<path d="M51.8970 37.0798
L51.8018 36.9845
" />
<path d="M51.8018 36.9845
L51.7542 36.7940
" />
<path d="M51.7542 36.7940
L51.7542 36.4607
" />
<path d="M51.7542 36.4607
L51.8018 36.2702
" />
<path d="M51.8018 36.2702
L51.8970 36.1750
" />
<path d="M51.8970 36.1750
L51.9923 36.1274
" />
<path d="M52.8494 37.1274
L52.8494 36.1274
" />
<path d="M52.8494 36.1274
L53.4208 37.1274
" />
<path d="M53.4208 37.1274
L53.4208 36.1274
" />
<path d="M54.4208 37.1274
L53.8494 37.1274
" />
<path d="M54.1351 37.1274
L54.1351 36.1274
" />
<path d="M54.1351 36.1274
L54.0399 36.2702
" />
<path d="M54.0399 36.2702
L53.9446 36.3655
" />
<path d="M53.9446 36.3655
L53.8494 36.4131
" />
</g><text x="107.8494" y="25.3000"
textLength="8.5083" font-size="1.3333" lengthAdjust="spacingAndGlyphs"
text-anchor="middle" opacity="0">X_BUTTON1</text>
<g class="stroked-text"><desc>X_BUTTON1</desc>
<path d="M103.8256 24.1674
L104.4923 25.1674
" />
<path d="M104.4923 24.1674
L103.8256 25.1674
" />
<path d="M104.6351 25.2626
L105.3970 25.2626
" />
<path d="M105.9685 24.6436
L106.1113 24.6912
" />
<path d="M106.1113 24.6912
L106.1589 24.7388
" />
<path d="M106.1589 24.7388
L106.2065 24.8340
" />
<path d="M106.2065 24.8340
L106.2065 24.9769
" />
<path d="M106.2065 24.9769
L106.1589 25.0721
" />
<path d="M106.1589 25.0721
L106.1113 25.1198
" />
<path d="M106.1113 25.1198
L106.0161 25.1674
" />
<path d="M106.0161 25.1674
L105.6351 25.1674
" />
<path d="M105.6351 25.1674
L105.6351 24.1674
" />
<path d="M105.6351 24.1674
L105.9685 24.1674
" />
<path d="M105.9685 24.1674
L106.0637 24.2150
" />
<path d="M106.0637 24.2150
L106.1113 24.2626
" />
<path d="M106.1113 24.2626
L106.1589 24.3579
" />
<path d="M106.1589 24.3579
L106.1589 24.4531
" />
<path d="M106.1589 24.4531
L106.1113 24.5483
" />
<path d="M106.1113 24.5483
L106.0637 24.5960
" />
<path d="M106.0637 24.5960
L105.9685 24.6436
" />
<path d="M105.9685 24.6436
L105.6351 24.6436
" />
<path d="M106.6351 24.1674
L106.6351 24.9769
" />
<path d="M106.6351 24.9769
L106.6827 25.0721
" />
<path d="M106.6827 25.0721
L106.7304 25.1198
" />
<path d="M106.7304 25.1198
L106.8256 25.1674
" />
<path d="M106.8256 25.1674
L107.0161 25.1674
" />
<path d="M107.0161 25.1674
L107.1113 25.1198
" />
<path d="M107.1113 25.1198
L107.1589 25.0721
" />
<path d="M107.1589 25.0721
L107.2065 24.9769
" />
<path d="M107.2065 24.9769
L107.2065 24.1674
" />
<path d="M107.5399 24.1674
L108.1113 24.1674
" />
<path d="M107.8256 25.1674
L107.8256 24.1674
" />
<path d="M108.3018 24.1674
L108.8732 24.1674
" />
<path d="M108.5875 25.1674
L108.5875 24.1674
" />
<path d="M109.3970 24.1674
L109.5875 24.1674
" />
<path d="M109.5875 24.1674
L109.6827 24.2150
" />
<path d="M109.6827 24.2150
L109.7780 24.3102
" />
<path d="M109.7780 24.3102
L109.8256 24.5007
" />
<path d="M109.8256 24.5007
L109.8256 24.8340
" />
<path d="M109.8256 24.8340
L109.7780 25.0245
" />
<path d="M109.7780 25.0245
L109.6827 25.1198
" />
<path d="M109.6827 25.1198
L109.5875 25.1674
" />
<path d="M109.5875 25.1674
L109.3970 25.1674
" />
<path d="M109.3970 25.1674
L109.3018 25.1198
" />
<path d="M109.3018 25.1198
L109.2065 25.0245
" />
<path d="M109.2065 25.0245
L109.1589 24.8340
" />
<path d="M109.1589 24.8340
L109.1589 24.5007
" />
<path d="M109.1589 24.5007
L109.2065 24.3102
" />
<path d="M109.2065 24.3102
L109.3018 24.2150
" />
<path d="M109.3018 24.2150
L109.3970 24.1674
" />
<path d="M110.2542 25.1674
L110.2542 24.1674
" />
<path d="M110.2542 24.1674
L110.8256 25.1674
" />
<path d="M110.8256 25.1674
L110.8256 24.1674
" />
<path d="M111.8256 25.1674
L111.2542 25.1674
" />
<path d="M111.5399 25.1674
L111.5399 24.1674
" />
<path d="M111.5399 24.1674
L111.4446 24.3102
" />
<path d="M111.4446 24.3102
L111.3494 24.4055
" />
<path d="M111.3494 24.4055
L111.2542 24.4531
" />
</g></g>
<g style="fill:#F2EDA1; fill-opacity:0.0; 
stroke:#F2EDA1; stroke-width:0.1200; stroke-opacity:1; 
stroke-linecap:round; stroke-linejoin:round;">
<path d="M31.8494 13.0900
L31.8494 12.3200
" />
<path d="M30.4794 12.3200
L33.2194 12.3200
" />
<path d="M33.2194 12.3200
L33.2194 5.7800
" />
<path d="M30.4794 5.7800
L30.4794 12.3200
" />
<path d="M33.2194 5.7800
L30.4794 5.7800
" />
<path d="M31.8494 5.0100
L31.8494 5.7800
" />
<path d="M83.6894 13.0900
L83.6894 12.3200
" />
<path d="M82.3194 12.3200
L85.0594 12.3200
" />
<path d="M85.0594 12.3200
L85.0594 5.7800
" />
<path d="M82.3194 5.7800
L82.3194 12.3200
" />
<path d="M85.0594 5.7800
L82.3194 5.7800
" />
<path d="M83.6894 5.0100
L83.6894 5.7800
" />
<path d="M73.3494 40.2600
L73.3494 41.7600
" />
<path d="M74.5994 44.2600
L79.0994 44.2600
" />
<path d="M79.0994 37.7600
L74.5994 37.7600
" />
<path d="M80.3494 41.7600
L80.3494 40.2600
" />
<path d="M15.3494 11.3000
L15.3494 12.8000
" />
<path d="M16.5994 15.3000
L21.0994 15.3000
" />
<path d="M21.0994 8.8000
L16.5994 8.8000
" />
<path d="M22.3494 12.8000
L22.3494 11.3000
" />
<path d="M78.5444 60.2700
L78.5444 70.4900
" />
<path d="M78.5444 60.2700
L81.2044 60.2700
" />
<path d="M78.5444 70.4900
L81.2044 70.4900
" />
<path d="M79.8744 57.6700
L81.2044 57.6700
" />
<path d="M81.2044 57.6700
L81.2044 59.0000
" />
<path d="M81.2044 60.2700
L81.2044 70.4900
" />
</g>
<g style="fill:#F2EDA1; fill-opacity:0.0; 
stroke:#F2EDA1; stroke-width:0.1500; stroke-opacity:1; 
stroke-linecap:round; stroke-linejoin:round;">
<path d="M66.5194 0.2700
L66.5194 2.8100
" />
<path d="M58.8994 0.2700
L66.5194 0.2700
" />
<path d="M71.5994 2.8100
L71.5994 33.2900
" />
<path d="M66.5194 2.8100
L71.5994 2.8100
" />
<path d="M58.8994 2.8100
L58.8994 0.2700
" />
<path d="M53.8194 2.8100
L58.8994 2.8100
" />
<path d="M53.8194 2.8100
L53.8194 33.2900
" />
<path d="M71.5994 33.2900
L53.8194 33.2900
" />
</g>
<g style="fill:#F2EDA1; fill-opacity:0.0; 
stroke:#F2EDA1; stroke-width:0.1200; stroke-opacity:1; 
stroke-linecap:round; stroke-linejoin:round;">
<path d="M78.6094 13.0900
L78.6094 12.3200
" />
<path d="M77.2394 12.3200
L79.9794 12.3200
" />
<path d="M79.9794 12.3200
L79.9794 5.7800
" />
<path d="M77.2394 5.7800
L77.2394 12.3200
" />
<path d="M79.9794 5.7800
L77.2394 5.7800
" />
<path d="M78.6094 5.0100
L78.6094 5.7800
" />
<path d="M6.5194 60.2400
L6.5194 70.4600
" />
<path d="M6.5194 60.2400
L9.1794 60.2400
" />
<path d="M6.5194 70.4600
L9.1794 70.4600
" />
<path d="M7.8494 57.6400
L9.1794 57.6400
" />
<path d="M9.1794 57.6400
L9.1794 58.9700
" />
<path d="M9.1794 60.2400
L9.1794 70.4600
" />
<path d="M6.3494 20.3000
L6.3494 21.8000
" />
<path d="M7.5994 24.3000
L12.0994 24.3000
" />
<path d="M12.0994 17.8000
L7.5994 17.8000
" />
<path d="M13.3494 21.8000
L13.3494 20.3000
" />
<path d="M93.8494 13.0900
L93.8494 12.3200
" />
<path d="M92.4794 12.3200
L95.2194 12.3200
" />
<path d="M95.2194 12.3200
L95.2194 5.7800
" />
<path d="M92.4794 5.7800
L92.4794 12.3200
" />
<path d="M95.2194 5.7800
L92.4794 5.7800
" />
<path d="M93.8494 5.0100
L93.8494 5.7800
" />
<path d="M113.3494 19.8600
L113.3494 21.3600
" />
<path d="M114.5994 23.8600
L119.0994 23.8600
" />
<path d="M119.0994 17.3600
L114.5994 17.3600
" />
<path d="M120.3494 21.3600
L120.3494 19.8600
" />
<path d="M60.1694 47.5900
L60.1694 46.8200
" />
<path d="M58.7994 46.8200
L61.5394 46.8200
" />
<path d="M61.5394 46.8200
L61.5394 40.2800
" />
<path d="M58.7994 40.2800
L58.7994 46.8200
" />
<path d="M61.5394 40.2800
L58.7994 40.2800
" />
<path d="M60.1694 39.5100
L60.1694 40.2800
" />
<path d="M24.3494 20.3000
L24.3494 21.8000
" />
<path d="M25.5994 24.3000
L30.0994 24.3000
" />
<path d="M30.0994 17.8000
L25.5994 17.8000
" />
<path d="M31.3494 21.8000
L31.3494 20.3000
" />
<path d="M65.2494 47.5900
L65.2494 46.8200
" />
<path d="M63.8794 46.8200
L66.6194 46.8200
" />
<path d="M66.6194 46.8200
L66.6194 40.2800
" />
<path d="M63.8794 40.2800
L63.8794 46.8200
" />
<path d="M66.6194 40.2800
L63.8794 40.2800
" />
<path d="M65.2494 39.5100
L65.2494 40.2800
" />
<path d="M104.3494 11.3000
L104.3494 12.8000
" />
<path d="M105.5994 15.3000
L110.0994 15.3000
" />
<path d="M110.0994 8.8000
L105.5994 8.8000
" />
<path d="M111.3494 12.8000
L111.3494 11.3000
" />
<path d="M95.0994 19.8600
L95.0994 21.3600
" />
<path d="M96.3494 23.8600
L100.8494 23.8600
" />
<path d="M100.8494 17.3600
L96.3494 17.3600
" />
<path d="M102.0994 21.3600
L102.0994 19.8600
" />
<path d="M46.8494 13.0100
L46.8494 12.2400
" />
<path d="M45.4794 12.2400
L48.2194 12.2400
" />
<path d="M48.2194 12.2400
L48.2194 5.7000
" />
<path d="M45.4794 5.7000
L45.4794 12.2400
" />
<path d="M48.2194 5.7000
L45.4794 5.7000
" />
<path d="M46.8494 4.9300
L46.8494 5.7000
" />
<path d="M41.8494 13.0100
L41.8494 12.2400
" />
<path d="M40.4794 12.2400
L43.2194 12.2400
" />
<path d="M43.2194 12.2400
L43.2194 5.7000
" />
<path d="M40.4794 5.7000
L40.4794 12.2400
" />
<path d="M43.2194 5.7000
L40.4794 5.7000
" />
<path d="M41.8494 4.9300
L41.8494 5.7000
" />
<path d="M15.3494 29.3000
L15.3494 30.8000
" />
<path d="M16.5994 33.3000
L21.0994 33.3000
" />
<path d="M21.0994 26.8000
L16.5994 26.8000
" />
<path d="M22.3494 30.8000
L22.3494 29.3000
" />
<path d="M36.8494 13.0100
L36.8494 12.2400
" />
<path d="M35.4794 12.2400
L38.2194 12.2400
" />
<path d="M38.2194 12.2400
L38.2194 5.7000
" />
<path d="M35.4794 5.7000
L35.4794 12.2400
" />
<path d="M38.2194 5.7000
L35.4794 5.7000
" />
<path d="M36.8494 4.9300
L36.8494 5.7000
" />
<path d="M88.7694 13.0900
L88.7694 12.3200
" />
<path d="M87.3994 12.3200
L90.1394 12.3200
" />
<path d="M90.1394 12.3200
L90.1394 5.7800
" />
<path d="M87.3994 5.7800
L87.3994 12.3200
" />
<path d="M90.1394 5.7800
L87.3994 5.7800
" />
<path d="M88.7694 5.0100
L88.7694 5.7800
" />
<path d="M45.3494 40.2600
L45.3494 41.7600
" />
<path d="M46.5994 44.2600
L51.0994 44.2600
" />
<path d="M51.0994 37.7600
L46.5994 37.7600
" />
<path d="M52.3494 41.7600
L52.3494 40.2600
" />
<path d="M104.3494 28.3000
L104.3494 29.8000
" />
<path d="M105.5994 32.3000
L110.0994 32.3000
" />
<path d="M110.0994 25.8000
L105.5994 25.8000
" />
<path d="M111.3494 29.8000
L111.3494 28.3000
" />
<g >
</g>
<g >
</g>
<g >
</g>
<g >
</g>
<g >
</g>
<g >
</g>
<g style="fill:#F2EDA1; fill-opacity:0.0; 
stroke:#F2EDA1; stroke-width:0.1200; stroke-opacity:1; 
stroke-linecap:round; stroke-linejoin:round;">
</g>
<g style="fill:#F2EDA1; fill-opacity:0.0; 
stroke:#F2EDA1; stroke-width:0.0000; stroke-opacity:1; 
stroke-linecap:round; stroke-linejoin:round;">
</g>
<g style="fill:#F2EDA1; fill-opacity:1.0000; 
stroke:#F2EDA1; stroke-width:0.0000; stroke-opacity:1; 
stroke-linecap:round; stroke-linejoin:round;">
<path style="fill:#F2EDA1; fill-opacity:1.0000; 
stroke:#F2EDA1; stroke-width:0.0000; stroke-opacity:1; 
stroke-linecap:round; stroke-linejoin:round;fill-rule:evenodd;"
d="M 54.2894,3.2800
55.8894,3.2800
55.8894,4.8800
54.2894,4.8800
Z" /> 
<circle cx="55.0894" cy="6.6200" r="0.8000" /> 
</g>
<g style="fill:#F2EDA1; fill-opacity:1.0000; 
stroke:#F2EDA1; stroke-width:0.0212; stroke-opacity:1; 
stroke-linecap:round; stroke-linejoin:round;">
</g>
<g style="fill:#F2EDA1; fill-opacity:1.0000; 
stroke:#F2EDA1; stroke-width:0.0000; stroke-opacity:1; 
stroke-linecap:round; stroke-linejoin:round;">
<circle cx="55.0894" cy="9.1600" r="0.8000" /> 
</g>
<g style="fill:#F2EDA1; fill-opacity:1.0000; 
stroke:#F2EDA1; stroke-width:0.0212; stroke-opacity:1; 
stroke-linecap:round; stroke-linejoin:round;">
</g>
<g style="fill:#F2EDA1; fill-opacity:1.0000; 
stroke:#F2EDA1; stroke-width:0.0000; stroke-opacity:1; 
stroke-linecap:round; stroke-linejoin:round;">
<circle cx="55.0894" cy="11.7000" r="0.8000" /> 
</g>
<g style="fill:#F2EDA1; fill-opacity:1.0000; 
stroke:#F2EDA1; stroke-width:0.0212; stroke-opacity:1; 
stroke-linecap:round; stroke-linejoin:round;">
</g>
<g style="fill:#F2EDA1; fill-opacity:1.0000; 
stroke:#F2EDA1; stroke-width:0.0000; stroke-opacity:1; 
stroke-linecap:round; stroke-linejoin:round;">
<circle cx="55.0894" cy="14.2400" r="0.8000" /> 
</g>
<g style="fill:#F2EDA1; fill-opacity:1.0000; 
stroke:#F2EDA1; stroke-width:0.0212; stroke-opacity:1; 
stroke-linecap:round; stroke-linejoin:round;">
</g>
<g style="fill:#F2EDA1; fill-opacity:1.0000; 
stroke:#F2EDA1; stroke-width:0.0000; stroke-opacity:1; 
stroke-linecap:round; stroke-linejoin:round;">
<circle cx="55.0894" cy="16.7800" r="0.8000" /> 
</g>
<g style="fill:#F2EDA1; fill-opacity:1.0000; 
stroke:#F2EDA1; stroke-width:0.0212; stroke-opacity:1; 
stroke-linecap:round; stroke-linejoin:round;">
</g>
<g style="fill:#F2EDA1; fill-opacity:1.0000; 
stroke:#F2EDA1; stroke-width:0.0000; stroke-opacity:1; 
stroke-linecap:round; stroke-linejoin:round;">
<circle cx="55.0894" cy="19.3200" r="0.8000" /> 
</g>
<g style="fill:#F2EDA1; fill-opacity:1.0000; 
stroke:#F2EDA1; stroke-width:0.0212; stroke-opacity:1; 
stroke-linecap:round; stroke-linejoin:round;">
</g>
<g style="fill:#F2EDA1; fill-opacity:1.0000; 
stroke:#F2EDA1; stroke-width:0.0000; stroke-opacity:1; 
stroke-linecap:round; stroke-linejoin:round;">
<circle cx="55.0894" cy="21.8600" r="0.8000" /> 
</g>
<g style="fill:#F2EDA1; fill-opacity:1.0000; 
stroke:#F2EDA1; stroke-width:0.0212; stroke-opacity:1; 
stroke-linecap:round; stroke-linejoin:round;">
</g>
<g style="fill:#F2EDA1; fill-opacity:1.0000; 
stroke:#F2EDA1; stroke-width:0.0000; stroke-opacity:1; 
stroke-linecap:round; stroke-linejoin:round;">
<circle cx="55.0894" cy="24.4000" r="0.8000" /> 
</g>
<g style="fill:#F2EDA1; fill-opacity:1.0000; 
stroke:#F2EDA1; stroke-width:0.0212; stroke-opacity:1; 
stroke-linecap:round; stroke-linejoin:round;">
</g>
<g style="fill:#F2EDA1; fill-opacity:1.0000; 
stroke:#F2EDA1; stroke-width:0.0000; stroke-opacity:1; 
stroke-linecap:round; stroke-linejoin:round;">
<circle cx="55.0894" cy="26.9400" r="0.8000" /> 
</g>
<g style="fill:#F2EDA1; fill-opacity:1.0000; 
stroke:#F2EDA1; stroke-width:0.0212; stroke-opacity:1; 
stroke-linecap:round; stroke-linejoin:round;">
</g>
<g style="fill:#F2EDA1; fill-opacity:1.0000; 
stroke:#F2EDA1; stroke-width:0.0000; stroke-opacity:1; 
stroke-linecap:round; stroke-linejoin:round;">
<circle cx="55.0894" cy="29.4800" r="0.8000" /> 
</g>
<g style="fill:#F2EDA1; fill-opacity:1.0000; 
stroke:#F2EDA1; stroke-width:0.0212; stroke-opacity:1; 
stroke-linecap:round; stroke-linejoin:round;">
</g>
<g style="fill:#F2EDA1; fill-opacity:1.0000; 
stroke:#F2EDA1; stroke-width:0.0000; stroke-opacity:1; 
stroke-linecap:round; stroke-linejoin:round;">
<circle cx="55.0894" cy="32.0200" r="0.8000" /> 
</g>
<g style="fill:#F2EDA1; fill-opacity:1.0000; 
stroke:#F2EDA1; stroke-width:0.0212; stroke-opacity:1; 
stroke-linecap:round; stroke-linejoin:round;">
</g>
<g style="fill:#F2EDA1; fill-opacity:1.0000; 
stroke:#F2EDA1; stroke-width:0.0000; stroke-opacity:1; 
stroke-linecap:round; stroke-linejoin:round;">
<circle cx="70.3294" cy="32.0200" r="0.8000" /> 
</g>
<g style="fill:#F2EDA1; fill-opacity:1.0000; 
stroke:#F2EDA1; stroke-width:0.0212; stroke-opacity:1; 
stroke-linecap:round; stroke-linejoin:round;">
</g>
<g style="fill:#F2EDA1; fill-opacity:1.0000; 
stroke:#F2EDA1; stroke-width:0.0000; stroke-opacity:1; 
stroke-linecap:round; stroke-linejoin:round;">
<circle cx="70.3294" cy="29.4800" r="0.8000" /> 
</g>
<g style="fill:#F2EDA1; fill-opacity:1.0000; 
stroke:#F2EDA1; stroke-width:0.0212; stroke-opacity:1; 
stroke-linecap:round; stroke-linejoin:round;">
</g>
<g style="fill:#F2EDA1; fill-opacity:1.0000; 
stroke:#F2EDA1; stroke-width:0.0000; stroke-opacity:1; 
stroke-linecap:round; stroke-linejoin:round;">
<circle cx="70.3294" cy="26.9400" r="0.8000" /> 
</g>
<g style="fill:#F2EDA1; fill-opacity:1.0000; 
stroke:#F2EDA1; stroke-width:0.0212; stroke-opacity:1; 
stroke-linecap:round; stroke-linejoin:round;">
</g>
<g style="fill:#F2EDA1; fill-opacity:1.0000; 
stroke:#F2EDA1; stroke-width:0.0000; stroke-opacity:1; 
stroke-linecap:round; stroke-linejoin:round;">
<circle cx="70.3294" cy="24.4000" r="0.8000" /> 
</g>
<g style="fill:#F2EDA1; fill-opacity:1.0000; 
stroke:#F2EDA1; stroke-width:0.0212; stroke-opacity:1; 
stroke-linecap:round; stroke-linejoin:round;">
</g>
<g style="fill:#F2EDA1; fill-opacity:1.0000; 
stroke:#F2EDA1; stroke-width:0.0000; stroke-opacity:1; 
stroke-linecap:round; stroke-linejoin:round;">
<circle cx="70.3294" cy="21.8600" r="0.8000" /> 
</g>
<g style="fill:#F2EDA1; fill-opacity:1.0000; 
stroke:#F2EDA1; stroke-width:0.0212; stroke-opacity:1; 
stroke-linecap:round; stroke-linejoin:round;">
</g>
<g style="fill:#F2EDA1; fill-opacity:1.0000; 
stroke:#F2EDA1; stroke-width:0.0000; stroke-opacity:1; 
stroke-linecap:round; stroke-linejoin:round;">
<circle cx="70.3294" cy="19.3200" r="0.8000" /> 
</g>
<g style="fill:#F2EDA1; fill-opacity:1.0000; 
stroke:#F2EDA1; stroke-width:0.0212; stroke-opacity:1; 
stroke-linecap:round; stroke-linejoin:round;">
</g>
<g style="fill:#F2EDA1; fill-opacity:1.0000; 
stroke:#F2EDA1; stroke-width:0.0000; stroke-opacity:1; 
stroke-linecap:round; stroke-linejoin:round;">
<circle cx="70.3294" cy="16.7800" r="0.8000" /> 
</g>
<g style="fill:#F2EDA1; fill-opacity:1.0000; 
stroke:#F2EDA1; stroke-width:0.0212; stroke-opacity:1; 
stroke-linecap:round; stroke-linejoin:round;">
</g>
<g style="fill:#F2EDA1; fill-opacity:1.0000; 
stroke:#F2EDA1; stroke-width:0.0000; stroke-opacity:1; 
stroke-linecap:round; stroke-linejoin:round;">
<circle cx="70.3294" cy="14.2400" r="0.8000" /> 
</g>
<g style="fill:#F2EDA1; fill-opacity:1.0000; 
stroke:#F2EDA1; stroke-width:0.0212; stroke-opacity:1; 
stroke-linecap:round; stroke-linejoin:round;">
</g>
<g style="fill:#F2EDA1; fill-opacity:1.0000; 
stroke:#F2EDA1; stroke-width:0.0000; stroke-opacity:1; 
stroke-linecap:round; stroke-linejoin:round;">
<circle cx="70.3294" cy="11.7000" r="0.8000" /> 
</g>
<g style="fill:#F2EDA1; fill-opacity:1.0000; 
stroke:#F2EDA1; stroke-width:0.0212; stroke-opacity:1; 
stroke-linecap:round; stroke-linejoin:round;">
</g>
<g style="fill:#F2EDA1; fill-opacity:1.0000; 
stroke:#F2EDA1; stroke-width:0.0000; stroke-opacity:1; 
stroke-linecap:round; stroke-linejoin:round;">
<circle cx="70.3294" cy="9.1600" r="0.8000" /> 
</g>
<g style="fill:#F2EDA1; fill-opacity:1.0000; 
stroke:#F2EDA1; stroke-width:0.0212; stroke-opacity:1; 
stroke-linecap:round; stroke-linejoin:round;">
</g>
<g style="fill:#F2EDA1; fill-opacity:1.0000; 
stroke:#F2EDA1; stroke-width:0.0000; stroke-opacity:1; 
stroke-linecap:round; stroke-linejoin:round;">
<circle cx="70.3294" cy="6.6200" r="0.8000" /> 
</g>
<g style="fill:#F2EDA1; fill-opacity:1.0000; 
stroke:#F2EDA1; stroke-width:0.0212; stroke-opacity:1; 
stroke-linecap:round; stroke-linejoin:round;">
</g>
<g style="fill:#F2EDA1; fill-opacity:1.0000; 
stroke:#F2EDA1; stroke-width:0.0000; stroke-opacity:1; 
stroke-linecap:round; stroke-linejoin:round;">
<circle cx="70.3294" cy="4.0800" r="0.8000" /> 
</g>
<g style="fill:#F2EDA1; fill-opacity:1.0000; 
stroke:#F2EDA1; stroke-width:0.0212; stroke-opacity:1; 
stroke-linecap:round; stroke-linejoin:round;">
</g>
<g >
</g>
<g >
</g>
<g >
</g>
<g >
</g>
<g >
</g>
<g >
</g>
<g >
</g>
<g >
</g>
<g >
</g>
<g >
</g>
<g >
</g>
<g >
</g>
<g >
</g>
<g >
</g>
<g >
</g>
<g >
</g>
<g >
</g>
<g >
</g>
<g >
</g>
<g >
</g>
</g>
<g style="fill:#000000; fill-opacity:1.0000; 
stroke:#000000; stroke-width:0.0212; stroke-opacity:1; 
stroke-linecap:round; stroke-linejoin:round;">
</g>
<g style="fill:#D0D2CD; fill-opacity:1.0000; 
stroke:#D0D2CD; stroke-width:0.0212; stroke-opacity:1; 
stroke-linecap:round; stroke-linejoin:round;">
</g>
<g style="fill:#D0D2CD; fill-opacity:1.0000; 
stroke:#D0D2CD; stroke-width:0.1000; stroke-opacity:1; 
stroke-linecap:round; stroke-linejoin:round;">
</g>
<g style="fill:#D0D2CD; fill-opacity:0.0; 
stroke:#D0D2CD; stroke-width:0.1000; stroke-opacity:1; 
stroke-linecap:round; stroke-linejoin:round;">
<path d="M1.8494 0.0500
L124.8494 0.0500
" />
<path d="M124.8494 0.0500
L124.8494 74.0500
" />
<path d="M124.8494 74.0500
L1.8494 74.0500
" />
<path d="M1.8494 74.0500
L1.8494 0.0500
" />
<g >
</g>
<g >
</g>
<g >
</g>
<g >
</g>
<g >
</g>
<g >
</g>
<g >
</g>
<g >
</g>
<g >
</g>
<g >
</g>
<g >
</g>
<g >
</g>
<g >
</g>
<g >
</g>
<g >
</g>
<g >
</g>
<g >
</g>
<g >
</g>
<g >
</g>
<g >
</g>
<g >
</g>
<g >
</g>
<g >
</g>
<g >
</g>
<g >
</g>
<g >
</g>
</g> 
</svg>
